<svg width="153" height="166" viewBox="0 0 153 166" fill="none" xmlns="http://www.w3.org/2000/svg">
<path d="M7.19727 152.61H11.5586V154.49H7.19727V159.432H5.19922V154.49H0.837891V152.61H5.19922V148.045H7.19727V152.61Z" fill="#E5E5E5"/>
<path d="M46.5586 117.61V119.479H35.8379V117.61H46.5586ZM42.1973 113.045V124.432H40.21V113.045H42.1973Z" fill="#D89B2E"/>
<path d="M81.5586 12.6104V14.4795H70.8379V12.6104H81.5586ZM77.1973 8.04492V19.4316H75.21V8.04492H77.1973Z" fill="#1B573B"/>
<path d="M77.1973 47.6104H81.5586V49.4902H77.1973V54.4316H75.1992V49.4902H70.8379V47.6104H75.1992V43.0449H77.1973V47.6104Z" fill="#E5E5E5"/>
<path d="M77.1973 82.6104H81.5586V84.4902H77.1973V89.4316H75.1992V84.4902H70.8379V82.6104H75.1992V78.0449H77.1973V82.6104Z" fill="#1B573B"/>
<path d="M77.1973 117.61H81.5586V119.49H77.1973V124.432H75.1992V119.49H70.8379V117.61H75.1992V113.045H77.1973V117.61Z" fill="#E5E5E5"/>
<path d="M81.5586 152.61V154.479H70.8379V152.61H81.5586ZM77.1973 148.045V159.432H75.21V148.045H77.1973Z" fill="#D89626"/>
<path d="M112.197 12.6104H116.559V14.4902H112.197V19.4316H110.199V14.4902H105.838V12.6104H110.199V8.04492H112.197V12.6104Z" fill="#E5E5E5"/>
<path d="M116.559 47.6104V49.4795H105.838V47.6104H116.559ZM112.197 43.0449V54.4316H110.21V43.0449H112.197Z" fill="#D7921D"/>
<path d="M112.197 82.6104H116.559V84.4902H112.197V89.4316H110.199V84.4902H105.838V82.6104H110.199V78.0449H112.197V82.6104Z" fill="#E5E5E5"/>
<path d="M116.559 117.61V119.479H105.838V117.61H116.559ZM112.197 113.045V124.432H110.21V113.045H112.197Z" fill="#1B573B"/>
<mask id="mask0_351_465" style="mask-type:alpha" maskUnits="userSpaceOnUse" x="105" y="139" width="13" height="16">
<rect x="105" y="139" width="13" height="16" fill="#D9D9D9"/>
</mask>
<g mask="url(#mask0_351_465)">
<path d="M116.559 152.499V154.368H105.838V152.499H116.559ZM112.197 147.934V159.321H110.21V147.934H112.197Z" fill="#E5E5E5"/>
</g>
<path d="M147.197 12.6104H151.559V14.4902H147.197V19.4316H145.199V14.4902H140.838V12.6104H145.199V8.04492H147.197V12.6104Z" fill="#D78E16"/>
<path d="M147.197 47.6104H151.559V49.4902H147.197V54.4316H145.199V49.4902H140.838V47.6104H145.199V43.0449H147.197V47.6104Z" fill="#E5E5E5"/>
<path d="M151.559 82.6104V84.4795H140.838V82.6104H151.559ZM147.197 78.0449V89.4316H145.21V78.0449H147.197Z" fill="#D79019"/>
<path d="M151.559 117.61V119.479H140.838V117.61H151.559ZM147.197 113.045V124.432H145.21V113.045H147.197Z" fill="#E5E5E5"/>
<path d="M151.559 152.61V154.479H140.838V152.61H151.559ZM147.197 148.045V159.432H145.21V148.045H147.197Z" fill="#E5E5E5"/>
</svg>
