<svg width="86" height="94" viewBox="0 0 86 94" fill="none" xmlns="http://www.w3.org/2000/svg">
<path d="M12.1909 86.6804V88.5496H1.47021V86.6804H12.1909ZM7.82959 82.115V93.5017H5.84229V82.115H7.82959Z" fill="#E5E5E5"/>
<path d="M30.5332 68.3389V70.208H19.8125V68.3389H30.5332ZM26.1719 63.7734V75.1602H24.1846V63.7734H26.1719Z" fill="#D89B2E"/>
<path d="M48.8765 13.3118V15.1809H38.1558V13.3118H48.8765ZM44.5151 8.74634V20.1331H42.5278V8.74634H44.5151Z" fill="#1B573B"/>
<path d="M48.8765 31.6543V33.5234H38.1558V31.6543H48.8765ZM44.5151 27.0889V38.4756H42.5278V27.0889H44.5151Z" fill="#E5E5E5"/>
<path d="M48.8765 49.9963V51.8655H38.1558V49.9963H48.8765ZM44.5151 45.4309V56.8176H42.5278V45.4309H44.5151Z" fill="#1B573B"/>
<path d="M48.8765 68.3389V70.208H38.1558V68.3389H48.8765ZM44.5151 63.7734V75.1602H42.5278V63.7734H44.5151Z" fill="#E5E5E5"/>
<path d="M48.8765 86.6804V88.5496H38.1558V86.6804H48.8765ZM44.5151 82.115V93.5017H42.5278V82.115H44.5151Z" fill="#D89626"/>
<path d="M67.2183 13.3118V15.1809H56.4976V13.3118H67.2183ZM62.8569 8.74634V20.1331H60.8696V8.74634H62.8569Z" fill="#E5E5E5"/>
<path d="M67.2183 31.6543V33.5234H56.4976V31.6543H67.2183ZM62.8569 27.0889V38.4756H60.8696V27.0889H62.8569Z" fill="#D7921D"/>
<path d="M67.2183 49.9963V51.8655H56.4976V49.9963H67.2183ZM62.8569 45.4309V56.8176H60.8696V45.4309H62.8569Z" fill="#E5E5E5"/>
<path d="M67.2183 68.3389V70.208H56.4976V68.3389H67.2183ZM62.8569 63.7734V75.1602H60.8696V63.7734H62.8569Z" fill="#1B573B"/>
<path d="M67.2183 86.6804V88.5496H56.4976V86.6804H67.2183ZM62.8569 82.115V93.5017H60.8696V82.115H62.8569Z" fill="#E5E5E5"/>
<path d="M85.562 13.3118V15.1809H74.8413V13.3118H85.562ZM81.2007 8.74634V20.1331H79.2134V8.74634H81.2007Z" fill="#D78E16"/>
<path d="M85.562 31.6543V33.5234H74.8413V31.6543H85.562ZM81.2007 27.0889V38.4756H79.2134V27.0889H81.2007Z" fill="#E5E5E5"/>
<path d="M85.562 49.9963V51.8655H74.8413V49.9963H85.562ZM81.2007 45.4309V56.8176H79.2134V45.4309H81.2007Z" fill="#D79019"/>
<path d="M85.562 68.3389V70.208H74.8413V68.3389H85.562ZM81.2007 63.7734V75.1602H79.2134V63.7734H81.2007Z" fill="#E5E5E5"/>
<path d="M85.562 86.6804V88.5496H74.8413V86.6804H85.562ZM81.2007 82.115V93.5017H79.2134V82.115H81.2007Z" fill="#E5E5E5"/>
</svg>
