<svg width="43" height="51" viewBox="0 0 43 51" fill="none" xmlns="http://www.w3.org/2000/svg">
<path d="M35.7352 26.9115C35.7112 22.8195 37.5652 19.7355 41.3092 17.4615C39.2152 14.4615 36.0472 12.8115 31.8712 12.4935C27.9172 12.1815 23.5912 14.7975 22.0072 14.7975C20.3332 14.7975 16.5052 12.6015 13.4932 12.6015C7.27726 12.6975 0.671265 17.5575 0.671265 27.4455C0.671265 30.3675 1.20526 33.3855 2.27326 36.4935C3.70126 40.5855 8.84925 50.6115 14.2192 50.4495C17.0272 50.3835 19.0132 48.4575 22.6672 48.4575C26.2132 48.4575 28.0492 50.4495 31.1812 50.4495C36.5992 50.3715 41.2552 41.2575 42.6112 37.1535C35.3452 33.7275 35.7352 27.1215 35.7352 26.9115V26.9115ZM29.4292 8.61153C32.4712 4.99953 32.1952 1.71154 32.1052 0.529541C29.4172 0.685541 26.3092 2.35954 24.5392 4.41754C22.5892 6.62553 21.4432 9.35553 21.6892 12.4335C24.5932 12.6555 27.2452 11.1615 29.4292 8.61153V8.61153Z" fill="white"/>
</svg>
