<svg width="78" height="70" viewBox="0 0 78 70" fill="none" xmlns="http://www.w3.org/2000/svg">
<circle cx="35" cy="35" r="34" stroke="#B4DEC8" stroke-width="2"/>
<path d="M35 22.5L25 26.25V33.8625C25 40.175 29.2625 46.0625 35 47.5C40.7375 46.0625 45 40.175 45 33.8625V26.25L35 22.5ZM42.5 33.8625C42.5 38.8625 39.3125 43.4875 35 44.9C30.6875 43.4875 27.5 38.875 27.5 33.8625V27.8875L35 25.2375L42.5 27.8875V33.8625ZM31.025 33.2375L29.25 35L33.675 39.425L40.75 32.35L38.9875 30.5875L33.6875 35.8875L31.025 33.2375Z" fill="#1B603C"/>
<ellipse cx="65.5764" cy="55.5" rx="11.5764" ry="11.5" fill="#1B603C"/>
<path d="M64.955 61V54.73C64.955 54.5 64.955 54.265 64.955 54.025C64.965 53.775 64.975 53.52 64.985 53.26C64.645 53.57 64.265 53.84 63.845 54.07C63.425 54.3 62.995 54.46 62.555 54.55L62.285 52.81C62.515 52.79 62.77 52.725 63.05 52.615C63.34 52.495 63.63 52.355 63.92 52.195C64.22 52.025 64.49 51.85 64.73 51.67C64.98 51.48 65.17 51.29 65.3 51.1H66.98V61H64.955Z" fill="white"/>
</svg>
