<svg width="78" height="70" viewBox="0 0 78 70" fill="none" xmlns="http://www.w3.org/2000/svg">
<circle cx="35" cy="35" r="34" stroke="#B4DEC8" stroke-width="2"/>
<path d="M45.3125 23.4375H24.6875C24.356 23.4375 24.038 23.5692 23.8036 23.8036C23.5692 24.038 23.4375 24.356 23.4375 24.6875V45.3125C23.4375 45.644 23.5692 45.962 23.8036 46.1964C24.038 46.4308 24.356 46.5625 24.6875 46.5625H45.3125C45.644 46.5625 45.962 46.4308 46.1964 46.1964C46.4308 45.962 46.5625 45.644 46.5625 45.3125V24.6875C46.5625 24.356 46.4308 24.038 46.1964 23.8036C45.962 23.5692 45.644 23.4375 45.3125 23.4375V23.4375Z" stroke="#1B603C" stroke-width="1.25" stroke-linecap="round" stroke-linejoin="round"/>
<path d="M25.9375 34.823H31.2375L32.1206 36.2011L33.0744 34.1874L34.6644 43.5149L35.8656 26.4849L37.0669 35.318L37.8444 34.823H44.0625" stroke="#1B603C" stroke-width="1.25" stroke-linecap="round" stroke-linejoin="round"/>
<ellipse cx="65.5764" cy="55.5" rx="11.5764" ry="11.5" fill="#1B603C"/>
<path d="M66.29 61.15C65.42 61.15 64.685 60.97 64.085 60.61C63.495 60.25 63.01 59.7 62.63 58.96L64.49 58.03C64.62 58.47 64.825 58.825 65.105 59.095C65.385 59.365 65.795 59.5 66.335 59.5C66.705 59.5 67.02 59.435 67.28 59.305C67.54 59.175 67.74 58.985 67.88 58.735C68.03 58.485 68.105 58.18 68.105 57.82C68.105 57.46 68.035 57.16 67.895 56.92C67.765 56.67 67.575 56.485 67.325 56.365C67.075 56.235 66.76 56.17 66.38 56.17C66.12 56.17 65.875 56.195 65.645 56.245C65.425 56.295 65.225 56.375 65.045 56.485C64.865 56.585 64.705 56.72 64.565 56.89L62.945 56.59L63.56 51.1H69.545V52.765H65.12L64.82 55.18L64.775 55.375H64.805C65.015 55.135 65.3 54.95 65.66 54.82C66.03 54.69 66.45 54.625 66.92 54.625C67.57 54.625 68.125 54.755 68.585 55.015C69.045 55.275 69.4 55.64 69.65 56.11C69.9 56.57 70.025 57.1 70.025 57.7C70.025 58.27 69.93 58.775 69.74 59.215C69.55 59.645 69.28 60.005 68.93 60.295C68.59 60.575 68.195 60.79 67.745 60.94C67.295 61.08 66.81 61.15 66.29 61.15Z" fill="white"/>
</svg>
