<svg width="78" height="70" viewBox="0 0 78 70" fill="none" xmlns="http://www.w3.org/2000/svg">
<circle cx="35" cy="35" r="34" stroke="#B4DEC8" stroke-width="2"/>
<g clip-path="url(#clip0_351_683)">
<path fill-rule="evenodd" clip-rule="evenodd" d="M34.1225 22.7438C34.6883 22.5317 35.3117 22.5317 35.8775 22.7438L44.6275 26.025C45.1041 26.2037 45.5149 26.5236 45.8048 26.942C46.0947 27.3603 46.2501 27.8573 46.25 28.3663V35.07C46.25 37.1593 45.6683 39.2073 44.5699 40.9846C43.4715 42.7619 41.9 44.1982 40.0312 45.1325L35.8387 47.2275C35.5783 47.3578 35.2912 47.4256 35 47.4256C34.7088 47.4256 34.4217 47.3578 34.1613 47.2275L29.9688 45.1313C28.1 44.1969 26.5285 42.7606 25.4301 40.9833C24.3317 39.2061 23.75 37.1581 23.75 35.0688V28.3675C23.7497 27.8583 23.9049 27.3611 24.1948 26.9425C24.4848 26.5239 24.8957 26.2038 25.3725 26.025L34.1225 22.7438ZM36.25 34.665C36.7266 34.3898 37.099 33.9651 37.3096 33.4567C37.5202 32.9482 37.5571 32.3845 37.4147 31.853C37.2723 31.3214 36.9584 30.8517 36.5218 30.5167C36.0852 30.1817 35.5503 30.0001 35 30C34.4497 30.0001 33.9148 30.1817 33.4782 30.5167C33.0416 30.8517 32.7277 31.3214 32.5853 31.853C32.4429 32.3845 32.4798 32.9482 32.6904 33.4567C32.901 33.9651 33.2734 34.3898 33.75 34.665V38.75C33.75 39.0815 33.8817 39.3995 34.1161 39.6339C34.3505 39.8683 34.6685 40 35 40C35.3315 40 35.6495 39.8683 35.8839 39.6339C36.1183 39.3995 36.25 39.0815 36.25 38.75V34.665Z" fill="#1B603C"/>
</g>
<ellipse cx="65.5764" cy="55.5" rx="11.5764" ry="11.5" fill="#1B603C"/>
<path d="M66.455 61.15C65.465 61.15 64.62 60.945 63.92 60.535C63.23 60.115 62.755 59.515 62.495 58.735L64.445 57.88C64.515 58.24 64.63 58.54 64.79 58.78C64.95 59.01 65.165 59.185 65.435 59.305C65.715 59.425 66.045 59.485 66.425 59.485C66.765 59.485 67.05 59.425 67.28 59.305C67.52 59.185 67.705 59.015 67.835 58.795C67.965 58.575 68.03 58.325 68.03 58.045C68.03 57.745 67.97 57.5 67.85 57.31C67.74 57.12 67.57 56.985 67.34 56.905C67.11 56.815 66.82 56.77 66.47 56.77C66.34 56.77 66.215 56.775 66.095 56.785C65.985 56.785 65.86 56.795 65.72 56.815V55.3C65.8 55.31 65.88 55.32 65.96 55.33C66.05 55.33 66.14 55.33 66.23 55.33C66.79 55.33 67.19 55.22 67.43 55C67.68 54.77 67.805 54.405 67.805 53.905C67.805 53.495 67.68 53.18 67.43 52.96C67.19 52.73 66.845 52.615 66.395 52.615C65.915 52.615 65.535 52.735 65.255 52.975C64.975 53.205 64.78 53.56 64.67 54.04L62.825 53.35C62.945 52.85 63.175 52.42 63.515 52.06C63.865 51.7 64.295 51.425 64.805 51.235C65.315 51.035 65.88 50.935 66.5 50.935C67.24 50.935 67.855 51.05 68.345 51.28C68.845 51.51 69.22 51.825 69.47 52.225C69.73 52.625 69.86 53.085 69.86 53.605C69.86 54.015 69.795 54.365 69.665 54.655C69.545 54.935 69.385 55.175 69.185 55.375C68.995 55.565 68.795 55.71 68.585 55.81C68.375 55.91 68.18 55.97 68 55.99V56.035C68.23 56.045 68.465 56.095 68.705 56.185C68.945 56.265 69.165 56.39 69.365 56.56C69.575 56.73 69.745 56.95 69.875 57.22C70.005 57.48 70.07 57.79 70.07 58.15C70.07 58.75 69.91 59.28 69.59 59.74C69.28 60.19 68.855 60.54 68.315 60.79C67.775 61.03 67.155 61.15 66.455 61.15Z" fill="white"/>
<defs>
<clipPath id="clip0_351_683">
<rect width="30" height="30" fill="white" transform="translate(20 20)"/>
</clipPath>
</defs>
</svg>
