<svg width="78" height="70" viewBox="0 0 78 70" fill="none" xmlns="http://www.w3.org/2000/svg">
<circle cx="35" cy="35" r="34" stroke="#B4DEC8" stroke-width="2"/>
<path d="M28.6375 26.8748L31.5125 29.7373L29.7375 31.5123L26.875 28.6373L24.0125 31.5123L22.2375 29.7373L25.1125 26.8748L22.2375 24.0123L24.0125 22.2373L26.875 25.1123L29.7375 22.2373L31.5125 24.0123M47.7625 40.2623L45.9875 38.4873L43.125 41.3623L40.2625 38.4873L38.4875 40.2623L41.3625 43.1248L38.4875 45.9873L40.2625 47.7623L43.125 44.8873L45.9875 47.7623L47.7625 45.9873L44.8875 43.1248M45.5 28.5373L41.475 33.7498L39.5 32.1623L40.9625 30.2873C39.0971 30.6662 37.357 31.5082 35.9022 32.7358C34.4475 33.9634 33.3248 35.5372 32.6375 37.3123C33.7255 38.0969 34.4973 39.2444 34.8137 40.548C35.1301 41.8515 34.9703 43.2252 34.363 44.4212C33.7558 45.6173 32.7411 46.557 31.502 47.0707C30.2629 47.5845 28.881 47.6386 27.6056 47.2232C26.3301 46.8079 25.2451 45.9504 24.5462 44.8055C23.8474 43.6605 23.5806 42.3035 23.7942 40.9793C24.0077 39.655 24.6875 38.4506 25.7108 37.5834C26.7341 36.7162 28.0337 36.2432 29.375 36.2498C29.7025 36.2511 30.0291 36.2846 30.35 36.3498C31.2161 34.2006 32.5989 32.2982 34.3759 30.8111C36.1529 29.3241 38.2693 28.2984 40.5375 27.8248L38.75 26.4748L40.3375 24.4998M32.5 41.8748C32.5 41.2567 32.3168 40.6526 31.9734 40.1386C31.63 39.6247 31.142 39.2242 30.5709 38.9877C29.9999 38.7512 29.3716 38.6893 28.7654 38.8099C28.1592 38.9304 27.6024 39.2281 27.1653 39.6651C26.7283 40.1021 26.4307 40.659 26.3101 41.2651C26.1895 41.8713 26.2514 42.4997 26.4879 43.0707C26.7244 43.6417 27.125 44.1298 27.6389 44.4731C28.1528 44.8165 28.757 44.9998 29.375 44.9998C30.2039 44.9998 30.9987 44.6706 31.5848 44.0845C32.1708 43.4985 32.5 42.7036 32.5 41.8748Z" fill="#1B603C"/>
<ellipse cx="65.5764" cy="55.5" rx="11.5764" ry="11.5" fill="#1B603C"/>
<path d="M67.49 61V58.675H62.66V57.325C62.71 57.225 62.78 57.105 62.87 56.965C62.97 56.815 63.08 56.645 63.2 56.455L66.89 51.1H69.365V57.175H70.97V58.675H69.365V61H67.49ZM64.43 57.175H67.505V53.905C67.505 53.695 67.51 53.47 67.52 53.23C67.53 52.99 67.54 52.755 67.55 52.525H67.52C67.41 52.745 67.275 52.985 67.115 53.245C66.965 53.495 66.825 53.72 66.695 53.92L64.625 56.89C64.595 56.94 64.56 56.99 64.52 57.04C64.49 57.08 64.46 57.125 64.43 57.175Z" fill="white"/>
</svg>
