<svg width="78" height="70" viewBox="0 0 78 70" fill="none" xmlns="http://www.w3.org/2000/svg">
<circle cx="35" cy="35" r="34" stroke="#B4DEC8" stroke-width="2"/>
<g clip-path="url(#clip0_351_666)">
<path d="M47.5801 20.5508C47.7559 20.7324 47.8906 20.9375 47.9844 21.1543C48.0781 21.3711 48.125 21.6113 48.125 21.8691V27.5C48.125 28.5371 47.2871 29.375 46.25 29.375C45.2129 29.375 44.375 28.5371 44.375 27.5V26.4043L38.1992 32.5742C37.5078 33.2656 36.3945 33.3125 35.6504 32.6738L30.3125 28.0918L24.9688 32.6738C24.1836 33.3477 23 33.2539 22.3262 32.4688C21.6523 31.6836 21.7461 30.5 22.5312 29.8262L29.0938 24.2012C29.7969 23.5977 30.834 23.5977 31.5371 24.2012L36.7812 28.6953L41.7207 23.75H40.625C39.5879 23.75 38.75 22.9121 38.75 21.875C38.75 20.8379 39.5879 20 40.625 20H46.25C46.7656 20 47.2344 20.2109 47.5742 20.5449L47.5801 20.5508ZM20 37.8125C20 36.2598 21.2598 35 22.8125 35H47.1875C48.7402 35 50 36.2598 50 37.8125V47.1875C50 48.7402 48.7402 50 47.1875 50H22.8125C21.2598 50 20 48.7402 20 47.1875V37.8125ZM22.8125 44.375V47.1875H25.625C25.625 45.6348 24.3652 44.375 22.8125 44.375ZM25.625 37.8125H22.8125V40.625C24.3652 40.625 25.625 39.3652 25.625 37.8125ZM47.1875 44.375C45.6348 44.375 44.375 45.6348 44.375 47.1875H47.1875V44.375ZM44.375 37.8125C44.375 39.3652 45.6348 40.625 47.1875 40.625V37.8125H44.375ZM38.75 42.5C38.75 40.4316 37.0684 38.75 35 38.75C32.9316 38.75 31.25 40.4316 31.25 42.5C31.25 44.5684 32.9316 46.25 35 46.25C37.0684 46.25 38.75 44.5684 38.75 42.5Z" fill="#1B603C"/>
</g>
<ellipse cx="65.5764" cy="55.5" rx="11.5764" ry="11.5" fill="#1B603C"/>
<path d="M67.025 50.95C67.555 50.95 68.035 51.025 68.465 51.175C68.895 51.315 69.27 51.545 69.59 51.865C69.92 52.175 70.175 52.59 70.355 53.11L68.615 53.92C68.495 53.53 68.295 53.225 68.015 53.005C67.745 52.775 67.37 52.66 66.89 52.66C66.55 52.66 66.245 52.74 65.975 52.9C65.715 53.06 65.49 53.29 65.3 53.59C65.11 53.89 64.965 54.25 64.865 54.67C64.765 55.08 64.715 55.535 64.715 56.035C64.715 56.065 64.715 56.1 64.715 56.14C64.715 56.17 64.715 56.22 64.715 56.29L64.76 56.35C64.87 56 65.06 55.71 65.33 55.48C65.61 55.25 65.92 55.08 66.26 54.97C66.61 54.86 66.955 54.805 67.295 54.805C67.925 54.805 68.48 54.93 68.96 55.18C69.45 55.42 69.83 55.77 70.1 56.23C70.38 56.69 70.52 57.24 70.52 57.88C70.52 58.54 70.37 59.12 70.07 59.62C69.78 60.11 69.365 60.49 68.825 60.76C68.295 61.02 67.66 61.15 66.92 61.15C66.08 61.15 65.35 60.95 64.73 60.55C64.12 60.15 63.645 59.575 63.305 58.825C62.975 58.075 62.81 57.17 62.81 56.11C62.81 54.96 62.995 54.005 63.365 53.245C63.735 52.475 64.24 51.9 64.88 51.52C65.52 51.14 66.235 50.95 67.025 50.95ZM66.89 56.32C66.56 56.32 66.27 56.39 66.02 56.53C65.77 56.66 65.57 56.845 65.42 57.085C65.27 57.315 65.195 57.585 65.195 57.895C65.195 58.205 65.27 58.48 65.42 58.72C65.58 58.96 65.785 59.15 66.035 59.29C66.295 59.43 66.58 59.5 66.89 59.5C67.42 59.5 67.83 59.36 68.12 59.08C68.42 58.8 68.57 58.405 68.57 57.895C68.57 57.575 68.505 57.295 68.375 57.055C68.245 56.815 68.055 56.635 67.805 56.515C67.555 56.385 67.25 56.32 66.89 56.32Z" fill="white"/>
<defs>
<clipPath id="clip0_351_666">
<rect width="30" height="30" fill="white" transform="translate(20 20)"/>
</clipPath>
</defs>
</svg>
