<svg width="78" height="70" viewBox="0 0 78 70" fill="none" xmlns="http://www.w3.org/2000/svg">
<circle cx="35" cy="35" r="34" stroke="#B4DEC8" stroke-width="2"/>
<g clip-path="url(#clip0_351_650)">
<path d="M31.8125 26.9062C31.8125 25.6123 32.8623 24.5625 34.1562 24.5625H35.7188C37.0127 24.5625 38.0625 25.6123 38.0625 26.9062V44.0938C38.0625 45.3877 37.0127 46.4375 35.7188 46.4375H34.1562C32.8623 46.4375 31.8125 45.3877 31.8125 44.0938V26.9062ZM24 36.2812C24 34.9873 25.0498 33.9375 26.3438 33.9375H27.9062C29.2002 33.9375 30.25 34.9873 30.25 36.2812V44.0938C30.25 45.3877 29.2002 46.4375 27.9062 46.4375H26.3438C25.0498 46.4375 24 45.3877 24 44.0938V36.2812ZM41.9688 27.6875H43.5312C44.8252 27.6875 45.875 28.7373 45.875 30.0312V44.0938C45.875 45.3877 44.8252 46.4375 43.5312 46.4375H41.9688C40.6748 46.4375 39.625 45.3877 39.625 44.0938V30.0312C39.625 28.7373 40.6748 27.6875 41.9688 27.6875Z" fill="#1B603C"/>
</g>
<ellipse cx="65.5764" cy="55.5" rx="11.5764" ry="11.5" fill="#1B603C"/>
<path d="M62.975 61V59.605C63.875 58.995 64.635 58.445 65.255 57.955C65.885 57.455 66.39 56.995 66.77 56.575C67.16 56.145 67.44 55.74 67.61 55.36C67.79 54.98 67.88 54.6 67.88 54.22C67.88 53.76 67.74 53.385 67.46 53.095C67.18 52.795 66.785 52.645 66.275 52.645C65.715 52.645 65.275 52.835 64.955 53.215C64.645 53.595 64.475 54.135 64.445 54.835L62.66 54.16C62.71 53.48 62.89 52.905 63.2 52.435C63.52 51.955 63.95 51.59 64.49 51.34C65.04 51.08 65.67 50.95 66.38 50.95C66.99 50.95 67.515 51.035 67.955 51.205C68.405 51.375 68.775 51.61 69.065 51.91C69.365 52.2 69.59 52.535 69.74 52.915C69.89 53.295 69.965 53.69 69.965 54.1C69.965 54.74 69.805 55.345 69.485 55.915C69.175 56.485 68.695 57.05 68.045 57.61C67.395 58.17 66.57 58.76 65.57 59.38V59.395C65.72 59.385 65.9 59.375 66.11 59.365C66.33 59.355 66.555 59.35 66.785 59.35C67.015 59.34 67.215 59.335 67.385 59.335H70.115V61H62.975Z" fill="white"/>
<defs>
<clipPath id="clip0_351_650">
<rect width="21.875" height="25" fill="white" transform="translate(24 23)"/>
</clipPath>
</defs>
</svg>
