<svg width="245" height="12" viewBox="0 0 245 12" fill="none" xmlns="http://www.w3.org/2000/svg">
<mask id="mask0_351_710" style="mask-type:alpha" maskUnits="userSpaceOnUse" x="0" y="0" width="245" height="12">
<rect width="245" height="12" fill="#C4C4C4"/>
</mask>
<g mask="url(#mask0_351_710)">
<path d="M42.7279 -2.53772L43.4199 -2.6959L42.0733 -2.92267L42.7188 -3.08867C43.3662 -3.08716 44.2048 -2.83842 44.6612 -2.97059C44.717 -3.09855 44.0121 -3.13961 43.8322 -3.24157C43.6731 -3.34607 43.5432 -3.44988 43.4441 -3.55178C43.7966 -3.55068 44.1842 -3.52603 44.5838 -3.47929C45.1213 -3.40294 45.6484 -3.36583 46.1072 -3.37205C47.0452 -3.35143 47.9514 -3.372 48.9713 -3.36746L48.632 -3.67543L49.9463 -3.60338C50.0856 -3.57992 50.2517 -3.61765 50.3885 -3.58862C51.5276 -3.34305 52.0096 -3.47687 52.5564 -3.58783C52.6685 -3.61654 52.8036 -3.63798 52.958 -3.65158C54.4776 -3.59275 55.8478 -3.24853 57.2162 -3.07182C57.4738 -3.02671 57.7208 -2.96879 57.9398 -2.90219C58.4158 -2.77271 58.9452 -2.667 59.4797 -2.59472C60.0142 -2.52245 60.5367 -2.48592 60.9994 -2.48847C62.0225 -2.49133 63.1784 -2.40569 64.3552 -2.23984C64.7052 -2.1852 65.0554 -2.14917 65.3835 -2.13402C65.7116 -2.11886 66.0104 -2.12493 66.2608 -2.15183L67.0564 -1.97603C67.4014 -2.04736 67.8387 -2.0865 68.3419 -2.09107C68.8451 -2.09563 69.4038 -2.06553 69.9839 -2.00259C70.6021 -1.93431 71.23 -1.88828 71.8715 -1.81609C73.1964 -1.67808 74.486 -1.59368 75.6999 -1.5655C77.5078 -1.48201 79.2741 -1.41746 81.0979 -1.31336C82.2388 -1.26312 83.3505 -1.23548 84.4262 -1.2306C85.7149 -1.21095 87.1087 -1.11581 88.5406 -0.949776C88.4727 -0.793996 87.8448 -0.840018 87.4235 -0.84529C86.064 -0.871182 84.6727 -0.938276 83.2741 -0.988679C82.6441 -1.00835 82.0314 -1.0158 81.4395 -1.01098C80.4502 -1.01744 79.4072 -1.05895 78.3284 -1.13479C76.6243 -1.21825 74.9746 -1.25837 73.3962 -1.25474C73.2725 -1.24857 73.1591 -1.23764 73.058 -1.22212C73.0369 -1.20868 73.0328 -1.19174 73.0459 -1.17291C73.0591 -1.15409 73.0892 -1.134 73.1332 -1.11459C73.1773 -1.09519 73.2339 -1.07711 73.2976 -1.06207C73.3613 -1.04704 73.43 -1.03555 73.4972 -1.02873C74.124 -0.923158 74.7973 -0.809772 75.3885 -0.79382C75.4114 -0.792629 75.4357 -0.789905 75.4598 -0.785847C75.4839 -0.78179 75.5071 -0.776501 75.5278 -0.77036C76.8512 -0.547488 77.9394 -0.585202 78.9703 -0.548942C80.6819 -0.450941 82.3318 -0.405165 83.8952 -0.412305C84.1315 -0.411819 84.3866 -0.39908 84.6513 -0.374547C86.2887 -0.275098 87.8198 -0.263974 89.1728 -0.34168C89.7296 -0.361367 90.2473 -0.405562 90.8458 -0.406301C91.2144 -0.409343 91.5353 -0.437545 91.7891 -0.48922C92.0429 -0.540895 92.2244 -0.614975 92.3227 -0.707003C92.5751 -0.658551 92.8316 -0.615371 93.0888 -0.577977C93.2425 -0.556596 93.3899 -0.550917 93.5011 -0.562106C93.6124 -0.573294 93.6793 -0.600513 93.6884 -0.638258C93.7344 -0.743966 93.3837 -0.797051 93.0795 -0.842318C93.263 -0.864989 93.4697 -0.878326 93.6949 -0.882007C94.9628 -0.906162 96.3227 -0.877653 97.7452 -0.797109C98.8496 -0.7007 99.7311 -0.779171 100.893 -0.643214C101.032 -0.619753 101.147 -0.654187 101.275 -0.662455C101.61 -0.705994 102.026 -0.715779 102.489 -0.690957C102.951 -0.666135 103.446 -0.607454 103.93 -0.520002C104.532 -0.758924 105.834 -0.485976 106.795 -0.461445C107.091 -0.339942 106.752 -0.361302 106.737 -0.327921C106.722 -0.29454 106.737 -0.327929 106.621 -0.347479C105.661 -0.175409 104.346 -0.13789 102.861 -0.240192C102.586 -0.239768 102.324 -0.231928 102.078 -0.21675C101.705 -0.195268 101.284 -0.197413 100.835 -0.223091C100.343 -0.24195 99.8918 -0.232994 99.5021 -0.196653C99.278 -0.197245 99.0884 -0.17904 98.951 -0.143715C98.8136 -0.108389 98.7329 -0.0570866 98.7162 0.00542296C98.8659 0.0536121 99.0319 0.0977073 99.2076 0.135955C100.125 0.286973 101.04 0.349483 101.773 0.311186C103.048 0.245202 104.565 0.309593 105.921 0.287066C106.837 0.27794 107.812 0.303935 108.828 0.364563C108.828 0.364563 108.801 0.425762 108.799 0.431325C108.919 0.457822 109.045 0.479081 109.17 0.493887C109.17 0.493887 109.17 0.493887 109.182 0.46607C109.127 0.439356 109.051 0.414225 108.965 0.393587L108.663 0.342755C108.868 0.329527 109.059 0.290142 109.273 0.314205C109.724 0.358912 110.154 0.377785 110.539 0.369705C110.924 0.361624 111.255 0.326752 111.512 0.267181C111.968 0.190835 112.535 0.156115 113.176 0.165265C113.668 0.15693 114.142 0.139014 114.595 0.11161C114.595 0.11161 114.624 0.0448539 114.839 0.00937167C114.636 -0.0343915 114.424 -0.070127 114.212 -0.0961954C113.294 -0.161324 112.373 -0.22089 111.47 -0.265418C111.137 -0.270228 110.825 -0.262767 110.538 -0.243181C109.744 -0.220261 108.851 -0.25279 107.913 -0.338872C107.913 -0.338872 107.727 -0.37015 107.634 -0.38579C107.898 -0.532543 108.806 -0.385626 109.173 -0.485012C109.397 -0.483202 109.79 -0.470706 109.776 -0.49687C109.746 -0.531784 109.742 -0.564219 109.766 -0.591848C109.789 -0.619478 109.839 -0.641618 109.913 -0.656679C109.986 -0.67174 110.08 -0.679354 110.189 -0.678967C110.298 -0.67858 110.419 -0.6702 110.543 -0.654439C111.576 -0.569175 112.55 -0.545464 113.403 -0.584758C113.727 -0.584 114.09 -0.558729 114.411 -0.552407C114.608 -0.544792 114.787 -0.549027 114.94 -0.564878C115.716 -0.681621 116.76 -0.690147 117.916 -0.589175C118.475 -0.552874 118.997 -0.548019 119.455 -0.57486C119.781 -0.579665 119.92 -0.496664 120.152 -0.457563L121.138 -0.375139L119.871 -0.271859C120.142 -0.0351745 120.357 0.0428679 120.799 0.0576133C121.445 0.0798807 122.073 0.0899401 122.68 0.08773C123.13 0.0857846 123.501 0.0348128 124.11 0.125347C124.217 0.140114 124.321 0.144894 124.403 0.138885C125.115 0.0585106 125.973 0.0400642 126.918 0.0848057C127.408 -0.0657021 128.241 0.0806304 129.012 0.198535C129.261 0.0851629 128.81 0.0331201 128.541 -0.0360547C129.186 -0.0289739 129.836 -0.0330176 130.502 -0.0164632C130.702 -0.0224902 130.931 -0.0121798 131.17 0.0136536C131.41 0.039487 131.653 0.0801358 131.882 0.132425C131.994 0.166211 132.128 0.191641 132.257 0.203431C132.387 0.215221 132.501 0.21247 132.577 0.195749C132.923 0.146436 133.476 0.191854 133.762 0.108556C133.863 0.0893988 134.008 0.0867263 134.171 0.101002C134.334 0.115278 134.504 0.14558 134.65 0.186476C134.49 0.199236 134.347 0.219329 134.225 0.246313C133.788 0.333968 133.949 0.48043 134.504 0.693362C135.356 0.681651 136.227 0.684978 137.017 0.644846C137.458 0.608821 137.997 0.620084 138.575 0.677368C139.154 0.734651 139.747 0.835684 140.29 0.969107C140.487 1.02041 140.71 1.05595 140.917 1.06865C141.124 1.08136 141.299 1.07031 141.407 1.03769C141.474 0.999969 141.495 0.952226 141.467 0.898604L140.91 0.804768C140.91 0.804768 140.932 0.754696 140.937 0.743569L141.738 0.735155C142.162 0.734864 142.604 0.749612 143.004 0.745411C143.593 0.717466 144.265 0.733042 144.978 0.791171C145.637 0.850777 146.283 0.895832 146.913 0.925938C147.523 0.956927 147.965 0.858137 148.545 0.842361C148.983 0.830469 149.466 0.843177 149.974 0.879989C150.851 0.945277 151.657 0.945399 152.316 0.880341C153.086 1.23086 153.46 1.28786 154.174 1.19314L154.51 1.16608L154.601 1.24126L154.858 1.22473C155.338 1.21 155.818 1.19529 156.319 1.19003C157.015 1.22256 157.767 1.31008 158.501 1.44404C158.64 1.4675 158.83 1.54721 158.952 1.60962C159.074 1.67202 159.341 1.86028 159.537 1.98284C159.323 2.0723 159.087 2.15785 158.917 2.2607C158.9 2.27827 158.902 2.29922 158.922 2.32187C158.942 2.34452 158.981 2.36824 159.034 2.39111C159.087 2.41398 159.153 2.43538 159.228 2.45357C159.302 2.47177 159.383 2.48627 159.463 2.49589C159.619 2.51663 159.773 2.53046 159.918 2.5368C160.636 2.54774 161.323 2.53961 161.973 2.51249C162.21 2.47422 162.535 2.47059 162.896 2.50216C163.257 2.53374 163.633 2.59872 163.965 2.6868C164.815 2.63392 165.804 2.64954 166.861 2.73258C167.98 2.68208 169.331 2.7842 170.376 2.67355C170.352 2.72919 170.46 2.82498 170.61 2.88017C170.848 2.96399 171.117 3.04168 171.407 3.10994L173.617 3.24321C173.699 3.31174 173.803 3.38111 173.925 3.45043C174.009 3.50518 174.155 3.55875 174.333 3.59979C174.51 3.64084 174.705 3.66613 174.876 3.67029C175.316 3.6906 175.685 3.64519 176.209 3.75738C175.402 3.86342 174.312 3.84933 173.136 3.71762C172.03 3.61744 170.967 3.56738 169.986 3.56929C169.662 3.56853 169.236 3.57438 169.134 3.63497C168.91 3.80624 168.324 3.77916 167.64 3.74757C167.103 3.71299 166.612 3.71687 166.208 3.7589C165.804 3.80092 165.498 3.87989 165.316 3.98931C165.27 4.09502 165.381 4.18524 165.852 4.24675L167.813 4.4934C168.102 4.46169 168.377 4.42415 168.635 4.38094C169.07 4.32356 169.607 4.3078 170.205 4.33491C170.803 4.36202 171.445 4.43127 172.081 4.53725C172.406 4.59199 172.731 4.64673 172.967 4.62072C173.173 4.59085 173.364 4.55507 173.537 4.51367C173.571 4.48592 173.585 4.45399 173.578 4.41909C173.703 4.43532 173.828 4.45641 173.949 4.48165C174.918 4.77609 175.667 4.771 176.349 4.69462C176.533 4.67192 176.673 4.63584 176.86 4.60757C177.047 4.57931 177.113 4.54262 177.283 4.5533C178.636 4.64986 179.026 4.32733 180.167 4.34029C180.222 4.32769 180.257 4.30885 180.267 4.28552C180.277 4.26218 180.263 4.2351 180.225 4.20676C180.144 4.18117 180.051 4.15917 179.954 4.14277C179.856 4.12637 179.758 4.11611 179.668 4.11292C179.143 4.07154 178.679 4.08422 178.356 4.14883C178.127 4.17523 177.885 4.19626 177.631 4.21182L176.489 3.74475C177.595 3.78756 178.642 3.78728 179.604 3.74391C179.814 3.71955 180.17 3.76152 180.465 3.76949L182.639 3.81315C183.086 3.81676 183.467 3.74355 184.091 3.91423C184.091 3.91423 184.502 3.94175 184.612 3.91844C184.722 3.89514 185.209 3.7502 185.499 3.65577C185.836 3.68269 186.303 3.75534 186.513 3.73098C186.88 3.67116 187.198 3.59447 187.46 3.50229L188.774 3.63388C188.772 3.75078 188.724 3.86076 188.631 3.96213C188.528 4.0599 188.532 4.17726 188.641 4.30462C188.75 4.43197 188.961 4.5657 189.258 4.69489L190.555 5.3791C190.767 5.42492 190.992 5.45575 191.201 5.46743C191.41 5.47911 191.592 5.47106 191.723 5.44437C192.281 5.36514 192.906 5.3032 193.464 5.22397C194.184 5.34518 193.999 5.54096 194.522 5.71269L196.217 5.99812C196.475 6.26262 196.739 6.516 195.952 6.60455C195.796 6.62003 195.901 6.72139 195.759 6.76304C196.37 6.96153 197.042 7.02095 197.662 7.14321C197.906 7.23114 198.11 7.32421 198.265 7.41794C198.434 7.55906 198.778 7.70322 199.222 7.81928C199.665 7.93534 200.173 8.01399 200.636 8.03825C201.412 8.11256 202.207 8.22416 202.984 8.36806C203.25 8.4181 203.523 8.45456 203.785 8.47497C204.047 8.49539 204.292 8.4993 204.503 8.48643C205.255 8.46378 205.892 8.38586 206.372 8.25776C206.847 8.14905 207.486 8.09666 208.233 8.10533C209.51 8.32038 209.767 8.64443 210.54 8.92984L209.205 8.96184C209.157 9.07312 209.245 9.21341 208.698 9.21084C208.151 9.20827 208.428 9.31474 208.606 9.42226C208.668 9.47634 208.79 9.53197 208.951 9.57974C209.112 9.6275 209.302 9.66446 209.489 9.68436L210.625 9.82198C211.028 9.87435 211.418 9.89671 211.752 9.88662C212.086 9.87652 212.351 9.83434 212.519 9.76473C212.711 9.69863 212.977 9.65391 213.299 9.63333C213.71 9.5794 214.047 9.4992 214.3 9.39576L215.904 9.54647C215.972 9.44252 216.193 9.36964 216.528 9.34014C216.863 9.31064 217.293 9.32632 217.744 9.38456L218.825 9.47706C220.027 9.57798 220.291 9.54476 220.643 9.2517L219.201 8.72824C219.411 8.59035 219.613 8.46916 219.816 8.34796C219.456 8.17551 218.977 8.01239 218.427 7.87518C217.913 7.72775 217.385 7.58496 216.844 7.44736C216.257 7.30675 215.637 7.18449 214.909 7.02599C214.782 6.97471 214.597 6.88388 214.361 6.79636C214.125 6.71131 213.878 6.62794 213.623 6.54658C213.671 6.43531 213.715 6.33517 213.622 6.206C214.07 6.24722 214.534 6.3193 214.97 6.41575C215.407 6.51221 215.803 6.63 216.122 6.75851C216.176 6.7813 216.242 6.8027 216.315 6.82128C216.389 6.83986 216.469 6.85517 216.549 6.86618C217.337 6.94514 217.713 7.11009 218.099 7.31235C218.358 7.41574 218.693 7.50755 219.056 7.57506C219.752 7.69236 220.434 7.84305 221.101 7.97313C221.304 8.01648 221.516 8.05216 221.727 8.07869C222.424 8.16308 223.124 8.28108 223.794 8.4267C224.012 8.4637 224.222 8.51268 224.405 8.56953C224.589 8.62637 224.74 8.68944 224.848 8.75346C224.682 8.8236 224.592 8.91215 224.585 9.01374C224.556 9.0805 225.045 9.21661 225.276 9.31525C225.507 9.4139 225.054 9.36742 224.9 9.37734C224.268 9.39642 224.151 9.43641 224.529 9.65536C224.656 9.7242 224.739 9.79309 224.776 9.85773C224.812 9.92237 224.799 9.9814 224.739 10.0311C224.65 10.237 224.377 10.406 224.189 10.6073C224.48 10.74 224.967 10.8816 225.02 11.0458C225.045 11.0822 225.099 11.1208 225.177 11.1588C225.256 11.1968 225.356 11.2332 225.472 11.2654C225.778 11.3349 226.056 11.418 226.285 11.5082C226.513 11.5985 226.686 11.6936 226.791 11.786C226.825 11.8242 226.907 11.8647 227.022 11.8995C227.136 11.9343 227.274 11.9606 227.407 11.9733C227.566 11.989 227.709 11.9869 227.805 11.9676C227.902 11.9483 227.945 11.9132 227.926 11.8696C227.929 11.7877 227.908 11.7023 227.863 11.6141C227.889 11.5529 227.916 11.4917 227.811 11.3904C228.286 11.4274 228.786 11.5015 229.255 11.6047C229.724 11.7079 230.145 11.8363 230.471 11.9758C230.832 12.1202 231.165 12.2718 231.565 12.4406C231.482 12.6298 231.482 12.6298 232.333 12.9642L236.848 13.1273L237.773 13.3488C238.636 13.5419 238.841 13.5287 239.383 13.4289L239.748 13.335C240.514 13.4641 241.396 13.6126 241.876 13.3709C242.031 13.5285 242.133 13.5814 242.097 13.6053C241.869 13.8379 241.471 14.0352 240.921 14.1894C240.78 14.2255 240.682 14.2806 240.518 14.3127C239.991 14.4943 239.868 14.775 240.176 15.0972C240.329 15.2398 240.551 15.3858 240.835 15.5306C240.419 15.7314 239.869 15.8979 239.198 16.0254C238.629 16.1241 238.161 16.2562 237.806 16.418C237.488 16.5811 237.011 16.7037 236.403 16.7788C236.094 16.8108 235.869 16.8737 235.75 16.9615C235.714 17.1991 235.796 17.4536 235.993 17.7191C236.03 17.7999 236.135 17.8872 236.301 17.9741C236.466 18.061 236.687 18.1451 236.946 18.22C236.946 18.22 237.071 18.2768 237.131 18.3108C237.181 18.5985 236.994 18.8521 236.582 19.0545C236.515 19.1119 236.377 19.1534 236.183 19.1745C235.99 19.1955 235.748 19.1954 235.483 19.174C234.925 19.1397 234.404 19.1355 233.864 19.1163C233.282 19.089 232.769 19.1105 232.38 19.1784C231.991 19.2463 231.739 19.3582 231.652 19.5022C231.646 19.543 231.629 19.582 231.601 19.619C231.584 19.6381 231.576 19.6586 231.574 19.6802L232.814 20.1518L231.411 20.3396C231.329 20.5287 232.002 20.6421 232.34 20.7826L232.131 20.8609C231.863 20.9053 231.501 20.8205 231.173 20.7713L230.848 20.7165L230.81 20.8056C230.607 20.9268 229.869 20.7905 229.581 20.8794C229.293 20.9682 229.499 21.0685 229.93 21.1651C230.23 21.2368 230.552 21.2941 230.872 21.3324C231.192 21.3708 231.502 21.3893 231.778 21.3866C231.942 21.3771 232.079 21.3554 232.179 21.3229C232.761 21.1842 233.405 21.0651 234.104 20.9662C234.64 20.8774 235.312 20.8397 236.071 20.8556C236.294 20.8489 236.563 20.8699 236.83 20.915C237.098 20.96 237.347 21.0262 237.534 21.1019L237.927 21.1144C237.927 21.1144 238.142 21.1925 238.112 21.2052C237.962 21.4365 238.136 21.7191 238.608 22.0114L238.198 22.0378C237.611 22.0108 237.983 22.1868 237.896 22.2736C237.479 22.2572 236.938 22.184 236.74 22.294L236.445 22.2861L236.561 22.3056L236.701 22.2695L237.252 22.434C236.991 22.4617 236.802 22.4955 236.571 22.5104C236.444 22.5233 236.342 22.5462 236.273 22.5776C236.203 22.6091 236.168 22.6484 236.167 22.6932C236.168 22.7623 236.099 22.8204 235.968 22.862C235.836 22.9036 235.646 22.9273 235.416 22.931C235.141 22.9325 234.984 23.0075 234.823 23.0341L235.523 23.4864C235.523 23.4864 235.174 23.4278 235.364 23.5075L235.388 23.4518L235.812 23.5651C236.118 23.6643 236.332 23.6884 236.512 23.6173C236.693 23.5461 236.652 23.6407 236.738 23.6135C236.707 23.6858 236.51 23.7364 236.342 23.7797C236.147 23.8137 235.928 23.8387 235.686 23.8544C236.121 24.1724 236.142 24.1819 235.507 24.2661C234.872 24.3503 235.091 24.4767 234.56 24.4948C234.029 24.5128 234.633 24.728 234.988 24.77C235.252 24.7975 235.521 24.8405 235.776 24.8959C236.032 24.9513 236.268 25.0178 236.468 25.0909L236.362 25.3357C236.205 25.3154 236.049 25.289 235.897 25.2575C235.383 25.123 234.914 24.9964 234.457 25.0746L234.675 25.2606L233.077 25.1527C233.118 25.2921 233.362 25.4509 233.756 25.5956C233.697 25.6751 233.66 25.7587 233.647 25.846C233.62 25.9072 233.463 25.8686 233.36 25.8753C232.994 25.8855 232.694 25.927 232.485 25.996C232.277 26.0651 232.167 26.1596 232.166 26.2713C232.124 26.3659 232.687 26.5621 233.039 26.5557C233.917 26.5745 234.866 26.6473 235.836 26.77C236.427 26.786 236.511 26.5373 237.483 26.707C237.503 26.8219 237.378 26.9149 237.129 26.9719C236.879 27.029 236.518 27.0471 236.099 27.0234C236.337 27.2784 237.654 27.3449 237.712 27.6115C237.384 27.5927 237.034 27.5484 236.695 27.483C236.356 27.4175 236.042 27.3333 235.781 27.2386C235.725 27.2152 235.655 27.1937 235.577 27.176C235.498 27.1583 235.415 27.1449 235.333 27.1372C235.252 27.1295 235.176 27.1277 235.112 27.1319C235.048 27.1361 234.999 27.1462 234.968 27.1612C235.15 27.2576 235.351 27.3691 235.579 27.4733C235.808 27.5775 235.863 27.6226 236.028 27.6444C237.259 27.8516 237.844 28.2249 238.908 28.4698C239.187 28.5168 239.222 28.6659 238.98 28.6491C238.75 28.6322 238.541 28.6344 238.378 28.6554C238.215 28.6765 238.103 28.7155 238.056 28.7681C237.877 28.8296 237.655 28.8784 237.394 28.9135C238.486 29.2965 239.788 29.635 241.177 29.897C241.44 29.9488 241.715 29.9804 241.96 29.9871C242.736 29.9875 243.559 30.0179 244.413 30.0777C244.716 30.094 244.996 30.0925 245.237 30.0732C246.03 30.0275 246.659 30.1275 247.234 30.4095L248.186 30.8564C248.154 30.9287 247.995 31.0093 247.872 31.12L248.615 31.3586L254.288 30.809L255.426 31.3411L257.059 31.3116C257.184 31.3269 257.31 31.3481 257.431 31.3741C257.761 31.5313 258.019 31.6822 258.377 31.8322C258.736 31.9821 259.376 32.0003 259.822 32.177C260.268 32.3537 260.716 32.3573 261.268 32.4623C261.32 32.599 261.266 32.7221 261.11 32.8239C261.059 32.9407 260.779 33.0129 260.73 33.1242C260.736 33.2366 260.631 33.3321 260.427 33.4019C260.222 33.4718 259.924 33.5138 259.559 33.5241C258.537 33.7636 257.305 33.9341 255.899 34.0305C255.776 34.0375 255.673 34.0537 255.598 34.078C255.523 34.1024 255.477 34.1344 255.463 34.1721C255.465 34.2813 255.372 34.3756 255.189 34.4482C255.007 34.5208 254.74 34.5698 254.408 34.5916C254.32 34.596 254.253 34.6097 254.217 34.631C254.091 34.6448 253.999 34.6711 253.951 34.7074C253.902 34.7437 253.898 34.7888 253.939 34.8384C253.98 34.8879 254.065 34.9402 254.185 34.9902C254.305 35.0402 254.457 35.0862 254.625 35.1238C254.869 35.1843 255.118 35.2422 255.372 35.2973C255.357 35.3307 255.106 35.3361 255.142 35.3662C255.242 35.4622 255.265 35.5521 255.21 35.6289C255.155 35.7056 255.023 35.7671 254.825 35.8084L256.181 36.5861C257.004 36.6939 257.811 36.8766 258.449 37.0995C258.45 37.1361 258.413 37.1667 258.343 37.1883C258.272 37.21 258.17 37.2219 258.047 37.2228C257.716 37.2388 257.403 37.2697 257.046 37.2873C256.828 37.3005 256.647 37.3294 256.513 37.3724C256.379 37.4154 256.294 37.4716 256.264 37.5378L257.06 37.8271C256.805 37.8977 256.616 37.9315 256.448 37.9748C256.543 38.0657 256.707 38.1598 256.927 38.2496C257.148 38.3395 257.418 38.4228 257.717 38.4931C257.797 38.5076 257.879 38.5182 257.958 38.5243C258.037 38.5304 258.111 38.5318 258.175 38.5285C258.792 38.4293 259.513 38.6044 260.213 38.7702C260.914 38.9359 261.294 39.0357 261.811 39.1646L262.8 39.1819C263.051 39.2429 263.274 39.3147 263.453 39.3914C263.631 39.4682 263.76 39.5478 263.829 39.6239C263.775 39.7463 263.306 39.6792 263.026 39.6918C262.363 39.768 261.491 39.7518 260.554 39.6458C260.322 39.6067 260.084 39.6382 259.858 39.642C259.371 39.6572 258.902 39.682 258.455 39.7162C258.161 39.7481 257.885 39.7875 257.631 39.8343C257.563 39.99 258.632 40.1104 258.025 40.1873C258.234 40.2225 258.313 40.2715 258.42 40.2538C259.108 40.355 259.787 40.405 260.376 40.398C261.507 40.3766 262.791 40.4475 264.124 40.6052C265.562 40.7685 266.942 40.8371 268.149 40.8053C268.608 40.8034 269.122 40.8368 269.651 40.903C270.276 40.9947 270.896 41.0524 271.472 41.0722C271.662 41.0729 271.874 41.0885 272.091 41.1178C272.308 41.147 272.523 41.1891 272.719 41.2405C272.702 41.2795 272.515 41.3077 272.557 41.3267C273.153 41.6181 273.394 41.9215 274.311 42.2193C274.938 42.3249 275.658 42.4461 276.068 42.3061C276.478 42.1661 276.331 42.0458 275.515 41.6875C275.692 41.6823 275.905 41.6991 276.117 41.7348C276.33 41.7705 276.527 41.823 276.676 41.883L277.381 42.1511L278.017 42.4075C277.962 42.5354 277.918 42.6356 277.872 42.7413C277.799 42.8536 277.879 42.9902 278.1 43.1321C278.234 43.2096 278.35 43.287 278.448 43.3638C278.845 43.671 278.961 43.9612 278.78 44.2021C278.435 44.5485 277.954 44.8672 277.343 45.1545C276.698 45.4341 276.345 45.7867 275.814 46.0913C275.542 46.23 275.213 46.3543 274.829 46.463C274.101 46.7046 273.303 46.9345 272.572 47.1817C271.841 47.4289 271.016 47.6064 270.205 47.8102C268.996 48.052 267.69 48.2608 266.293 48.4355C265.429 48.5885 264.542 48.7377 263.742 48.9136C262.798 49.1119 261.689 49.2543 260.442 49.3373C259.341 49.4366 258.358 49.5834 257.51 49.7751C257.421 49.7958 257.351 49.8222 257.301 49.8534C257.149 50.0488 256.721 50.1865 256.084 50.2455C256.123 50.3027 256.172 50.3609 256.232 50.4198C256.321 50.49 256.339 50.5557 256.285 50.6083C256.231 50.661 256.107 50.6982 255.929 50.7151C255.419 50.7635 254.995 50.8457 254.677 50.9581C254.56 50.9863 254.487 51.0273 254.465 51.0777C254.443 51.1281 254.472 51.1863 254.551 51.2474C254.62 51.3103 254.625 51.3681 254.565 51.4134C254.505 51.4587 254.384 51.4894 254.216 51.5015C253.784 51.561 253.322 51.6089 252.832 51.6448C251.79 51.724 250.578 51.7231 249.27 51.642C249.13 51.6186 248.99 51.6546 248.827 51.6273C247.902 51.5364 247.042 51.5224 246.353 51.5868C245.544 51.6119 244.699 51.6069 243.847 51.6186C242.615 51.6107 241.479 51.6585 240.47 51.7606C239.317 51.662 238.669 51.8335 237.695 51.8368C236.797 51.8544 235.945 51.8967 235.148 51.9632C233.864 52.0514 232.584 52.1286 231.318 52.2318C230.13 52.2811 229.036 52.3752 228.055 52.5125C227.679 52.5746 226.999 52.4779 226.743 52.608C226.486 52.738 225.97 52.7227 225.552 52.7658L224.235 52.8724C224.008 52.8978 223.759 52.9138 223.491 52.9204C222.266 52.9291 221.418 53.1027 220.281 53.1382L220.165 53.1186C218.146 53.3768 215.836 53.5185 213.302 53.5395C211.822 53.6187 210.204 53.6149 208.633 53.6729C208.259 53.789 207.374 53.646 206.904 53.752C206.434 53.858 205.667 53.7885 205.061 53.8059C204.456 53.8234 203.864 53.867 203.216 53.8654C202.654 53.8659 202.179 53.9133 201.835 54.0031C201.05 54.1517 200.093 54.2391 199.006 54.2613C197.569 54.2999 196.21 54.3875 194.748 54.3682C194.769 54.4765 194.679 54.5686 194.488 54.6351C194.297 54.7016 194.011 54.7401 193.661 54.7465C192.098 54.7879 190.68 54.8955 189.096 54.9273L188.672 54.9276L183.935 54.9898C182.659 55.0018 181.429 55.0216 180.127 55.0353C179.639 54.9532 179.627 55.0945 179.29 55.0676C179.196 54.9979 179.085 54.9673 178.919 55.005L178.882 55.0885L173.476 55.1992C171.359 55.2801 169.132 55.3044 166.815 55.2718C166.265 55.28 165.752 55.3076 165.284 55.3543C164.849 55.3714 164.397 55.3789 163.928 55.3769C163.294 55.3558 162.675 55.3452 162.073 55.3451C160.489 55.3769 158.826 55.3598 157.092 55.3364C155.358 55.3131 154.044 55.3545 152.5 55.3514C151.454 55.3485 150.414 55.3345 149.332 55.3015C148.815 55.2862 148.178 55.2028 147.643 55.1725C147.108 55.1421 146.934 55.1425 146.863 55.1903C146.63 55.3243 146.045 55.2377 145.577 55.2246C144.664 55.2023 144.535 55.1566 144.287 54.8103L145.407 54.7003C145.681 54.6647 146.026 54.6585 146.409 54.6821C146.791 54.7058 147.198 54.7585 147.591 54.8352C147.745 54.8681 147.907 54.894 148.066 54.9116C148.225 54.9292 148.379 54.938 148.518 54.9376C149.648 54.9188 150.762 54.8795 151.847 54.8473L152.006 54.8263L152.016 54.5174C151.872 54.4871 151.723 54.462 151.575 54.4431L146.129 54.2427C144.88 54.1935 143.582 54.0825 142.356 54.0372C141.13 53.9919 140.469 53.9643 139.517 53.9175C139.116 53.8908 138.706 53.8558 138.292 53.8126C138.316 53.7829 138.33 53.7513 138.333 53.7181C138.355 53.668 138.384 53.6012 138.208 53.5477C138.016 53.4721 137.759 53.4076 137.489 53.3669C137.236 53.3401 136.99 53.3249 136.761 53.322C135.657 53.2961 134.395 53.1329 133.246 52.8673L132.845 53.0446C131.119 52.945 129.367 52.8471 127.564 52.7525C127.203 52.7267 126.824 52.6772 126.456 52.6076C126.061 52.5412 125.698 52.4024 125.282 52.3264C124.872 52.2718 124.464 52.2292 124.067 52.1993C124.174 52.1537 124.316 52.1173 124.488 52.0911C124.657 52.0819 124.78 52.0534 124.839 52.0097C124.898 51.966 124.891 51.9094 124.818 51.8481C124.689 51.7428 124.633 51.6438 124.913 51.6311C125.171 51.6071 125.356 51.5552 125.445 51.4814C125.535 51.4076 125.525 51.315 125.418 51.2146C125.371 51.1559 125.338 51.0985 125.319 51.0426L125.202 51.023C124.819 50.8152 124.055 50.7402 123.506 50.5701C123.247 50.5208 122.979 50.4924 122.743 50.4895C122.136 50.4529 121.545 50.437 120.917 50.391C120.617 50.3698 120.304 50.3312 119.995 50.2774C119.554 50.2031 119.507 50.1953 119.251 49.9252C119.649 49.93 119.964 49.8896 120.144 49.811C120.323 49.7324 120.356 49.6205 120.237 49.494C119.908 49.2178 119.562 48.9265 118.077 48.7302C118.561 48.7206 119.027 48.7013 119.473 48.6727C119.603 48.6665 119.7 48.6462 119.751 48.6145C119.803 48.5828 119.806 48.5412 119.761 48.4953C119.716 48.4494 119.625 48.4014 119.499 48.3577C119.374 48.3139 119.22 48.2766 119.059 48.2506C118.275 48.0943 117.458 47.9897 116.698 47.9486C116.058 47.9304 115.481 47.9406 114.733 47.9401L113.851 47.7916C113.865 47.7582 113.736 47.7125 113.769 47.6941C113.993 47.5229 114.24 47.3555 114.495 47.1714C114.088 47.0721 113.736 46.9521 113.478 46.8253C113.22 46.6984 113.068 46.5699 113.038 46.4543C113.016 46.4195 113.022 46.3877 113.055 46.3613C113.088 46.3348 113.147 46.3144 113.229 46.3014C113.461 46.279 113.641 46.2364 113.753 46.1766C113.866 46.1169 113.908 46.0416 113.878 45.9568L113.192 45.6441C111.126 45.4211 109.097 45.2617 107.143 45.169L105.38 45.0989C105.167 45.0153 105.233 44.9786 105.433 44.9765C105.633 44.9744 106.196 44.9976 106.59 45.0101C106.929 45.0265 107.231 45.0157 107.465 44.9788C107.7 44.9419 107.859 44.8801 107.928 44.7994L107.335 44.4429C107.364 44.3761 107.406 44.2815 107.727 44.2879C107.946 44.2801 108.108 44.2465 108.186 44.1925C108.264 44.1384 108.253 44.067 108.156 43.9898C108.141 43.934 108.163 43.8832 108.221 43.8396C108.696 43.836 109.169 43.838 109.6 43.821C109.801 43.8154 109.97 43.7947 110.097 43.7604C110.224 43.7261 110.305 43.679 110.335 43.6222C110.35 43.5669 110.312 43.5038 110.224 43.4381C110.136 43.3724 110 43.3059 109.827 43.244C109.151 43.1675 108.533 43.1665 108.108 43.2413C107.957 43.2999 107.713 43.3319 107.41 43.3331C107.107 43.3343 106.759 43.3047 106.411 43.248C106.012 43.1828 105.614 43.1541 105.289 43.1671C104.963 43.1802 104.731 43.2341 104.635 43.3193C104.226 43.2862 103.863 43.2609 103.505 43.2245C103.083 43.1786 102.684 43.1651 102.351 43.1854C101.818 43.1998 101.244 43.1914 100.642 43.1604C98.9061 43.0831 97.1679 43.0113 95.4872 42.9791C95.0426 42.9699 94.658 42.9947 94.2182 42.9744C93.7785 42.9541 93.4306 43.009 92.8806 42.8984C92.7759 42.8813 92.6705 42.8702 92.5727 42.8662C92.475 42.8622 92.3876 42.8653 92.3175 42.8753C91.3518 42.9627 90.2194 42.975 88.9871 42.9116C87.2991 42.8961 85.5488 42.8521 83.8584 42.8422C83.3626 42.8507 82.8941 42.8737 82.4578 42.9109C82.1257 42.9333 81.7778 42.9485 81.4161 42.9564C81.1389 42.9635 80.8737 42.9427 80.9205 43.064C80.9673 43.1854 80.5518 43.1095 80.3124 43.087C79.4897 43.0282 78.6489 42.9485 77.7994 42.849C76.9622 42.7407 76.1421 42.6778 75.3878 42.6638C74.8431 42.6557 74.2814 42.6865 73.581 42.5208C73.6077 42.4596 73.6343 42.3984 73.7868 42.3345C73.2157 42.1586 72.564 42.0074 71.8857 41.8931C71.2074 41.7789 70.522 41.705 69.8862 41.6776L69.0094 41.3448C68.7936 41.3057 68.5732 41.2773 68.3617 41.2611C68.1502 41.245 67.952 41.2416 67.7792 41.2511C67.6457 41.2559 67.483 41.2435 67.3209 41.2162C67.1588 41.189 67.0083 41.1486 66.8969 41.1025C66.7304 41.0439 66.5271 40.9934 66.3123 40.9572C66.0976 40.921 65.8809 40.9008 65.6896 40.8992C65.0872 40.863 64.4441 40.7794 63.8263 40.657C63.6659 40.5853 63.5655 40.5112 63.5373 40.4438C63.5091 40.3765 63.5544 40.3188 63.6676 40.278C63.8501 40.2059 63.9526 40.114 63.9688 40.0079C63.9851 39.9018 63.9147 39.7838 63.7621 39.6609C63.6839 39.5854 63.6578 39.514 63.6853 39.4509C63.7128 39.3878 63.7934 39.3343 63.9221 39.2937C64.4027 39.1059 64.2742 39.0006 63.4879 38.689C63.3601 38.6371 63.2061 38.5885 63.0357 38.5465C62.8653 38.5044 62.6821 38.4697 62.4978 38.4447C62.0653 38.3939 61.6388 38.3561 61.226 38.332C60.9938 38.2929 60.7557 38.3245 60.4882 38.3093C59.1506 38.2333 58.9548 38.1108 58.5216 37.8467L58.2059 37.6562C57.6204 37.5019 56.98 37.3737 56.3309 37.2809C55.6818 37.1881 55.0402 37.133 54.4523 37.1196C54.2186 37.1186 53.9499 37.0922 53.6875 37.0446C52.8333 36.8988 51.9683 36.7979 51.1498 36.7486C50.6397 36.7208 50.0898 36.649 49.5663 36.5418C49.0427 36.4345 48.5677 36.2964 48.1983 36.144C47.8664 36.0068 47.4323 35.8835 46.9563 35.7915C46.399 35.6977 46.3474 35.5875 46.6586 35.5025C46.9698 35.4176 47.4909 35.3083 47.9536 35.219C48.1145 35.1886 48.2143 35.1393 48.2417 35.0764C48.2691 35.0135 48.2231 34.9396 48.1087 34.8629C48.0354 34.7316 48.0226 34.6071 48.0709 34.4922C48.0967 34.4445 48.0789 34.3898 48.0187 34.3318C47.9585 34.2738 47.8573 34.2138 47.7219 34.1559C47.5865 34.098 47.4202 34.0436 47.2339 33.9962C47.0477 33.9489 46.846 33.9097 46.6424 33.8814C45.7834 33.7368 44.9475 33.596 44.0715 33.4903C43.7043 33.4404 43.3376 33.3787 42.9802 33.3065C42.2487 33.128 41.4661 32.9799 40.6778 32.871C40.3037 32.8223 39.938 32.7371 39.6597 32.6338C38.7821 32.3557 37.9735 32.0633 37.2484 31.7619C37.0736 31.6685 36.845 31.5773 36.5768 31.4941C36.3085 31.4109 36.0065 31.3375 35.6897 31.2785C35.4343 31.2355 35.2264 31.1407 35.0295 31.0777C34.8865 30.9318 34.8712 30.7968 34.9851 30.6854C35.0991 30.5741 35.3385 30.4899 35.6809 30.4409C36.0056 30.3821 36.3095 30.3139 36.5901 30.2417C36.9285 30.1833 37.3307 30.1483 37.7819 30.1378C38.3162 30.1065 38.7113 30.017 38.9157 29.8809C37.453 29.6346 36.062 29.2809 34.7798 29.3635L33.8056 29.1398C33.8444 29.0507 33.8784 28.9728 33.9099 28.9005C34.1416 28.7689 34.214 28.6028 34.1209 28.4165C34.0441 28.3263 34.0511 28.2443 34.1409 28.1787C34.2308 28.1131 34.4004 28.0662 34.6327 28.0428C36.0084 27.8027 37.5993 27.6407 38.8893 27.3682C39.2939 27.3171 39.7674 27.2939 40.29 27.2995C40.7956 27.2832 40.7744 27.1602 40.1926 27.0084C39.866 26.9291 39.5331 26.8532 39.1952 26.7807C37.7052 26.7687 37.0981 27.1323 35.3977 27.031L34.6096 26.5519C34.3965 26.5445 34.1896 26.5416 33.9903 26.5432L31.1391 26.7379C30.9017 26.7476 30.7168 26.7809 30.6056 26.834C30.4943 26.887 30.4612 26.9577 30.5099 27.038C30.5292 27.1362 30.4899 27.2263 30.3935 27.305C30.3313 27.3602 30.3711 27.4334 30.5041 27.5088C30.8038 27.6787 30.4192 27.7035 30.1763 27.7462C30.1142 27.7504 30.0426 27.75 29.9657 27.7449C29.8887 27.7399 29.8079 27.7304 29.728 27.7169C29.6481 27.7034 29.5707 27.6863 29.5001 27.6665C29.4296 27.6467 29.3675 27.6246 29.3172 27.6016C28.8893 27.4399 28.5149 27.2694 28.0942 27.091C28.3929 26.9204 28.0415 26.6402 28.5076 26.4858C28.5597 26.455 28.5805 26.4174 28.5689 26.3754C28.5572 26.3333 28.5132 26.2878 28.4396 26.2415C28.2498 26.1219 28.1594 26.0053 28.1775 25.9035C28.1957 25.8017 28.3216 25.7183 28.5428 25.6616L28.5695 25.6004C27.9862 25.3947 28.1408 25.2117 27.9117 24.994L27.3506 24.8517C25.9548 24.5092 25.9523 24.5147 24.7506 24.5273C24.5083 24.397 24.8161 24.3771 25.0469 24.3622L26.9798 24.216C28.2436 24.1183 29.5441 24.0506 30.9558 24.0137C32.3676 23.9767 33.9415 23.8536 35.4007 23.7649C35.4745 23.758 35.5309 23.7444 35.5653 23.7253C35.5996 23.7062 35.6109 23.682 35.5982 23.6548C35.5402 23.6255 35.4643 23.5971 35.376 23.5719C35.2878 23.5467 35.1895 23.5253 35.0884 23.5093C34.6241 23.4311 34.1476 23.3807 33.6528 23.3153L32.7302 23.2017L32.4465 23.0524C32.2617 22.9616 32.1355 22.8507 31.8898 22.7855C31.6874 22.7368 31.4676 22.6998 31.2533 22.6785C31.0391 22.6571 30.8383 22.6521 30.6718 22.664C30.2103 22.6937 29.7927 22.7369 29.3519 22.7761C28.9111 22.8153 28.6682 22.858 28.286 22.8773C27.5094 22.886 26.7589 22.9092 26.0377 22.9466C25.4303 23.035 24.8685 23.1399 24.3558 23.2605C24.0359 23.3081 23.7368 23.3653 23.1907 23.3032C22.9316 23.2468 22.7081 23.1729 22.5598 23.0943C22.4116 23.0158 22.3482 22.9378 22.3808 22.8741C22.4101 22.8243 22.493 22.7848 22.6218 22.7595C22.7506 22.7341 22.9209 22.7238 23.1168 22.7294C23.665 22.7202 24.1719 22.6893 24.6273 22.6374C25.2613 22.5433 26.033 22.5027 26.8974 22.518C27.1906 22.5316 27.3871 22.481 27.6435 22.4645C27.8999 22.448 28.1172 22.4069 28.4031 22.4372C29.2912 22.5151 29.7171 22.3957 30.2493 22.3181C30.4295 22.2837 30.5411 22.2281 30.572 22.1574C30.6028 22.0868 30.5516 22.0037 30.4239 21.9175C30.1783 21.7458 29.8778 21.5731 29.5271 21.4022C29.3466 21.3182 29.1154 21.2384 28.8516 21.1691C28.5877 21.0998 28.2984 21.0429 28.0064 21.0028C27.8316 20.8976 27.7384 20.7942 27.7351 20.7019C27.7319 20.6096 27.8187 20.5313 27.9877 20.4741C28.4184 20.3436 28.8002 20.2108 29.7653 20.2838C30.2191 20.3116 30.6461 20.317 31.0294 20.2996C31.8797 20.2758 32.8605 20.3279 33.8793 20.4511C34.1429 20.4826 34.402 20.5041 34.649 20.515C36.4104 20.5907 38.0886 20.6284 39.7717 20.6551C40.6633 20.6679 41.5623 20.664 42.493 20.7013C44.6758 20.7822 46.6628 20.7406 48.7697 20.767C49.8732 20.7806 50.8608 20.726 51.6809 20.6063C51.8406 20.5662 51.9778 20.5193 52.0908 20.4663C51.5473 20.3272 50.9504 20.2171 50.3572 20.1465C49.7639 20.0758 49.1943 20.0471 48.7028 20.063C48.4326 20.1019 48.0833 20.109 47.6939 20.0835C47.3046 20.058 46.8905 20.0009 46.4978 19.9186L47.6396 19.872C48.3968 19.8502 49.1723 19.8435 49.9086 19.8122C51.0785 19.7584 52.1628 19.6722 53.3742 19.6374C54.3523 19.6053 55.2275 19.5234 55.9725 19.3941C56.5106 19.2999 57.1253 19.233 57.8039 19.1949C58.2862 19.1747 58.2862 19.1747 58.5946 18.9817C58.3499 18.8569 58.0336 18.8395 57.7356 18.8371C55.9489 18.7585 54.2486 18.7448 52.6693 18.7961C51.8725 18.8006 51.1656 18.8535 50.5825 18.9522C50.4397 18.9939 50.0745 18.9742 49.7813 18.9606C48.8623 18.9401 47.9839 18.946 47.1567 18.9785C46.0131 19.0326 44.7394 19.0198 43.3851 18.9405C43.1283 18.8435 43.4239 18.8515 43.4384 18.8181C44.4874 18.7559 45.5155 18.6842 46.5853 18.6314C46.8777 18.6126 47.1903 18.6033 47.5195 18.6036C48.7486 18.6363 49.7728 18.5457 50.4487 18.3445C50.4826 18.2666 50.9272 18.2758 51.1237 18.2252C51.2204 18.1815 51.2847 18.13 51.3149 18.0723C51.0287 17.9285 50.705 17.9278 50.4559 17.9276C49.7329 17.9437 49.0373 17.9741 48.3726 18.0187C47.7547 18.0612 47.0707 18.0726 46.3391 18.0525C45.7992 18.0332 45.3377 18.063 44.7929 18.0549C44.4974 18.0378 44.1915 18.0103 43.8815 17.9731C44.2267 17.8729 44.6959 17.8112 45.2562 17.7925C45.6811 17.7327 46.2123 17.7146 46.2802 17.5589C46.0795 17.4474 45.856 17.4456 45.6765 17.4572C45.3028 17.4568 44.9419 17.4638 44.5957 17.4782C43.8614 17.5099 43.0665 17.5103 42.2275 17.4795C41.7857 17.468 41.3665 17.4715 40.9768 17.4899C40.0939 17.5144 39.2477 17.5689 38.4392 17.594C36.7832 17.6197 35.2727 17.7117 33.6815 17.7602C33.3273 17.7723 33.0099 17.8143 32.5431 17.7417C32.0763 17.6691 32.0555 17.6596 32.0004 17.6145C31.8698 17.5392 31.8302 17.4663 31.8899 17.4107C31.9824 17.3589 32.1628 17.33 32.3989 17.3292C33.8213 17.2467 35.1705 17.1308 36.438 16.9823C36.9958 16.9525 37.4845 16.8918 37.8871 16.8023C38.2065 16.7407 38.5852 16.6999 39.0116 16.6811C39.6317 16.6366 40.2782 16.6039 40.9484 16.5833C41.2602 16.5722 41.5253 16.5392 41.7282 16.4862C41.9311 16.4332 42.0676 16.3612 42.1296 16.2746L41.308 15.987C41.1789 15.9736 41.0509 15.962 40.9244 15.9522L34.105 16.1594L33.4297 16.1651C32.6895 16.148 32.5086 16.1056 31.8065 15.7723C33.4088 15.6939 34.6684 15.4654 35.4598 15.1096C35.2697 15.0713 35.0747 15.0385 34.8794 15.0118C33.5989 14.9277 32.3884 14.9053 31.2945 14.9456C30.6448 14.9496 29.9767 14.9387 29.3062 14.9332C29.5023 14.7692 30.2535 14.8181 30.7432 14.7811C31.9131 14.7232 32.9477 14.6037 33.8137 14.4263C34.1123 14.3571 34.4859 14.3129 34.9174 14.2956C35.3492 14.2897 35.7098 14.2478 35.968 14.1737C36.2262 14.0996 36.3741 13.9954 36.3987 13.8703C36.4394 13.757 36.5271 13.6517 36.6603 13.556C36.4245 13.4202 36.05 13.2902 35.6071 13.1903C35.1643 13.0905 34.6835 13.0276 34.255 13.0136C33.3403 12.9577 32.3915 12.8662 31.4329 12.7414C30.9553 12.6784 30.4871 12.6423 30.0585 12.6353C29.6806 12.63 29.251 12.5845 28.8353 12.5059C28.4196 12.4272 28.0406 12.3198 27.7561 12.1998C27.3721 12.0515 27.0138 11.9016 26.6554 11.7517C26.2971 11.6018 25.8813 11.4123 25.463 11.2284C25.0942 11.1996 24.7351 11.1811 24.3905 11.1732C24.1224 11.1799 23.8096 11.1599 23.4889 11.1154C23.1683 11.0709 22.8532 11.0039 22.5808 10.9222C22.7406 10.8416 22.9211 10.7705 23.1114 10.6771C22.8502 10.5538 22.6609 10.428 22.5549 10.3075C22.4489 10.187 22.4285 10.0742 22.4948 9.97606C22.5336 9.88704 22.2497 9.73772 22.1517 9.61968C22.0254 9.51792 22.0017 9.42295 22.0836 9.34723C22.1655 9.27151 22.3493 9.21857 22.6108 9.19535C22.9351 9.1525 23.1991 9.08797 23.3918 9.0044C23.4556 8.98271 23.4881 8.953 23.4862 8.91799C23.4844 8.88298 23.4484 8.84379 23.3815 8.80401C23.3145 8.76422 23.2188 8.7251 23.103 8.69023C22.9873 8.65536 22.8552 8.62586 22.7188 8.60441C22.3012 8.54361 21.8864 8.5042 21.4983 8.48845C20.8298 8.45946 20.1897 8.44126 19.5782 8.43383C18.9019 8.42265 18.1495 8.35363 17.3975 8.23379C16.7241 8.1204 16.1205 8.01873 15.7912 7.80205C15.462 7.58536 14.9356 7.59227 14.5308 7.43452C14.7582 7.29232 15.1624 7.19353 15.7025 7.1481C16.0559 7.13188 16.3509 7.08932 16.5686 7.02313C16.7863 6.95695 16.9218 6.86861 16.9665 6.76378L15.7377 6.32393C14.7563 6.11686 14.2133 6.27624 13.1529 6.19321L14.2455 6.03084C14.2674 6.01479 14.2757 5.99594 14.2697 5.9752C14.1637 5.6468 13.9949 5.57657 12.878 5.39445L12.2511 5.28888L11.259 5.1636C11.1001 5.09629 10.9902 5.02611 10.9403 4.96006C10.8903 4.89401 10.9021 4.83441 10.9744 4.78723C11.1198 4.70787 11.164 4.60647 11.103 4.49236C11.0067 4.41676 10.9988 4.34708 11.0805 4.29539C11.1622 4.2437 11.3284 4.21326 11.5503 4.20938C11.7274 4.20337 11.7405 4.116 11.8369 4.06653C11.9326 3.99835 12.0964 3.94603 12.3172 3.91313C12.5379 3.88024 12.8104 3.86752 13.1162 3.87588C14.0176 3.88271 14.8645 3.85712 15.6417 3.79955L15.5024 3.7761C16.3124 3.82663 17.0698 3.83276 17.7375 3.79418C18.4066 3.74563 19.2653 3.77677 19.9761 3.74717C20.5547 3.75396 20.9952 3.68676 21.2041 3.55983C21.4065 3.43864 22.1418 3.46692 22.7049 3.49009C23.0385 3.50508 23.3609 3.51143 23.6686 3.50907C24.0818 3.48164 24.5983 3.5075 25.1321 3.58233C25.2922 3.60533 25.45 3.6175 25.5902 3.61768C26.9472 3.64913 28.3017 3.68614 29.6404 3.70256C29.9494 3.69311 30.3117 3.71476 30.6848 3.76498C30.8417 3.78679 30.9943 3.79582 31.1222 3.79086C33.2374 3.74099 35.6243 3.86824 37.6979 3.79942C37.9492 3.78316 38.2275 3.77979 38.5247 3.78937C39.1928 3.8298 39.7728 3.80378 40.177 3.71527C40.395 3.66819 40.6745 3.64225 40.9977 3.6391C41.3209 3.63594 41.6807 3.65565 42.0541 3.69696C42.6755 3.75166 43.2498 3.75759 43.7164 3.71413C44.6261 3.67398 45.5829 3.65747 46.5791 3.66473C46.8843 3.67176 47.1526 3.65615 47.3632 3.61913C47.5739 3.5821 47.7211 3.52465 47.7936 3.45122C47.5489 3.32641 47.2814 3.31123 47.0274 3.3222C46.0429 3.29376 45.0609 3.25975 44.0947 3.24635C43.23 3.20807 42.4003 3.19636 41.6177 3.21141C41.2292 3.22839 40.7444 3.18968 40.269 3.10372C39.6865 2.99486 39.0865 2.94078 38.5904 2.95241C38.2226 2.9553 37.8343 2.94592 37.4313 2.92442C37.1733 2.89849 36.9089 2.85395 36.6651 2.79539C36.5684 2.76996 36.4631 2.74857 36.356 2.7326C36.2489 2.71664 36.1424 2.70645 36.0432 2.70267C35.944 2.69888 35.8543 2.7016 35.7799 2.71065C35.7054 2.7197 35.6479 2.73489 35.611 2.75523C35.2378 2.92528 34.4033 2.8385 33.6888 2.81969C32.618 2.53186 31.821 2.70222 30.8202 2.53965C30.7411 2.52887 30.6631 2.52234 30.591 2.52048C30.519 2.51862 30.4545 2.52146 30.4012 2.52881C28.4645 2.62666 26.2072 2.54511 24.1738 2.5789C23.9495 2.58384 23.6892 2.56691 23.4225 2.53002C21.6793 2.28588 20.0033 2.21656 18.7221 2.33564C18.5662 2.34637 18.3889 2.34682 18.1982 2.33699C17.3223 2.23996 16.4846 2.20127 15.7552 2.22416C14.612 2.21677 13.5128 2.22276 12.3512 2.20033C11.5505 2.16842 10.8481 2.20252 10.3143 2.29922C10.2973 2.33817 9.94175 2.2962 9.66938 2.29214C9.51273 2.1941 9.37692 2.10554 9.21543 2.01862C9.07107 1.91109 8.85481 1.80228 8.58138 1.69956C8.30796 1.59684 7.98379 1.50263 7.6307 1.42328C7.02703 1.32162 6.96666 1.1741 7.38907 1.11983C8.47783 0.940261 9.8469 0.866769 11.3956 0.904738C12.6903 0.907773 14.0081 0.914725 15.3211 0.932797C16.087 0.948301 16.8943 0.982738 17.6394 0.988768C17.8908 1.00202 18.149 1.02154 18.4115 1.04713C18.7335 1.08424 19.0461 1.10445 19.3325 1.1067C20.2523 1.07545 21.2788 1.10267 22.363 1.18706C22.7601 1.20547 23.1414 1.21166 23.5013 1.20558C24.3527 1.18267 25.2756 1.19953 26.2458 1.2557C26.8488 1.28738 27.4334 1.30395 27.9937 1.30522C28.1916 1.30868 28.3527 1.28207 28.5433 1.30222C30.2209 1.51307 31.4088 1.36078 32.9186 1.44186C33.6524 1.46446 34.3535 1.46453 35.012 1.44205C36.2971 1.44314 37.6179 1.46625 38.9694 1.5113C40.7564 1.58532 42.4125 1.55964 44.1188 1.5902C44.4556 1.59662 44.7809 1.59553 45.0922 1.58692C46.6065 1.53004 48.2512 1.5421 49.9862 1.62281C50.3802 1.63447 50.734 1.62021 51.0256 1.58094C51.3172 1.54167 51.5402 1.47823 51.6807 1.39458C51.7401 1.33717 51.7016 1.26261 51.5726 1.18527C51.3584 1.08651 51.1166 0.989735 50.8511 0.896554L41.1929 0.583876C40.7872 0.567548 40.3917 0.55876 40.0081 0.557545C38.8802 0.554827 37.7175 0.530502 36.5259 0.484692C35.3483 0.441662 34.2235 0.4493 33.0827 0.436345C32.7467 0.432005 32.4018 0.421765 32.0494 0.405655C29.6675 0.278152 27.3449 0.200275 25.0979 0.172583C24.1526 0.168653 23.1314 0.110138 22.1677 0.0911712C21.204 0.0722046 19.8861 0.0652594 18.7429 0.0578673L15.2035 0.0590016C14.5073 0.0552278 13.8295 0.0664889 13.1541 0.0721886C12.3345 -0.334573 12.0521 -0.429915 10.9584 -0.608124C10.5843 -0.673861 10.2037 -0.713091 9.86133 -0.721219C8.77566 -0.689064 7.41343 -0.822918 6.38389 -0.805197C5.76266 -0.813938 5.23551 -0.768751 4.85642 -0.67426C4.52735 -0.600103 4.15104 -0.541424 3.73332 -0.49911C2.58903 -0.847085 2.48819 -1.07309 3.34895 -1.16103C3.58216 -1.18148 3.90339 -1.17515 4.0718 -1.21846C4.16843 -1.24483 4.30043 -1.25991 4.45729 -1.26252C4.61415 -1.26512 4.79153 -1.25519 4.97551 -1.23348C5.55617 -1.17653 6.10042 -1.16314 6.55364 -1.19465C6.98018 -1.23634 7.50301 -1.23468 8.07175 -1.18981C8.48967 -1.11943 8.85701 -1.21881 9.21843 -1.24752C9.57986 -1.27623 9.87646 -1.32781 10.441 -1.25066C10.5443 -1.2353 10.647 -1.22608 10.741 -1.2237C10.835 -1.22133 10.9179 -1.22586 10.9833 -1.23696C11.5896 -1.28665 12.3131 -1.28143 13.095 -1.22173C14.2944 -1.16298 15.4196 -1.16078 16.4318 -1.21519C17.0377 -1.26281 17.5543 -1.34725 17.9613 -1.46522C18.0723 -1.50468 18.237 -1.52834 18.4399 -1.53393C19.4582 -1.50932 20.564 -1.41668 21.6858 -1.26199C22.1085 -1.20001 22.5306 -1.15099 22.9431 -1.11596C23.7909 -1.03815 24.6109 -0.994546 25.3788 -0.986444C26.4947 -0.985159 27.6565 -0.955221 28.8538 -0.8969C29.5928 -0.864427 30.3048 -0.852441 30.9815 -0.861074C31.677 -0.865144 32.4196 -0.840373 33.1924 -0.787338C33.961 -0.74412 34.6383 -0.769022 35.1427 -0.859028C35.3087 -0.90753 35.4425 -0.965123 35.5415 -1.03074C34.4162 -1.24424 33.2524 -1.35274 32.2844 -1.3344C31.9167 -1.34854 31.6114 -1.33427 31.224 -1.41743L31.2119 -1.38961C31.1348 -1.37156 31.0185 -1.3673 30.8851 -1.37765C30.7517 -1.38799 30.6106 -1.41222 30.4887 -1.44571C30.5348 -1.55142 30.5784 -1.65156 30.6099 -1.72389C31.3475 -1.71113 32.0636 -1.71216 32.7546 -1.72699C33.3371 -1.74833 34.1279 -1.56141 34.6321 -1.63178C35.6156 -1.54379 36.2417 -1.66527 37.1237 -1.63022C38.0056 -1.59517 38.9769 -1.47936 39.8588 -1.4443C40.6284 -1.42507 41.3756 -1.42089 42.0964 -1.43178C42.3451 -1.44707 42.6319 -1.44348 42.9391 -1.42124C43.371 -1.37938 43.7726 -1.37237 44.0981 -1.40101C44.4235 -1.42964 44.6595 -1.49277 44.7791 -1.58315C44.6665 -1.66781 44.5148 -1.77697 44.3398 -1.89005C44.6617 -1.98297 45.1507 -2.02209 45.7341 -2.0016L46.5585 -2.00609C46.777 -2.00364 46.944 -2.02876 47.025 -2.07625C47.106 -2.12375 47.0948 -2.18998 46.9938 -2.26125C45.4305 -2.62006 45.373 -2.65962 44.2256 -2.42883L42.7023 -2.53607L42.7279 -2.53772ZM253.174 36.6232L253.147 36.6844L253.176 36.6177L253.432 36.6607L253.449 36.6217L253.174 36.6232ZM216.093 9.79924C215.732 9.73247 215.367 9.67109 215.001 9.61546C214.906 9.60684 214.816 9.60489 214.74 9.60979C214.664 9.61468 214.604 9.62627 214.566 9.64357C214.536 9.71033 214.741 9.75665 214.926 9.78793C215.161 9.83004 215.4 9.85679 215.619 9.86544C215.839 9.87409 216.031 9.86432 216.176 9.83713L216.386 9.81278L216.093 9.79924ZM30.1587 26.0711C30.3964 26.0824 30.6218 26.0842 30.8293 26.0766C31.75 26.0226 32.6315 25.9441 33.5754 25.8941C34.7664 25.767 36.135 25.7153 37.6298 25.7408C38.2138 25.7532 38.7072 25.7121 39.0524 25.622C39.259 25.5737 39.5257 25.5455 39.8362 25.539L43.7879 25.3924C44.0322 25.3619 44.2434 25.3192 44.4166 25.2653C44.0683 25.2067 43.8361 25.1676 43.6968 25.1441C43.4078 25.1375 43.1593 25.1554 42.9764 25.196C42.7799 25.2647 42.4477 25.2919 42.0459 25.2722C41.6403 25.2558 41.2447 25.2471 40.8612 25.2458C40.1369 25.2493 39.4078 25.2638 38.6811 25.2729C38.3984 25.4641 37.5639 25.3773 36.8494 25.3585L36.2974 25.3671C34.4929 25.4662 32.7693 25.6026 31.1348 25.7757C30.8189 25.8049 30.5468 25.8516 30.3268 25.9143C30.2439 25.9632 30.2173 26.0241 30.2492 26.0923L30.1331 26.0728L30.1587 26.0711ZM110.736 44.3587C111.174 44.3718 111.63 44.3985 112.097 44.4386C112.457 44.4796 112.808 44.5044 113.137 44.5122C114.977 44.555 116.895 44.6541 118.865 44.8079C119.122 44.8312 119.37 44.8426 119.598 44.8418L121.21 44.8027C121.718 44.7807 121.727 44.7585 121.357 44.4633C121.051 44.406 120.74 44.3538 120.429 44.3069C120.243 44.2756 119.941 44.2248 119.871 44.2726C119.44 44.4031 118.654 44.3186 117.993 44.2909C116.081 44.2196 114.108 44.1143 112.177 44.028C111.768 44.0069 111.373 43.9962 110.994 43.9961C110.759 43.9916 110.545 44 110.36 44.0207C110.306 44.0228 110.261 44.029 110.228 44.0388C110.195 44.0487 110.174 44.0619 110.167 44.0777C110.16 44.0935 110.167 44.1114 110.188 44.1304C110.209 44.1493 110.243 44.1688 110.288 44.1876C110.446 44.2533 110.628 44.3163 110.829 44.3744L110.736 44.3587ZM124.749 1.51702L126.633 1.48202C126.859 1.47826 127.051 1.43887 127.293 1.45572C128.583 1.50911 129.778 1.49424 130.826 1.41174C131.183 1.37807 131.601 1.37134 132.056 1.39191C133.45 1.45288 134.765 1.45539 135.965 1.39937C136.741 1.38812 137.467 1.35036 138.133 1.28664C138.184 1.27185 138.216 1.25177 138.227 1.22776C138.237 1.20376 138.226 1.1764 138.194 1.14755C138.185 1.12933 138.162 1.10972 138.127 1.09008C138.091 1.07045 138.044 1.05125 137.987 1.03381C137.931 1.01637 137.867 1.00111 137.8 0.989075C137.734 0.977038 137.666 0.968506 137.601 0.96408C136.76 0.877827 135.962 0.847779 135.271 0.876375C134.631 0.910589 133.942 0.9206 133.215 0.906253C132.519 0.902479 132.046 1.01404 131.186 0.928916C130.822 0.900884 130.501 0.910111 130.277 0.955055C129.827 1.02955 129.198 1.03369 128.503 0.966748C128.087 0.932868 127.689 0.918338 127.325 0.923714C126.442 0.948205 125.599 0.997208 124.781 1.04456C124.523 1.05551 124.246 1.05702 123.956 1.04906L119.859 0.956342C118.875 0.927902 117.893 0.893896 116.927 0.880493C116.137 0.85139 115.401 0.860507 114.747 0.907517C114.049 0.956928 113.288 0.976986 112.478 0.967316C111.22 0.994355 109.969 1.0047 108.6 1.00106C107.727 1.0033 106.833 0.996067 105.92 0.973793C105.459 0.945127 105.067 0.968471 104.82 1.03933C104.67 1.09767 104.317 1.05014 104.024 1.0366C102.46 0.906111 100.994 0.875192 99.7269 0.945998C99.5651 0.957536 99.3875 0.961714 99.198 0.958458C97.9779 0.956026 96.7137 0.940211 95.5425 0.940036C95.2341 0.945537 94.9439 0.960632 94.6755 0.985131C94.7042 1.0251 94.7862 1.06842 94.9043 1.10611C95.0224 1.14379 95.1677 1.17296 95.31 1.18754C96.4178 1.2992 97.4874 1.35819 98.4738 1.36203C100.116 1.34781 101.836 1.37979 103.616 1.45763C104.997 1.53611 106.257 1.51958 107.301 1.40929C108.117 1.32699 109.178 1.35796 110.303 1.49687C110.784 1.56321 111.251 1.58974 111.641 1.57283C112.015 1.55064 112.445 1.55602 112.905 1.58865C113.874 1.65068 114.807 1.67946 115.684 1.67442C116.541 1.65158 117.341 1.58919 118.221 1.57026C119.102 1.55133 120.443 1.56218 121.528 1.53002C122.614 1.49787 123.688 1.49354 124.749 1.51702ZM46.6657 -1.73723C46.7651 -1.56521 47.1173 -1.45814 47.496 -1.41226C48.8019 -1.20859 50.0928 -1.12192 51.1522 -1.16679C51.7245 -1.22939 52.4874 -1.2053 53.291 -1.09924C54.2268 -0.988986 55.1013 -0.970702 55.7607 -1.04761C55.9222 -1.06105 56.0459 -1.08945 56.1208 -1.1303C56.1353 -1.16368 56.162 -1.22488 56.1668 -1.23601C56.0975 -1.26423 56.0126 -1.29037 55.9185 -1.31243C55.8244 -1.33449 55.7237 -1.35187 55.6242 -1.36323L51.2988 -1.56015L50.545 -1.60348C49.1683 -1.71701 47.8564 -1.76223 46.6657 -1.73723ZM55.1737 0.985511C55.8488 1.26641 55.8511 1.26084 56.197 1.32505C57.8654 1.59178 59.5328 1.73576 61.0006 1.73987C61.3268 1.73905 61.6037 1.71194 61.8077 1.6608C61.9127 1.65387 61.9795 1.63185 61.9936 1.59954C62.0077 1.56723 61.9679 1.52726 61.8829 1.48833L61.3461 1.29044C60.3712 1.20476 59.4103 1.13669 58.4692 1.08663C57.3734 1.02751 56.4024 1.02523 55.2665 1.00114L55.1737 0.985511ZM110.655 43.1149C111.284 43.5015 111.287 43.4959 112.34 43.5957C113.074 43.6663 113.786 43.7078 114.455 43.7189C115.272 43.7311 116.11 43.7527 116.924 43.7705C117.123 43.7828 117.292 43.7726 117.397 43.7418C117.503 43.711 117.538 43.6619 117.495 43.6039C117.388 43.541 117.221 43.4801 117.021 43.4312C116.82 43.3823 116.599 43.3481 116.392 43.3344L115.947 43.3252C115.407 43.306 114.846 43.2772 114.325 43.273C113.986 43.289 113.594 43.2766 113.179 43.2368C112.764 43.1969 112.338 43.1307 111.933 43.0433L110.655 43.1149ZM58.5326 -1.23174C58.7006 -1.16479 58.8905 -1.10066 59.0974 -1.04107C59.8986 -0.8759 60.7465 -0.782088 61.475 -0.778029C61.8195 -0.767797 62.1344 -0.804329 62.4851 -0.751241C63.1141 -0.680302 63.7237 -0.642513 64.2809 -0.639922C64.2809 -0.639922 64.4372 -0.655414 64.4885 -0.658721L64.5952 -0.903516C64.3314 -0.960226 64.0563 -1.00656 63.7825 -1.04037C62.8639 -1.1055 61.9612 -1.15002 61.0609 -1.20012C60.1606 -1.25021 59.8466 -1.27322 59.2579 -1.29473C58.9953 -1.28291 58.7523 -1.26181 58.5326 -1.23174ZM38.6387 29.2012L39.8409 29.7023C40.2299 29.7458 40.5934 29.7537 40.8759 29.7247C41.1585 29.6958 41.3446 29.6316 41.4061 29.5418C41.5051 29.4999 41.515 29.4377 41.4337 29.3683C41.3525 29.299 41.1863 29.2278 40.9701 29.1698C40.7621 29.1011 40.5246 29.0394 40.2723 28.9887C40.02 28.938 39.7584 28.8993 39.5036 28.8751L38.6387 29.2012ZM48.6482 26.7065C47.8619 26.6216 47.1098 26.5868 46.4495 26.605C46.0334 26.6547 45.4697 26.6388 44.8738 26.5606C43.7902 26.4047 42.7456 26.3616 41.9605 26.4402C41.9605 26.4402 41.9314 26.507 41.7983 26.5264C41.6653 26.5458 42.193 26.5929 42.3091 26.6124C43.1605 26.6602 44.0168 26.6969 44.757 26.7141C45.2166 26.7134 45.7026 26.7291 46.2069 26.7612C46.9007 26.8106 47.5587 26.8266 48.1551 26.8086C48.1551 26.8086 48.3859 26.7937 48.6457 26.7121L48.6482 26.7065ZM132.621 0.609259C132.246 0.514896 131.839 0.438203 131.43 0.384939C131.022 0.331674 130.623 0.303223 130.263 0.301708C129.988 0.296784 129.765 0.3217 129.63 0.372513C129.495 0.423327 129.456 0.49714 129.518 0.58228C129.796 0.629201 130.168 0.691759 130.377 0.72695C131.101 0.723507 131.719 0.678259 132.621 0.609259ZM202.925 8.56113C202.624 8.48517 202.292 8.42709 201.967 8.39353C201.642 8.35997 201.338 8.35228 201.089 8.37134C200.961 8.3796 201.048 8.46592 201.026 8.51599C201.012 8.52734 201.012 8.54146 201.026 8.55687C201.041 8.57228 201.069 8.58841 201.109 8.60357C201.148 8.61873 201.197 8.63236 201.25 8.64304C201.303 8.65371 201.358 8.66104 201.41 8.66426C201.737 8.69698 202.045 8.70672 202.308 8.69261C202.571 8.6785 202.779 8.64098 202.915 8.58339L202.925 8.56113ZM207.636 9.64703C207.589 9.60221 207.49 9.5555 207.356 9.51545C207.223 9.4754 207.064 9.4447 206.908 9.42899C206.634 9.42688 206.384 9.43931 206.169 9.46581C205.936 9.48626 206.104 9.61603 206.419 9.69303C206.553 9.72393 206.696 9.74804 206.836 9.76343C206.977 9.77882 207.111 9.78507 207.229 9.78169C207.346 9.7783 207.444 9.76538 207.514 9.74393C207.583 9.72249 207.624 9.69312 207.631 9.65816L207.636 9.64703ZM70.761 -0.754975C70.0582 -0.915131 69.5173 -0.874841 68.9223 -0.939211C68.3273 -1.00358 68.1807 -1.01035 68.2604 -0.907348C68.3401 -0.804345 68.748 -0.825234 69.0034 -0.782223C69.3485 -0.725151 69.6956 -0.692381 70.006 -0.687568C70.3164 -0.682755 70.5778 -0.706094 70.761 -0.754975ZM217.206 26.3438C216.833 26.3078 216.469 26.2824 216.117 26.268C216.071 26.2829 216.042 26.3024 216.032 26.3253C216.022 26.3482 216.031 26.3741 216.059 26.4015C216.059 26.4015 216.297 26.4834 216.437 26.5069C216.95 26.5874 216.975 26.4722 217.206 26.3438ZM269.817 41.2654C270.069 41.3735 270.187 41.4471 270.388 41.4989C270.481 41.517 270.577 41.53 270.669 41.5372C270.76 41.5444 270.846 41.5455 270.919 41.5405C271.007 41.5093 271.028 41.4616 270.977 41.4069C270.977 41.4069 270.72 41.31 270.622 41.3054C270.344 41.2825 270.073 41.2691 269.817 41.2654ZM58.7987 -1.67066C58.2647 -1.76059 57.7538 -1.84662 57.3841 -1.74167C58.2321 -1.62873 58.2321 -1.62872 58.7987 -1.67066ZM67.4478 -0.644072C66.9086 -0.836404 66.5922 -0.853857 66.3333 -0.831758C66.2783 -0.826192 66.2419 -0.813786 66.2296 -0.796425C66.2173 -0.779063 66.2298 -0.757689 66.2652 -0.735533C66.3006 -0.713376 66.357 -0.691646 66.4258 -0.673628C66.4946 -0.65561 66.5721 -0.642284 66.6466 -0.63567C66.9278 -0.630134 67.196 -0.632945 67.4478 -0.644072ZM95.2006 -0.562743C95.2127 -0.59056 95.2273 -0.623941 95.088 -0.647401C95.0515 -0.659311 95.0087 -0.669553 94.9639 -0.677103C94.919 -0.684652 94.8738 -0.68924 94.8326 -0.690407C94.8326 -0.690407 94.8181 -0.657025 94.8084 -0.63477L95.2006 -0.562743ZM114.473 45.621L114.163 45.6464L114.302 45.6699L114.67 45.684L114.473 45.621ZM223.675 9.21296C223.559 9.19341 223.443 9.17386 223.426 9.21281C223.402 9.21884 223.387 9.22754 223.382 9.23819C223.377 9.24884 223.383 9.26112 223.4 9.27401C223.4 9.27401 223.562 9.30138 223.632 9.31311L223.675 9.21296ZM205.596 9.52444C205.519 9.52221 205.45 9.52482 205.393 9.53211C205.393 9.53211 205.378 9.56549 205.378 9.56549L205.611 9.6046L205.596 9.52444ZM48.035 17.4781C47.9453 17.4579 47.8503 17.4419 47.7564 17.4312L47.6402 17.4117C47.6402 17.4117 47.765 17.4685 47.8347 17.4802C47.9043 17.492 47.9605 17.4775 48.035 17.4781Z" fill="#DFA62A"/>
</g>
</svg>
