<svg width="24" height="27" viewBox="0 0 24 27" fill="none" xmlns="http://www.w3.org/2000/svg">
<path d="M21.5623 23.1666H5.854C5.37067 23.1666 4.94775 22.9854 4.58525 22.6229C4.22275 22.2604 4.0415 21.8375 4.0415 21.3541V2.02081C4.0415 1.53748 4.22275 1.11456 4.58525 0.752063C4.94775 0.389563 5.37067 0.208313 5.854 0.208313H16.3665L23.3748 7.21665V21.3541C23.3748 21.8375 23.1936 22.2604 22.8311 22.6229C22.4686 22.9854 22.0457 23.1666 21.5623 23.1666ZM15.4603 8.00206V2.02081H5.854V21.3541H21.5623V8.00206H15.4603ZM2.229 26.7916C1.74567 26.7916 1.32275 26.6104 0.960254 26.2479C0.597754 25.8854 0.416504 25.4625 0.416504 24.9791V6.28019H2.229V24.9791H17.2728V26.7916H2.229ZM5.854 2.02081V8.00206V2.02081V21.3541V2.02081Z" fill="#EE1E1E"/>
</svg>
