<svg width="24" height="20" viewBox="0 0 24 20" fill="none" xmlns="http://www.w3.org/2000/svg">
<g clip-path="url(#clip0_351_526)">
<path d="M3 2.5H21C21.2652 2.5 21.5196 2.5878 21.7071 2.74408C21.8946 2.90036 22 3.11232 22 3.33333V16.6667C22 16.8877 21.8946 17.0996 21.7071 17.2559C21.5196 17.4122 21.2652 17.5 21 17.5H3C2.73478 17.5 2.48043 17.4122 2.29289 17.2559C2.10536 17.0996 2 16.8877 2 16.6667V3.33333C2 3.11232 2.10536 2.90036 2.29289 2.74408C2.48043 2.5878 2.73478 2.5 3 2.5ZM12.06 9.73583L5.648 5.19833L4.353 6.46833L12.073 11.9308L19.654 6.46417L18.346 5.20333L12.061 9.73583H12.06Z" fill="#31674E"/>
</g>
<defs>
<clipPath id="clip0_351_526">
<rect width="24" height="20" fill="white"/>
</clipPath>
</defs>
</svg>
