<svg width="381" height="888" viewBox="0 0 381 888" fill="none" xmlns="http://www.w3.org/2000/svg">
<g filter="url(#filter0_d_384_398)">
<rect width="355" height="862" transform="translate(13 7)" fill="white"/>
<path d="M176.72 804.84C176.72 806.307 176.333 807.667 175.56 808.92C174.813 810.147 173.693 811.16 172.2 811.96C170.733 812.733 168.987 813.16 166.96 813.24V816.48H164.4V813.2C161.573 812.96 159.293 812.12 157.56 810.68C155.827 809.213 154.907 807.227 154.8 804.72H162.08C162.24 806.32 163.013 807.347 164.4 807.8V801.48C162.32 800.947 160.653 800.427 159.4 799.92C158.173 799.413 157.093 798.6 156.16 797.48C155.227 796.36 154.76 794.827 154.76 792.88C154.76 790.453 155.653 788.507 157.44 787.04C159.253 785.573 161.573 784.747 164.4 784.56V781.32H166.96V784.56C169.76 784.773 171.973 785.587 173.6 787C175.227 788.413 176.133 790.373 176.32 792.88H169C168.84 791.44 168.16 790.507 166.96 790.08V796.28C169.173 796.893 170.88 797.44 172.08 797.92C173.28 798.4 174.347 799.2 175.28 800.32C176.24 801.413 176.72 802.92 176.72 804.84ZM162 792.56C162 793.227 162.2 793.787 162.6 794.24C163.027 794.693 163.627 795.093 164.4 795.44V789.88C163.653 790.013 163.067 790.307 162.64 790.76C162.213 791.187 162 791.787 162 792.56ZM166.96 807.92C167.76 807.787 168.387 807.467 168.84 806.96C169.32 806.453 169.56 805.827 169.56 805.08C169.56 804.387 169.333 803.827 168.88 803.4C168.453 802.947 167.813 802.56 166.96 802.24V807.92ZM200.088 789.76H187.608V795.28C188.141 794.693 188.888 794.213 189.848 793.84C190.808 793.467 191.848 793.28 192.968 793.28C194.968 793.28 196.621 793.733 197.928 794.64C199.261 795.547 200.235 796.72 200.848 798.16C201.461 799.6 201.768 801.16 201.768 802.84C201.768 805.96 200.888 808.44 199.128 810.28C197.368 812.093 194.888 813 191.688 813C189.555 813 187.701 812.64 186.128 811.92C184.555 811.173 183.341 810.147 182.488 808.84C181.635 807.533 181.168 806.027 181.088 804.32H187.768C187.928 805.147 188.315 805.84 188.928 806.4C189.541 806.933 190.381 807.2 191.448 807.2C192.701 807.2 193.635 806.8 194.248 806C194.861 805.2 195.168 804.133 195.168 802.8C195.168 801.493 194.848 800.493 194.208 799.8C193.568 799.107 192.635 798.76 191.408 798.76C190.501 798.76 189.755 798.987 189.168 799.44C188.581 799.867 188.195 800.44 188.008 801.16H181.408V783.76H200.088V789.76ZM203.944 798C203.944 793.413 204.824 789.8 206.584 787.16C208.37 784.52 211.237 783.2 215.184 783.2C219.13 783.2 221.984 784.52 223.744 787.16C225.53 789.8 226.424 793.413 226.424 798C226.424 802.64 225.53 806.28 223.744 808.92C221.984 811.56 219.13 812.88 215.184 812.88C211.237 812.88 208.37 811.56 206.584 808.92C204.824 806.28 203.944 802.64 203.944 798ZM219.704 798C219.704 795.307 219.41 793.24 218.824 791.8C218.237 790.333 217.024 789.6 215.184 789.6C213.344 789.6 212.13 790.333 211.544 791.8C210.957 793.24 210.664 795.307 210.664 798C210.664 799.813 210.77 801.32 210.984 802.52C211.197 803.693 211.624 804.653 212.264 805.4C212.93 806.12 213.904 806.48 215.184 806.48C216.464 806.48 217.424 806.12 218.064 805.4C218.73 804.653 219.17 803.693 219.384 802.52C219.597 801.32 219.704 799.813 219.704 798Z" fill="#101010"/>
<path d="M135.45 96.536V119H129.978V105.528L124.954 119H120.538L115.482 105.496V119H110.01V96.536H116.474L122.778 112.088L129.018 96.536H135.45ZM137.017 110.04C137.017 108.205 137.358 106.595 138.041 105.208C138.745 103.821 139.694 102.755 140.889 102.008C142.083 101.261 143.417 100.888 144.889 100.888C146.147 100.888 147.246 101.144 148.185 101.656C149.145 102.168 149.881 102.84 150.393 103.672V101.144H155.865V119H150.393V116.472C149.859 117.304 149.113 117.976 148.153 118.488C147.214 119 146.115 119.256 144.857 119.256C143.406 119.256 142.083 118.883 140.889 118.136C139.694 117.368 138.745 116.291 138.041 114.904C137.358 113.496 137.017 111.875 137.017 110.04ZM150.393 110.072C150.393 108.707 150.009 107.629 149.241 106.84C148.494 106.051 147.577 105.656 146.489 105.656C145.401 105.656 144.473 106.051 143.705 106.84C142.958 107.608 142.585 108.675 142.585 110.04C142.585 111.405 142.958 112.493 143.705 113.304C144.473 114.093 145.401 114.488 146.489 114.488C147.577 114.488 148.494 114.093 149.241 113.304C150.009 112.515 150.393 111.437 150.393 110.072ZM164.015 104.12C164.655 103.139 165.455 102.371 166.415 101.816C167.375 101.24 168.442 100.952 169.615 100.952V106.744H168.111C166.746 106.744 165.722 107.043 165.039 107.64C164.357 108.216 164.015 109.24 164.015 110.712V119H158.543V101.144H164.015V104.12ZM181.863 119L176.423 111.512V119H170.951V95.32H176.423V108.408L181.831 101.144H188.583L181.159 110.104L188.647 119H181.863ZM192.204 99.288C191.244 99.288 190.455 99.0107 189.836 98.456C189.239 97.88 188.94 97.176 188.94 96.344C188.94 95.4907 189.239 94.7867 189.836 94.232C190.455 93.656 191.244 93.368 192.204 93.368C193.143 93.368 193.911 93.656 194.508 94.232C195.127 94.7867 195.436 95.4907 195.436 96.344C195.436 97.176 195.127 97.88 194.508 98.456C193.911 99.0107 193.143 99.288 192.204 99.288ZM194.924 101.144V119H189.452V101.144H194.924ZM208.49 100.952C210.58 100.952 212.244 101.635 213.482 103C214.74 104.344 215.37 106.2 215.37 108.568V119H209.93V109.304C209.93 108.109 209.62 107.181 209.002 106.52C208.383 105.859 207.551 105.528 206.506 105.528C205.46 105.528 204.628 105.859 204.01 106.52C203.391 107.181 203.082 108.109 203.082 109.304V119H197.61V101.144H203.082V103.512C203.636 102.723 204.383 102.104 205.322 101.656C206.26 101.187 207.316 100.952 208.49 100.952ZM224.676 100.888C225.935 100.888 227.033 101.144 227.972 101.656C228.932 102.168 229.668 102.84 230.18 103.672V101.144H235.652V118.968C235.652 120.611 235.321 122.093 234.66 123.416C234.02 124.76 233.028 125.827 231.684 126.616C230.361 127.405 228.708 127.8 226.724 127.8C224.079 127.8 221.935 127.171 220.292 125.912C218.649 124.675 217.711 122.989 217.476 120.856H222.884C223.055 121.539 223.46 122.072 224.1 122.456C224.74 122.861 225.529 123.064 226.468 123.064C227.599 123.064 228.495 122.733 229.156 122.072C229.839 121.432 230.18 120.397 230.18 118.968V116.44C229.647 117.272 228.911 117.955 227.972 118.488C227.033 119 225.935 119.256 224.676 119.256C223.204 119.256 221.871 118.883 220.676 118.136C219.481 117.368 218.532 116.291 217.828 114.904C217.145 113.496 216.804 111.875 216.804 110.04C216.804 108.205 217.145 106.595 217.828 105.208C218.532 103.821 219.481 102.755 220.676 102.008C221.871 101.261 223.204 100.888 224.676 100.888ZM230.18 110.072C230.18 108.707 229.796 107.629 229.028 106.84C228.281 106.051 227.364 105.656 226.276 105.656C225.188 105.656 224.26 106.051 223.492 106.84C222.745 107.608 222.372 108.675 222.372 110.04C222.372 111.405 222.745 112.493 223.492 113.304C224.26 114.093 225.188 114.488 226.276 114.488C227.364 114.488 228.281 114.093 229.028 113.304C229.796 112.515 230.18 111.437 230.18 110.072ZM251.96 119.256C250.211 119.256 248.632 118.883 247.224 118.136C245.837 117.389 244.739 116.323 243.928 114.936C243.139 113.549 242.744 111.928 242.744 110.072C242.744 108.237 243.149 106.627 243.96 105.24C244.771 103.832 245.88 102.755 247.288 102.008C248.696 101.261 250.275 100.888 252.024 100.888C253.773 100.888 255.352 101.261 256.76 102.008C258.168 102.755 259.277 103.832 260.088 105.24C260.899 106.627 261.304 108.237 261.304 110.072C261.304 111.907 260.888 113.528 260.056 114.936C259.245 116.323 258.125 117.389 256.696 118.136C255.288 118.883 253.709 119.256 251.96 119.256ZM251.96 114.52C253.005 114.52 253.891 114.136 254.616 113.368C255.363 112.6 255.736 111.501 255.736 110.072C255.736 108.643 255.373 107.544 254.648 106.776C253.944 106.008 253.069 105.624 252.024 105.624C250.957 105.624 250.072 106.008 249.368 106.776C248.664 107.523 248.312 108.621 248.312 110.072C248.312 111.501 248.653 112.6 249.336 113.368C250.04 114.136 250.915 114.52 251.96 114.52ZM261.807 100.728V95.64H270.671V119H264.975V100.728H261.807Z" fill="#BC7609"/>
<path d="M51.2 203.14C50.2267 203.14 49.3467 202.973 48.56 202.64C47.7867 202.307 47.1733 201.827 46.72 201.2C46.2667 200.573 46.0333 199.833 46.02 198.98H49.02C49.06 199.553 49.26 200.007 49.62 200.34C49.9933 200.673 50.5 200.84 51.14 200.84C51.7933 200.84 52.3067 200.687 52.68 200.38C53.0533 200.06 53.24 199.647 53.24 199.14C53.24 198.727 53.1133 198.387 52.86 198.12C52.6067 197.853 52.2867 197.647 51.9 197.5C51.5267 197.34 51.0067 197.167 50.34 196.98C49.4333 196.713 48.6933 196.453 48.12 196.2C47.56 195.933 47.0733 195.54 46.66 195.02C46.26 194.487 46.06 193.78 46.06 192.9C46.06 192.073 46.2667 191.353 46.68 190.74C47.0933 190.127 47.6733 189.66 48.42 189.34C49.1667 189.007 50.02 188.84 50.98 188.84C52.42 188.84 53.5867 189.193 54.48 189.9C55.3867 190.593 55.8867 191.567 55.98 192.82H52.9C52.8733 192.34 52.6667 191.947 52.28 191.64C51.9067 191.32 51.4067 191.16 50.78 191.16C50.2333 191.16 49.7933 191.3 49.46 191.58C49.14 191.86 48.98 192.267 48.98 192.8C48.98 193.173 49.1 193.487 49.34 193.74C49.5933 193.98 49.9 194.18 50.26 194.34C50.6333 194.487 51.1533 194.66 51.82 194.86C52.7267 195.127 53.4667 195.393 54.04 195.66C54.6133 195.927 55.1067 196.327 55.52 196.86C55.9333 197.393 56.14 198.093 56.14 198.96C56.14 199.707 55.9467 200.4 55.56 201.04C55.1733 201.68 54.6067 202.193 53.86 202.58C53.1133 202.953 52.2267 203.14 51.2 203.14ZM68.2275 191.92V203H65.4075V201.6C65.0475 202.08 64.5742 202.46 63.9875 202.74C63.4142 203.007 62.7875 203.14 62.1075 203.14C61.2408 203.14 60.4742 202.96 59.8075 202.6C59.1408 202.227 58.6142 201.687 58.2275 200.98C57.8542 200.26 57.6675 199.407 57.6675 198.42V191.92H60.4675V198.02C60.4675 198.9 60.6875 199.58 61.1275 200.06C61.5675 200.527 62.1675 200.76 62.9275 200.76C63.7008 200.76 64.3075 200.527 64.7475 200.06C65.1875 199.58 65.4075 198.9 65.4075 198.02V191.92H68.2275ZM72.9902 193.54C73.3502 193.007 73.8435 192.573 74.4702 192.24C75.1102 191.907 75.8368 191.74 76.6502 191.74C77.5968 191.74 78.4502 191.973 79.2102 192.44C79.9835 192.907 80.5902 193.573 81.0302 194.44C81.4835 195.293 81.7102 196.287 81.7102 197.42C81.7102 198.553 81.4835 199.56 81.0302 200.44C80.5902 201.307 79.9835 201.98 79.2102 202.46C78.4502 202.94 77.5968 203.18 76.6502 203.18C75.8235 203.18 75.0968 203.02 74.4702 202.7C73.8568 202.367 73.3635 201.94 72.9902 201.42V203H70.1902V188.2H72.9902V193.54ZM78.8502 197.42C78.8502 196.753 78.7102 196.18 78.4302 195.7C78.1635 195.207 77.8035 194.833 77.3502 194.58C76.9102 194.327 76.4302 194.2 75.9102 194.2C75.4035 194.2 74.9235 194.333 74.4702 194.6C74.0302 194.853 73.6702 195.227 73.3902 195.72C73.1235 196.213 72.9902 196.793 72.9902 197.46C72.9902 198.127 73.1235 198.707 73.3902 199.2C73.6702 199.693 74.0302 200.073 74.4702 200.34C74.9235 200.593 75.4035 200.72 75.9102 200.72C76.4302 200.72 76.9102 200.587 77.3502 200.32C77.8035 200.053 78.1635 199.673 78.4302 199.18C78.7102 198.687 78.8502 198.1 78.8502 197.42ZM87.1848 203.18C86.2782 203.18 85.4648 203.02 84.7448 202.7C84.0248 202.367 83.4515 201.92 83.0248 201.36C82.6115 200.8 82.3848 200.18 82.3448 199.5H85.1648C85.2182 199.927 85.4248 200.28 85.7848 200.56C86.1582 200.84 86.6182 200.98 87.1648 200.98C87.6982 200.98 88.1115 200.873 88.4048 200.66C88.7115 200.447 88.8648 200.173 88.8648 199.84C88.8648 199.48 88.6782 199.213 88.3048 199.04C87.9448 198.853 87.3648 198.653 86.5648 198.44C85.7382 198.24 85.0582 198.033 84.5248 197.82C84.0048 197.607 83.5515 197.28 83.1648 196.84C82.7915 196.4 82.6048 195.807 82.6048 195.06C82.6048 194.447 82.7782 193.887 83.1248 193.38C83.4848 192.873 83.9915 192.473 84.6448 192.18C85.3115 191.887 86.0915 191.74 86.9848 191.74C88.3048 191.74 89.3582 192.073 90.1448 192.74C90.9315 193.393 91.3648 194.28 91.4448 195.4H88.7648C88.7248 194.96 88.5382 194.613 88.2048 194.36C87.8848 194.093 87.4515 193.96 86.9048 193.96C86.3982 193.96 86.0048 194.053 85.7248 194.24C85.4582 194.427 85.3248 194.687 85.3248 195.02C85.3248 195.393 85.5115 195.68 85.8848 195.88C86.2582 196.067 86.8382 196.26 87.6248 196.46C88.4248 196.66 89.0848 196.867 89.6048 197.08C90.1248 197.293 90.5715 197.627 90.9448 198.08C91.3315 198.52 91.5315 199.107 91.5448 199.84C91.5448 200.48 91.3648 201.053 91.0048 201.56C90.6582 202.067 90.1515 202.467 89.4848 202.76C88.8315 203.04 88.0648 203.18 87.1848 203.18ZM92.3233 197.46C92.3233 196.313 92.5566 195.313 93.0233 194.46C93.4899 193.593 94.1366 192.927 94.9633 192.46C95.7899 191.98 96.7366 191.74 97.8033 191.74C99.1766 191.74 100.31 192.087 101.203 192.78C102.11 193.46 102.717 194.42 103.023 195.66H100.003C99.8433 195.18 99.5699 194.807 99.1833 194.54C98.8099 194.26 98.3433 194.12 97.7833 194.12C96.9833 194.12 96.3499 194.413 95.8833 195C95.4166 195.573 95.1833 196.393 95.1833 197.46C95.1833 198.513 95.4166 199.333 95.8833 199.92C96.3499 200.493 96.9833 200.78 97.7833 200.78C98.9166 200.78 99.6566 200.273 100.003 199.26H103.023C102.717 200.46 102.11 201.413 101.203 202.12C100.297 202.827 99.1633 203.18 97.8033 203.18C96.7366 203.18 95.7899 202.947 94.9633 202.48C94.1366 202 93.4899 201.333 93.0233 200.48C92.5566 199.613 92.3233 198.607 92.3233 197.46ZM107.075 193.64C107.435 193.053 107.901 192.593 108.475 192.26C109.061 191.927 109.728 191.76 110.475 191.76V194.7H109.735C108.855 194.7 108.188 194.907 107.735 195.32C107.295 195.733 107.075 196.453 107.075 197.48V203H104.275V191.92H107.075V193.64ZM112.98 190.6C112.487 190.6 112.074 190.447 111.74 190.14C111.42 189.82 111.26 189.427 111.26 188.96C111.26 188.493 111.42 188.107 111.74 187.8C112.074 187.48 112.487 187.32 112.98 187.32C113.474 187.32 113.88 187.48 114.2 187.8C114.534 188.107 114.7 188.493 114.7 188.96C114.7 189.427 114.534 189.82 114.2 190.14C113.88 190.447 113.474 190.6 112.98 190.6ZM114.36 191.92V203H111.56V191.92H114.36ZM119.127 193.52C119.487 193.013 119.98 192.593 120.607 192.26C121.247 191.913 121.974 191.74 122.787 191.74C123.734 191.74 124.587 191.973 125.347 192.44C126.12 192.907 126.727 193.573 127.167 194.44C127.62 195.293 127.847 196.287 127.847 197.42C127.847 198.553 127.62 199.56 127.167 200.44C126.727 201.307 126.12 201.98 125.347 202.46C124.587 202.94 123.734 203.18 122.787 203.18C121.974 203.18 121.254 203.013 120.627 202.68C120.014 202.347 119.514 201.927 119.127 201.42V208.28H116.327V191.92H119.127V193.52ZM124.987 197.42C124.987 196.753 124.847 196.18 124.567 195.7C124.3 195.207 123.94 194.833 123.487 194.58C123.047 194.327 122.567 194.2 122.047 194.2C121.54 194.2 121.06 194.333 120.607 194.6C120.167 194.853 119.807 195.227 119.527 195.72C119.26 196.213 119.127 196.793 119.127 197.46C119.127 198.127 119.26 198.707 119.527 199.2C119.807 199.693 120.167 200.073 120.607 200.34C121.06 200.593 121.54 200.72 122.047 200.72C122.567 200.72 123.047 200.587 123.487 200.32C123.94 200.053 124.3 199.673 124.567 199.18C124.847 198.687 124.987 198.1 124.987 197.42ZM132.342 194.22V199.58C132.342 199.953 132.428 200.227 132.602 200.4C132.788 200.56 133.095 200.64 133.522 200.64H134.822V203H133.062C130.702 203 129.522 201.853 129.522 199.56V194.22H128.202V191.92H129.522V189.18H132.342V191.92H134.822V194.22H132.342ZM137.455 190.6C136.962 190.6 136.549 190.447 136.215 190.14C135.895 189.82 135.735 189.427 135.735 188.96C135.735 188.493 135.895 188.107 136.215 187.8C136.549 187.48 136.962 187.32 137.455 187.32C137.949 187.32 138.355 187.48 138.675 187.8C139.009 188.107 139.175 188.493 139.175 188.96C139.175 189.427 139.009 189.82 138.675 190.14C138.355 190.447 137.949 190.6 137.455 190.6ZM138.835 191.92V203H136.035V191.92H138.835ZM145.722 203.18C144.655 203.18 143.695 202.947 142.842 202.48C141.989 202 141.315 201.327 140.822 200.46C140.342 199.593 140.102 198.593 140.102 197.46C140.102 196.327 140.349 195.327 140.842 194.46C141.349 193.593 142.035 192.927 142.902 192.46C143.769 191.98 144.735 191.74 145.802 191.74C146.869 191.74 147.835 191.98 148.702 192.46C149.569 192.927 150.249 193.593 150.742 194.46C151.249 195.327 151.502 196.327 151.502 197.46C151.502 198.593 151.242 199.593 150.722 200.46C150.215 201.327 149.522 202 148.642 202.48C147.775 202.947 146.802 203.18 145.722 203.18ZM145.722 200.74C146.229 200.74 146.702 200.62 147.142 200.38C147.595 200.127 147.955 199.753 148.222 199.26C148.489 198.767 148.622 198.167 148.622 197.46C148.622 196.407 148.342 195.6 147.782 195.04C147.235 194.467 146.562 194.18 145.762 194.18C144.962 194.18 144.289 194.467 143.742 195.04C143.209 195.6 142.942 196.407 142.942 197.46C142.942 198.513 143.202 199.327 143.722 199.9C144.255 200.46 144.922 200.74 145.722 200.74ZM158.896 191.76C160.216 191.76 161.282 192.18 162.096 193.02C162.909 193.847 163.316 195.007 163.316 196.5V203H160.516V196.88C160.516 196 160.296 195.327 159.856 194.86C159.416 194.38 158.816 194.14 158.056 194.14C157.282 194.14 156.669 194.38 156.216 194.86C155.776 195.327 155.556 196 155.556 196.88V203H152.756V191.92H155.556V193.3C155.929 192.82 156.402 192.447 156.976 192.18C157.562 191.9 158.202 191.76 158.896 191.76ZM181.684 189.04L176.564 203H173.164L168.044 189.04H171.044L174.884 200.14L178.704 189.04H181.684ZM181.843 197.42C181.843 196.3 182.063 195.307 182.503 194.44C182.956 193.573 183.563 192.907 184.323 192.44C185.096 191.973 185.956 191.74 186.903 191.74C187.729 191.74 188.449 191.907 189.063 192.24C189.689 192.573 190.189 192.993 190.563 193.5V191.92H193.383V203H190.563V201.38C190.203 201.9 189.703 202.333 189.063 202.68C188.436 203.013 187.709 203.18 186.883 203.18C185.949 203.18 185.096 202.94 184.323 202.46C183.563 201.98 182.956 201.307 182.503 200.44C182.063 199.56 181.843 198.553 181.843 197.42ZM190.563 197.46C190.563 196.78 190.429 196.2 190.163 195.72C189.896 195.227 189.536 194.853 189.083 194.6C188.629 194.333 188.143 194.2 187.623 194.2C187.103 194.2 186.623 194.327 186.183 194.58C185.743 194.833 185.383 195.207 185.103 195.7C184.836 196.18 184.703 196.753 184.703 197.42C184.703 198.087 184.836 198.673 185.103 199.18C185.383 199.673 185.743 200.053 186.183 200.32C186.636 200.587 187.116 200.72 187.623 200.72C188.143 200.72 188.629 200.593 189.083 200.34C189.536 200.073 189.896 199.7 190.163 199.22C190.429 198.727 190.563 198.14 190.563 197.46ZM198.118 188.2V203H195.318V188.2H198.118ZM210.544 191.92V203H207.724V201.6C207.364 202.08 206.891 202.46 206.304 202.74C205.731 203.007 205.104 203.14 204.424 203.14C203.557 203.14 202.791 202.96 202.124 202.6C201.457 202.227 200.931 201.687 200.544 200.98C200.171 200.26 199.984 199.407 199.984 198.42V191.92H202.784V198.02C202.784 198.9 203.004 199.58 203.444 200.06C203.884 200.527 204.484 200.76 205.244 200.76C206.017 200.76 206.624 200.527 207.064 200.06C207.504 199.58 207.724 198.9 207.724 198.02V191.92H210.544ZM222.807 197.22C222.807 197.62 222.78 197.98 222.727 198.3H214.627C214.693 199.1 214.973 199.727 215.467 200.18C215.96 200.633 216.567 200.86 217.287 200.86C218.327 200.86 219.067 200.413 219.507 199.52H222.527C222.207 200.587 221.593 201.467 220.687 202.16C219.78 202.84 218.667 203.18 217.347 203.18C216.28 203.18 215.32 202.947 214.467 202.48C213.627 202 212.967 201.327 212.487 200.46C212.02 199.593 211.787 198.593 211.787 197.46C211.787 196.313 212.02 195.307 212.487 194.44C212.953 193.573 213.607 192.907 214.447 192.44C215.287 191.973 216.253 191.74 217.347 191.74C218.4 191.74 219.34 191.967 220.167 192.42C221.007 192.873 221.653 193.52 222.107 194.36C222.573 195.187 222.807 196.14 222.807 197.22ZM219.907 196.42C219.893 195.7 219.633 195.127 219.127 194.7C218.62 194.26 218 194.04 217.267 194.04C216.573 194.04 215.987 194.253 215.507 194.68C215.04 195.093 214.753 195.673 214.647 196.42H219.907ZM232.856 206.94C231.563 205.687 230.556 204.087 229.836 202.14C229.129 200.193 228.776 198.107 228.776 195.88C228.776 193.6 229.149 191.46 229.896 189.46C230.643 187.447 231.729 185.8 233.156 184.52H235.976V184.78C234.509 186.18 233.389 187.86 232.616 189.82C231.856 191.78 231.476 193.8 231.476 195.88C231.476 197.907 231.836 199.867 232.556 201.76C233.289 203.64 234.329 205.273 235.676 206.66V206.94H232.856ZM241.743 203.14C240.77 203.14 239.89 202.973 239.103 202.64C238.33 202.307 237.716 201.827 237.263 201.2C236.81 200.573 236.576 199.833 236.563 198.98H239.563C239.603 199.553 239.803 200.007 240.163 200.34C240.536 200.673 241.043 200.84 241.683 200.84C242.336 200.84 242.85 200.687 243.223 200.38C243.596 200.06 243.783 199.647 243.783 199.14C243.783 198.727 243.656 198.387 243.403 198.12C243.15 197.853 242.83 197.647 242.443 197.5C242.07 197.34 241.55 197.167 240.883 196.98C239.976 196.713 239.236 196.453 238.663 196.2C238.103 195.933 237.616 195.54 237.203 195.02C236.803 194.487 236.603 193.78 236.603 192.9C236.603 192.073 236.81 191.353 237.223 190.74C237.636 190.127 238.216 189.66 238.963 189.34C239.71 189.007 240.563 188.84 241.523 188.84C242.963 188.84 244.13 189.193 245.023 189.9C245.93 190.593 246.43 191.567 246.523 192.82H243.443C243.416 192.34 243.21 191.947 242.823 191.64C242.45 191.32 241.95 191.16 241.323 191.16C240.776 191.16 240.336 191.3 240.003 191.58C239.683 191.86 239.523 192.267 239.523 192.8C239.523 193.173 239.643 193.487 239.883 193.74C240.136 193.98 240.443 194.18 240.803 194.34C241.176 194.487 241.696 194.66 242.363 194.86C243.27 195.127 244.01 195.393 244.583 195.66C245.156 195.927 245.65 196.327 246.063 196.86C246.476 197.393 246.683 198.093 246.683 198.96C246.683 199.707 246.49 200.4 246.103 201.04C245.716 201.68 245.15 202.193 244.403 202.58C243.656 202.953 242.77 203.14 241.743 203.14ZM260.85 189.04L255.73 203H252.33L247.21 189.04H250.21L254.05 200.14L257.87 189.04H260.85ZM261.009 206.94V206.66C262.356 205.273 263.389 203.64 264.109 201.76C264.843 199.867 265.209 197.907 265.209 195.88C265.209 193.8 264.823 191.78 264.049 189.82C263.289 187.86 262.176 186.18 260.709 184.78V184.52H263.529C264.956 185.8 266.043 187.447 266.789 189.46C267.536 191.46 267.909 193.6 267.909 195.88C267.909 198.107 267.549 200.193 266.829 202.14C266.123 204.087 265.123 205.687 263.829 206.94H261.009ZM271.876 203.14C271.37 203.14 270.95 202.987 270.616 202.68C270.296 202.36 270.136 201.967 270.136 201.5C270.136 201.033 270.296 200.647 270.616 200.34C270.95 200.02 271.37 199.86 271.876 199.86C272.37 199.86 272.776 200.02 273.096 200.34C273.416 200.647 273.576 201.033 273.576 201.5C273.576 201.967 273.416 202.36 273.096 202.68C272.776 202.987 272.37 203.14 271.876 203.14ZM271.876 194.86C271.37 194.86 270.95 194.707 270.616 194.4C270.296 194.08 270.136 193.687 270.136 193.22C270.136 192.753 270.296 192.367 270.616 192.06C270.95 191.74 271.37 191.58 271.876 191.58C272.37 191.58 272.776 191.74 273.096 192.06C273.416 192.367 273.576 192.753 273.576 193.22C273.576 193.687 273.416 194.08 273.096 194.4C272.776 194.707 272.37 194.86 271.876 194.86ZM278.436 190.2V188.54H282.196V203H280.356V190.2H278.436ZM293.742 190.12H286.722V194.68C287.029 194.253 287.482 193.907 288.082 193.64C288.682 193.36 289.329 193.22 290.022 193.22C291.129 193.22 292.029 193.453 292.722 193.92C293.415 194.373 293.909 194.967 294.202 195.7C294.509 196.42 294.662 197.187 294.662 198C294.662 198.96 294.482 199.82 294.122 200.58C293.762 201.34 293.209 201.94 292.462 202.38C291.729 202.82 290.815 203.04 289.722 203.04C288.322 203.04 287.189 202.68 286.322 201.96C285.455 201.24 284.929 200.28 284.742 199.08H286.522C286.695 199.84 287.062 200.433 287.622 200.86C288.182 201.287 288.889 201.5 289.742 201.5C290.795 201.5 291.589 201.187 292.122 200.56C292.655 199.92 292.922 199.08 292.922 198.04C292.922 197 292.655 196.2 292.122 195.64C291.589 195.067 290.802 194.78 289.762 194.78C289.055 194.78 288.435 194.953 287.902 195.3C287.382 195.633 287.002 196.093 286.762 196.68H285.042V188.52H293.742V190.12ZM296.281 195.62C296.281 193.327 296.654 191.54 297.401 190.26C298.147 188.967 299.454 188.32 301.321 188.32C303.174 188.32 304.474 188.967 305.221 190.26C305.967 191.54 306.341 193.327 306.341 195.62C306.341 197.953 305.967 199.767 305.221 201.06C304.474 202.353 303.174 203 301.321 203C299.454 203 298.147 202.353 297.401 201.06C296.654 199.767 296.281 197.953 296.281 195.62ZM304.541 195.62C304.541 194.46 304.461 193.48 304.301 192.68C304.154 191.867 303.841 191.213 303.361 190.72C302.894 190.227 302.214 189.98 301.321 189.98C300.414 189.98 299.721 190.227 299.241 190.72C298.774 191.213 298.461 191.867 298.301 192.68C298.154 193.48 298.081 194.46 298.081 195.62C298.081 196.82 298.154 197.827 298.301 198.64C298.461 199.453 298.774 200.107 299.241 200.6C299.721 201.093 300.414 201.34 301.321 201.34C302.214 201.34 302.894 201.093 303.361 200.6C303.841 200.107 304.154 199.453 304.301 198.64C304.461 197.827 304.541 196.82 304.541 195.62ZM317.291 203.14C316.371 203.14 315.545 202.98 314.811 202.66C314.091 202.327 313.525 201.873 313.111 201.3C312.698 200.713 312.485 200.04 312.471 199.28H314.411C314.478 199.933 314.745 200.487 315.211 200.94C315.691 201.38 316.385 201.6 317.291 201.6C318.158 201.6 318.838 201.387 319.331 200.96C319.838 200.52 320.091 199.96 320.091 199.28C320.091 198.747 319.945 198.313 319.651 197.98C319.358 197.647 318.991 197.393 318.551 197.22C318.111 197.047 317.518 196.86 316.771 196.66C315.851 196.42 315.111 196.18 314.551 195.94C314.005 195.7 313.531 195.327 313.131 194.82C312.745 194.3 312.551 193.607 312.551 192.74C312.551 191.98 312.745 191.307 313.131 190.72C313.518 190.133 314.058 189.68 314.751 189.36C315.458 189.04 316.265 188.88 317.171 188.88C318.478 188.88 319.545 189.207 320.371 189.86C321.211 190.513 321.685 191.38 321.791 192.46H319.791C319.725 191.927 319.445 191.46 318.951 191.06C318.458 190.647 317.805 190.44 316.991 190.44C316.231 190.44 315.611 190.64 315.131 191.04C314.651 191.427 314.411 191.973 314.411 192.68C314.411 193.187 314.551 193.6 314.831 193.92C315.125 194.24 315.478 194.487 315.891 194.66C316.318 194.82 316.911 195.007 317.671 195.22C318.591 195.473 319.331 195.727 319.891 195.98C320.451 196.22 320.931 196.6 321.331 197.12C321.731 197.627 321.931 198.32 321.931 199.2C321.931 199.88 321.751 200.52 321.391 201.12C321.031 201.72 320.498 202.207 319.791 202.58C319.085 202.953 318.251 203.14 317.291 203.14ZM335.33 189.06L330.07 203H327.97L322.71 189.06H324.65L329.03 201.08L333.41 189.06H335.33ZM61.6 239.04V253H58.8V243.92L55.06 253H52.94L49.18 243.92V253H46.38V239.04H49.56L54 249.42L58.44 239.04H61.6ZM62.8483 247.42C62.8483 246.3 63.0683 245.307 63.5083 244.44C63.9616 243.573 64.5683 242.907 65.3283 242.44C66.1016 241.973 66.9616 241.74 67.9083 241.74C68.7349 241.74 69.4549 241.907 70.0683 242.24C70.6949 242.573 71.1949 242.993 71.5683 243.5V241.92H74.3883V253H71.5683V251.38C71.2083 251.9 70.7083 252.333 70.0683 252.68C69.4416 253.013 68.7149 253.18 67.8883 253.18C66.9549 253.18 66.1016 252.94 65.3283 252.46C64.5683 251.98 63.9616 251.307 63.5083 250.44C63.0683 249.56 62.8483 248.553 62.8483 247.42ZM71.5683 247.46C71.5683 246.78 71.4349 246.2 71.1683 245.72C70.9016 245.227 70.5416 244.853 70.0883 244.6C69.6349 244.333 69.1483 244.2 68.6283 244.2C68.1083 244.2 67.6283 244.327 67.1883 244.58C66.7483 244.833 66.3883 245.207 66.1083 245.7C65.8416 246.18 65.7083 246.753 65.7083 247.42C65.7083 248.087 65.8416 248.673 66.1083 249.18C66.3883 249.673 66.7483 250.053 67.1883 250.32C67.6416 250.587 68.1216 250.72 68.6283 250.72C69.1483 250.72 69.6349 250.593 70.0883 250.34C70.5416 250.073 70.9016 249.7 71.1683 249.22C71.4349 248.727 71.5683 248.14 71.5683 247.46ZM82.443 253L80.163 249.56L78.143 253H75.143L78.763 247.44L75.103 241.92H78.263L80.523 245.34L82.563 241.92H85.563L81.923 247.44L85.603 253H82.443ZM87.7437 240.6C87.2504 240.6 86.8371 240.447 86.5037 240.14C86.1837 239.82 86.0237 239.427 86.0237 238.96C86.0237 238.493 86.1837 238.107 86.5037 237.8C86.8371 237.48 87.2504 237.32 87.7437 237.32C88.2371 237.32 88.6437 237.48 88.9637 237.8C89.2971 238.107 89.4637 238.493 89.4637 238.96C89.4637 239.427 89.2971 239.82 88.9637 240.14C88.6437 240.447 88.2371 240.6 87.7437 240.6ZM89.1237 241.92V253H86.3237V241.92H89.1237ZM104.85 241.76C106.21 241.76 107.303 242.18 108.13 243.02C108.97 243.847 109.39 245.007 109.39 246.5V253H106.59V246.88C106.59 246.013 106.37 245.353 105.93 244.9C105.49 244.433 104.89 244.2 104.13 244.2C103.37 244.2 102.763 244.433 102.31 244.9C101.87 245.353 101.65 246.013 101.65 246.88V253H98.8502V246.88C98.8502 246.013 98.6302 245.353 98.1902 244.9C97.7502 244.433 97.1502 244.2 96.3902 244.2C95.6168 244.2 95.0035 244.433 94.5502 244.9C94.1102 245.353 93.8902 246.013 93.8902 246.88V253H91.0902V241.92H93.8902V243.26C94.2502 242.793 94.7102 242.427 95.2702 242.16C95.8435 241.893 96.4702 241.76 97.1502 241.76C98.0168 241.76 98.7902 241.947 99.4702 242.32C100.15 242.68 100.677 243.2 101.05 243.88C101.41 243.24 101.93 242.727 102.61 242.34C103.303 241.953 104.05 241.76 104.85 241.76ZM121.707 241.92V253H118.887V251.6C118.527 252.08 118.054 252.46 117.467 252.74C116.894 253.007 116.267 253.14 115.587 253.14C114.721 253.14 113.954 252.96 113.287 252.6C112.621 252.227 112.094 251.687 111.707 250.98C111.334 250.26 111.147 249.407 111.147 248.42V241.92H113.947V248.02C113.947 248.9 114.167 249.58 114.607 250.06C115.047 250.527 115.647 250.76 116.407 250.76C117.181 250.76 117.787 250.527 118.227 250.06C118.667 249.58 118.887 248.9 118.887 248.02V241.92H121.707ZM137.43 241.76C138.79 241.76 139.883 242.18 140.71 243.02C141.55 243.847 141.97 245.007 141.97 246.5V253H139.17V246.88C139.17 246.013 138.95 245.353 138.51 244.9C138.07 244.433 137.47 244.2 136.71 244.2C135.95 244.2 135.343 244.433 134.89 244.9C134.45 245.353 134.23 246.013 134.23 246.88V253H131.43V246.88C131.43 246.013 131.21 245.353 130.77 244.9C130.33 244.433 129.73 244.2 128.97 244.2C128.197 244.2 127.583 244.433 127.13 244.9C126.69 245.353 126.47 246.013 126.47 246.88V253H123.67V241.92H126.47V243.26C126.83 242.793 127.29 242.427 127.85 242.16C128.423 241.893 129.05 241.76 129.73 241.76C130.597 241.76 131.37 241.947 132.05 242.32C132.73 242.68 133.257 243.2 133.63 243.88C133.99 243.24 134.51 242.727 135.19 242.34C135.883 241.953 136.63 241.76 137.43 241.76ZM157.292 239.04V241.3H153.572V253H150.772V241.3H147.052V239.04H157.292ZM161.335 243.64C161.695 243.053 162.162 242.593 162.735 242.26C163.322 241.927 163.989 241.76 164.735 241.76V244.7H163.995C163.115 244.7 162.449 244.907 161.995 245.32C161.555 245.733 161.335 246.453 161.335 247.48V253H158.535V241.92H161.335V243.64ZM165.101 247.42C165.101 246.3 165.321 245.307 165.761 244.44C166.215 243.573 166.821 242.907 167.581 242.44C168.355 241.973 169.215 241.74 170.161 241.74C170.988 241.74 171.708 241.907 172.321 242.24C172.948 242.573 173.448 242.993 173.821 243.5V241.92H176.641V253H173.821V251.38C173.461 251.9 172.961 252.333 172.321 252.68C171.695 253.013 170.968 253.18 170.141 253.18C169.208 253.18 168.355 252.94 167.581 252.46C166.821 251.98 166.215 251.307 165.761 250.44C165.321 249.56 165.101 248.553 165.101 247.42ZM173.821 247.46C173.821 246.78 173.688 246.2 173.421 245.72C173.155 245.227 172.795 244.853 172.341 244.6C171.888 244.333 171.401 244.2 170.881 244.2C170.361 244.2 169.881 244.327 169.441 244.58C169.001 244.833 168.641 245.207 168.361 245.7C168.095 246.18 167.961 246.753 167.961 247.42C167.961 248.087 168.095 248.673 168.361 249.18C168.641 249.673 169.001 250.053 169.441 250.32C169.895 250.587 170.375 250.72 170.881 250.72C171.401 250.72 171.888 250.593 172.341 250.34C172.795 250.073 173.155 249.7 173.421 249.22C173.688 248.727 173.821 248.14 173.821 247.46ZM177.856 247.42C177.856 246.3 178.076 245.307 178.516 244.44C178.969 243.573 179.583 242.907 180.356 242.44C181.129 241.973 181.989 241.74 182.936 241.74C183.656 241.74 184.343 241.9 184.996 242.22C185.649 242.527 186.169 242.94 186.556 243.46V238.2H189.396V253H186.556V251.36C186.209 251.907 185.723 252.347 185.096 252.68C184.469 253.013 183.743 253.18 182.916 253.18C181.983 253.18 181.129 252.94 180.356 252.46C179.583 251.98 178.969 251.307 178.516 250.44C178.076 249.56 177.856 248.553 177.856 247.42ZM186.576 247.46C186.576 246.78 186.443 246.2 186.176 245.72C185.909 245.227 185.549 244.853 185.096 244.6C184.643 244.333 184.156 244.2 183.636 244.2C183.116 244.2 182.636 244.327 182.196 244.58C181.756 244.833 181.396 245.207 181.116 245.7C180.849 246.18 180.716 246.753 180.716 247.42C180.716 248.087 180.849 248.673 181.116 249.18C181.396 249.673 181.756 250.053 182.196 250.32C182.649 250.587 183.129 250.72 183.636 250.72C184.156 250.72 184.643 250.593 185.096 250.34C185.549 250.073 185.909 249.7 186.176 249.22C186.443 248.727 186.576 248.14 186.576 247.46ZM201.631 247.22C201.631 247.62 201.604 247.98 201.551 248.3H193.451C193.517 249.1 193.797 249.727 194.291 250.18C194.784 250.633 195.391 250.86 196.111 250.86C197.151 250.86 197.891 250.413 198.331 249.52H201.351C201.031 250.587 200.417 251.467 199.511 252.16C198.604 252.84 197.491 253.18 196.171 253.18C195.104 253.18 194.144 252.947 193.291 252.48C192.451 252 191.791 251.327 191.311 250.46C190.844 249.593 190.611 248.593 190.611 247.46C190.611 246.313 190.844 245.307 191.311 244.44C191.777 243.573 192.431 242.907 193.271 242.44C194.111 241.973 195.077 241.74 196.171 241.74C197.224 241.74 198.164 241.967 198.991 242.42C199.831 242.873 200.477 243.52 200.931 244.36C201.397 245.187 201.631 246.14 201.631 247.22ZM198.731 246.42C198.717 245.7 198.457 245.127 197.951 244.7C197.444 244.26 196.824 244.04 196.091 244.04C195.397 244.04 194.811 244.253 194.331 244.68C193.864 245.093 193.577 245.673 193.471 246.42H198.731ZM204.115 253.14C203.608 253.14 203.188 252.987 202.855 252.68C202.535 252.36 202.375 251.967 202.375 251.5C202.375 251.033 202.535 250.647 202.855 250.34C203.188 250.02 203.608 249.86 204.115 249.86C204.608 249.86 205.015 250.02 205.335 250.34C205.655 250.647 205.815 251.033 205.815 251.5C205.815 251.967 205.655 252.36 205.335 252.68C205.015 252.987 204.608 253.14 204.115 253.14ZM204.115 244.86C203.608 244.86 203.188 244.707 202.855 244.4C202.535 244.08 202.375 243.687 202.375 243.22C202.375 242.753 202.535 242.367 202.855 242.06C203.188 241.74 203.608 241.58 204.115 241.58C204.608 241.58 205.015 241.74 205.335 242.06C205.655 242.367 205.815 242.753 205.815 243.22C205.815 243.687 205.655 244.08 205.335 244.4C205.015 244.707 204.608 244.86 204.115 244.86ZM221.02 249.18C221.02 249.82 220.86 250.433 220.54 251.02C220.22 251.593 219.747 252.073 219.12 252.46C218.507 252.847 217.767 253.067 216.9 253.12V254.74H215.82V253.12C214.607 253.013 213.62 252.627 212.86 251.96C212.1 251.28 211.714 250.42 211.7 249.38H213.64C213.694 249.94 213.9 250.427 214.26 250.84C214.634 251.253 215.154 251.513 215.82 251.62V246.62C214.927 246.393 214.207 246.16 213.66 245.92C213.114 245.68 212.647 245.307 212.26 244.8C211.874 244.293 211.68 243.613 211.68 242.76C211.68 241.68 212.054 240.787 212.8 240.08C213.56 239.373 214.567 238.98 215.82 238.9V237.24H216.9V238.9C218.034 238.993 218.947 239.36 219.64 240C220.334 240.627 220.734 241.447 220.84 242.46H218.9C218.834 241.993 218.627 241.573 218.28 241.2C217.934 240.813 217.474 240.56 216.9 240.44V245.32C217.78 245.547 218.494 245.78 219.04 246.02C219.6 246.247 220.067 246.613 220.44 247.12C220.827 247.627 221.02 248.313 221.02 249.18ZM213.54 242.66C213.54 243.313 213.734 243.813 214.12 244.16C214.507 244.507 215.074 244.793 215.82 245.02V240.4C215.127 240.467 214.574 240.693 214.16 241.08C213.747 241.453 213.54 241.98 213.54 242.66ZM216.9 251.64C217.62 251.56 218.18 251.3 218.58 250.86C218.994 250.42 219.2 249.893 219.2 249.28C219.2 248.627 219 248.127 218.6 247.78C218.2 247.42 217.634 247.133 216.9 246.92V251.64ZM222.882 240.2V238.54H226.642V253H224.802V240.2H222.882ZM228.968 245.62C228.968 243.327 229.341 241.54 230.088 240.26C230.835 238.967 232.141 238.32 234.008 238.32C235.861 238.32 237.161 238.967 237.908 240.26C238.655 241.54 239.028 243.327 239.028 245.62C239.028 247.953 238.655 249.767 237.908 251.06C237.161 252.353 235.861 253 234.008 253C232.141 253 230.835 252.353 230.088 251.06C229.341 249.767 228.968 247.953 228.968 245.62ZM237.228 245.62C237.228 244.46 237.148 243.48 236.988 242.68C236.841 241.867 236.528 241.213 236.048 240.72C235.581 240.227 234.901 239.98 234.008 239.98C233.101 239.98 232.408 240.227 231.928 240.72C231.461 241.213 231.148 241.867 230.988 242.68C230.841 243.48 230.768 244.46 230.768 245.62C230.768 246.82 230.841 247.827 230.988 248.64C231.148 249.453 231.461 250.107 231.928 250.6C232.408 251.093 233.101 251.34 234.008 251.34C234.901 251.34 235.581 251.093 236.048 250.6C236.528 250.107 236.841 249.453 236.988 248.64C237.148 247.827 237.228 246.82 237.228 245.62ZM242.907 250.48L240.667 255.86H239.447L240.907 250.48H242.907ZM243.892 245.62C243.892 243.327 244.265 241.54 245.012 240.26C245.758 238.967 247.065 238.32 248.932 238.32C250.785 238.32 252.085 238.967 252.832 240.26C253.578 241.54 253.952 243.327 253.952 245.62C253.952 247.953 253.578 249.767 252.832 251.06C252.085 252.353 250.785 253 248.932 253C247.065 253 245.758 252.353 245.012 251.06C244.265 249.767 243.892 247.953 243.892 245.62ZM252.152 245.62C252.152 244.46 252.072 243.48 251.912 242.68C251.765 241.867 251.452 241.213 250.972 240.72C250.505 240.227 249.825 239.98 248.932 239.98C248.025 239.98 247.332 240.227 246.852 240.72C246.385 241.213 246.072 241.867 245.912 242.68C245.765 243.48 245.692 244.46 245.692 245.62C245.692 246.82 245.765 247.827 245.912 248.64C246.072 249.453 246.385 250.107 246.852 250.6C247.332 251.093 248.025 251.34 248.932 251.34C249.825 251.34 250.505 251.093 250.972 250.6C251.452 250.107 251.765 249.453 251.912 248.64C252.072 247.827 252.152 246.82 252.152 245.62ZM255.65 245.62C255.65 243.327 256.023 241.54 256.77 240.26C257.517 238.967 258.823 238.32 260.69 238.32C262.543 238.32 263.843 238.967 264.59 240.26C265.337 241.54 265.71 243.327 265.71 245.62C265.71 247.953 265.337 249.767 264.59 251.06C263.843 252.353 262.543 253 260.69 253C258.823 253 257.517 252.353 256.77 251.06C256.023 249.767 255.65 247.953 255.65 245.62ZM263.91 245.62C263.91 244.46 263.83 243.48 263.67 242.68C263.523 241.867 263.21 241.213 262.73 240.72C262.263 240.227 261.583 239.98 260.69 239.98C259.783 239.98 259.09 240.227 258.61 240.72C258.143 241.213 257.83 241.867 257.67 242.68C257.523 243.48 257.45 244.46 257.45 245.62C257.45 246.82 257.523 247.827 257.67 248.64C257.83 249.453 258.143 250.107 258.61 250.6C259.09 251.093 259.783 251.34 260.69 251.34C261.583 251.34 262.263 251.093 262.73 250.6C263.21 250.107 263.523 249.453 263.67 248.64C263.83 247.827 263.91 246.82 263.91 245.62ZM267.409 245.62C267.409 243.327 267.782 241.54 268.529 240.26C269.275 238.967 270.582 238.32 272.449 238.32C274.302 238.32 275.602 238.967 276.349 240.26C277.095 241.54 277.469 243.327 277.469 245.62C277.469 247.953 277.095 249.767 276.349 251.06C275.602 252.353 274.302 253 272.449 253C270.582 253 269.275 252.353 268.529 251.06C267.782 249.767 267.409 247.953 267.409 245.62ZM275.669 245.62C275.669 244.46 275.589 243.48 275.429 242.68C275.282 241.867 274.969 241.213 274.489 240.72C274.022 240.227 273.342 239.98 272.449 239.98C271.542 239.98 270.849 240.227 270.369 240.72C269.902 241.213 269.589 241.867 269.429 242.68C269.282 243.48 269.209 244.46 269.209 245.62C269.209 246.82 269.282 247.827 269.429 248.64C269.589 249.453 269.902 250.107 270.369 250.6C270.849 251.093 271.542 251.34 272.449 251.34C273.342 251.34 274.022 251.093 274.489 250.6C274.969 250.107 275.282 249.453 275.429 248.64C275.589 247.827 275.669 246.82 275.669 245.62ZM53.58 303L50.5 297.56H49.18V303H46.38V289.04H51.62C52.7 289.04 53.62 289.233 54.38 289.62C55.14 289.993 55.7067 290.507 56.08 291.16C56.4667 291.8 56.66 292.52 56.66 293.32C56.66 294.24 56.3933 295.073 55.86 295.82C55.3267 296.553 54.5333 297.06 53.48 297.34L56.82 303H53.58ZM49.18 295.46H51.52C52.28 295.46 52.8467 295.28 53.22 294.92C53.5933 294.547 53.78 294.033 53.78 293.38C53.78 292.74 53.5933 292.247 53.22 291.9C52.8467 291.54 52.28 291.36 51.52 291.36H49.18V295.46ZM68.6925 297.22C68.6925 297.62 68.6658 297.98 68.6125 298.3H60.5125C60.5792 299.1 60.8592 299.727 61.3525 300.18C61.8458 300.633 62.4525 300.86 63.1725 300.86C64.2125 300.86 64.9525 300.413 65.3925 299.52H68.4125C68.0925 300.587 67.4792 301.467 66.5725 302.16C65.6658 302.84 64.5525 303.18 63.2325 303.18C62.1658 303.18 61.2058 302.947 60.3525 302.48C59.5125 302 58.8525 301.327 58.3725 300.46C57.9058 299.593 57.6725 298.593 57.6725 297.46C57.6725 296.313 57.9058 295.307 58.3725 294.44C58.8392 293.573 59.4925 292.907 60.3325 292.44C61.1725 291.973 62.1392 291.74 63.2325 291.74C64.2858 291.74 65.2258 291.967 66.0525 292.42C66.8925 292.873 67.5392 293.52 67.9925 294.36C68.4592 295.187 68.6925 296.14 68.6925 297.22ZM65.7925 296.42C65.7792 295.7 65.5192 295.127 65.0125 294.7C64.5058 294.26 63.8858 294.04 63.1525 294.04C62.4592 294.04 61.8725 294.253 61.3925 294.68C60.9258 295.093 60.6392 295.673 60.5325 296.42H65.7925ZM75.0162 294.22H73.0762V303H70.2362V294.22H68.9762V291.92H70.2362V291.36C70.2362 290 70.6229 289 71.3962 288.36C72.1696 287.72 73.3362 287.42 74.8962 287.46V289.82C74.2162 289.807 73.7429 289.92 73.4762 290.16C73.2096 290.4 73.0762 290.833 73.0762 291.46V291.92H75.0162V294.22ZM81.1108 294.22H79.1708V303H76.3308V294.22H75.0708V291.92H76.3308V291.36C76.3308 290 76.7174 289 77.4908 288.36C78.2641 287.72 79.4308 287.42 80.9908 287.46V289.82C80.3108 289.807 79.8374 289.92 79.5708 290.16C79.3041 290.4 79.1708 290.833 79.1708 291.46V291.92H81.1108V294.22ZM92.4253 297.22C92.4253 297.62 92.3986 297.98 92.3453 298.3H84.2453C84.312 299.1 84.592 299.727 85.0853 300.18C85.5786 300.633 86.1853 300.86 86.9053 300.86C87.9453 300.86 88.6853 300.413 89.1253 299.52H92.1453C91.8253 300.587 91.212 301.467 90.3053 302.16C89.3986 302.84 88.2853 303.18 86.9653 303.18C85.8986 303.18 84.9386 302.947 84.0853 302.48C83.2453 302 82.5853 301.327 82.1053 300.46C81.6386 299.593 81.4053 298.593 81.4053 297.46C81.4053 296.313 81.6386 295.307 82.1053 294.44C82.572 293.573 83.2253 292.907 84.0653 292.44C84.9053 291.973 85.872 291.74 86.9653 291.74C88.0186 291.74 88.9586 291.967 89.7853 292.42C90.6253 292.873 91.272 293.52 91.7253 294.36C92.192 295.187 92.4253 296.14 92.4253 297.22ZM89.5253 296.42C89.512 295.7 89.252 295.127 88.7453 294.7C88.2386 294.26 87.6186 294.04 86.8853 294.04C86.192 294.04 85.6053 294.253 85.1253 294.68C84.6586 295.093 84.372 295.673 84.2653 296.42H89.5253ZM96.4691 293.64C96.8291 293.053 97.2957 292.593 97.8691 292.26C98.4557 291.927 99.1224 291.76 99.8691 291.76V294.7H99.1291C98.2491 294.7 97.5824 294.907 97.1291 295.32C96.6891 295.733 96.4691 296.453 96.4691 297.48V303H93.6691V291.92H96.4691V293.64ZM100.235 297.42C100.235 296.3 100.455 295.307 100.895 294.44C101.348 293.573 101.955 292.907 102.715 292.44C103.488 291.973 104.348 291.74 105.295 291.74C106.122 291.74 106.842 291.907 107.455 292.24C108.082 292.573 108.582 292.993 108.955 293.5V291.92H111.775V303H108.955V301.38C108.595 301.9 108.095 302.333 107.455 302.68C106.828 303.013 106.102 303.18 105.275 303.18C104.342 303.18 103.488 302.94 102.715 302.46C101.955 301.98 101.348 301.307 100.895 300.44C100.455 299.56 100.235 298.553 100.235 297.42ZM108.955 297.46C108.955 296.78 108.822 296.2 108.555 295.72C108.288 295.227 107.928 294.853 107.475 294.6C107.022 294.333 106.535 294.2 106.015 294.2C105.495 294.2 105.015 294.327 104.575 294.58C104.135 294.833 103.775 295.207 103.495 295.7C103.228 296.18 103.095 296.753 103.095 297.42C103.095 298.087 103.228 298.673 103.495 299.18C103.775 299.673 104.135 300.053 104.575 300.32C105.028 300.587 105.508 300.72 106.015 300.72C106.535 300.72 107.022 300.593 107.475 300.34C107.928 300.073 108.288 299.7 108.555 299.22C108.822 298.727 108.955 298.14 108.955 297.46ZM116.51 288.2V303H113.71V288.2H116.51ZM130.362 295.84C131.148 295.987 131.795 296.38 132.302 297.02C132.808 297.66 133.062 298.393 133.062 299.22C133.062 299.967 132.875 300.627 132.502 301.2C132.142 301.76 131.615 302.2 130.922 302.52C130.228 302.84 129.408 303 128.462 303H122.442V289.04H128.202C129.148 289.04 129.962 289.193 130.642 289.5C131.335 289.807 131.855 290.233 132.202 290.78C132.562 291.327 132.742 291.947 132.742 292.64C132.742 293.453 132.522 294.133 132.082 294.68C131.655 295.227 131.082 295.613 130.362 295.84ZM125.242 294.8H127.802C128.468 294.8 128.982 294.653 129.342 294.36C129.702 294.053 129.882 293.62 129.882 293.06C129.882 292.5 129.702 292.067 129.342 291.76C128.982 291.453 128.468 291.3 127.802 291.3H125.242V294.8ZM128.062 300.72C128.742 300.72 129.268 300.56 129.642 300.24C130.028 299.92 130.222 299.467 130.222 298.88C130.222 298.28 130.022 297.813 129.622 297.48C129.222 297.133 128.682 296.96 128.002 296.96H125.242V300.72H128.062ZM139.413 303.18C138.347 303.18 137.387 302.947 136.533 302.48C135.68 302 135.007 301.327 134.513 300.46C134.033 299.593 133.793 298.593 133.793 297.46C133.793 296.327 134.04 295.327 134.533 294.46C135.04 293.593 135.727 292.927 136.593 292.46C137.46 291.98 138.427 291.74 139.493 291.74C140.56 291.74 141.527 291.98 142.393 292.46C143.26 292.927 143.94 293.593 144.433 294.46C144.94 295.327 145.193 296.327 145.193 297.46C145.193 298.593 144.933 299.593 144.413 300.46C143.907 301.327 143.213 302 142.333 302.48C141.467 302.947 140.493 303.18 139.413 303.18ZM139.413 300.74C139.92 300.74 140.393 300.62 140.833 300.38C141.287 300.127 141.647 299.753 141.913 299.26C142.18 298.767 142.313 298.167 142.313 297.46C142.313 296.407 142.033 295.6 141.473 295.04C140.927 294.467 140.253 294.18 139.453 294.18C138.653 294.18 137.98 294.467 137.433 295.04C136.9 295.6 136.633 296.407 136.633 297.46C136.633 298.513 136.893 299.327 137.413 299.9C137.947 300.46 138.613 300.74 139.413 300.74ZM152.587 291.76C153.907 291.76 154.974 292.18 155.787 293.02C156.601 293.847 157.007 295.007 157.007 296.5V303H154.207V296.88C154.207 296 153.987 295.327 153.547 294.86C153.107 294.38 152.507 294.14 151.747 294.14C150.974 294.14 150.361 294.38 149.907 294.86C149.467 295.327 149.247 296 149.247 296.88V303H146.447V291.92H149.247V293.3C149.621 292.82 150.094 292.447 150.667 292.18C151.254 291.9 151.894 291.76 152.587 291.76ZM169.33 291.92V303H166.51V301.6C166.15 302.08 165.677 302.46 165.09 302.74C164.517 303.007 163.89 303.14 163.21 303.14C162.343 303.14 161.577 302.96 160.91 302.6C160.243 302.227 159.717 301.687 159.33 300.98C158.957 300.26 158.77 299.407 158.77 298.42V291.92H161.57V298.02C161.57 298.9 161.79 299.58 162.23 300.06C162.67 300.527 163.27 300.76 164.03 300.76C164.803 300.76 165.41 300.527 165.85 300.06C166.29 299.58 166.51 298.9 166.51 298.02V291.92H169.33ZM175.532 303.18C174.626 303.18 173.812 303.02 173.092 302.7C172.372 302.367 171.799 301.92 171.372 301.36C170.959 300.8 170.732 300.18 170.692 299.5H173.512C173.566 299.927 173.772 300.28 174.132 300.56C174.506 300.84 174.966 300.98 175.512 300.98C176.046 300.98 176.459 300.873 176.752 300.66C177.059 300.447 177.212 300.173 177.212 299.84C177.212 299.48 177.026 299.213 176.652 299.04C176.292 298.853 175.712 298.653 174.912 298.44C174.086 298.24 173.406 298.033 172.872 297.82C172.352 297.607 171.899 297.28 171.512 296.84C171.139 296.4 170.952 295.807 170.952 295.06C170.952 294.447 171.126 293.887 171.472 293.38C171.832 292.873 172.339 292.473 172.992 292.18C173.659 291.887 174.439 291.74 175.332 291.74C176.652 291.74 177.706 292.073 178.492 292.74C179.279 293.393 179.712 294.28 179.792 295.4H177.112C177.072 294.96 176.886 294.613 176.552 294.36C176.232 294.093 175.799 293.96 175.252 293.96C174.746 293.96 174.352 294.053 174.072 294.24C173.806 294.427 173.672 294.687 173.672 295.02C173.672 295.393 173.859 295.68 174.232 295.88C174.606 296.067 175.186 296.26 175.972 296.46C176.772 296.66 177.432 296.867 177.952 297.08C178.472 297.293 178.919 297.627 179.292 298.08C179.679 298.52 179.879 299.107 179.892 299.84C179.892 300.48 179.712 301.053 179.352 301.56C179.006 302.067 178.499 302.467 177.832 302.76C177.179 303.04 176.412 303.18 175.532 303.18ZM182.631 303.14C182.124 303.14 181.704 302.987 181.371 302.68C181.051 302.36 180.891 301.967 180.891 301.5C180.891 301.033 181.051 300.647 181.371 300.34C181.704 300.02 182.124 299.86 182.631 299.86C183.124 299.86 183.531 300.02 183.851 300.34C184.171 300.647 184.331 301.033 184.331 301.5C184.331 301.967 184.171 302.36 183.851 302.68C183.531 302.987 183.124 303.14 182.631 303.14ZM182.631 294.86C182.124 294.86 181.704 294.707 181.371 294.4C181.051 294.08 180.891 293.687 180.891 293.22C180.891 292.753 181.051 292.367 181.371 292.06C181.704 291.74 182.124 291.58 182.631 291.58C183.124 291.58 183.531 291.74 183.851 292.06C184.171 292.367 184.331 292.753 184.331 293.22C184.331 293.687 184.171 294.08 183.851 294.4C183.531 294.707 183.124 294.86 182.631 294.86ZM189.45 301.54C191.144 300.18 192.47 299.067 193.43 298.2C194.39 297.32 195.197 296.407 195.85 295.46C196.517 294.5 196.85 293.56 196.85 292.64C196.85 291.773 196.637 291.093 196.21 290.6C195.797 290.093 195.124 289.84 194.19 289.84C193.284 289.84 192.577 290.127 192.07 290.7C191.577 291.26 191.31 292.013 191.27 292.96H189.51C189.564 291.467 190.017 290.313 190.87 289.5C191.724 288.687 192.824 288.28 194.17 288.28C195.544 288.28 196.63 288.66 197.43 289.42C198.244 290.18 198.65 291.227 198.65 292.56C198.65 293.667 198.317 294.747 197.65 295.8C196.997 296.84 196.25 297.76 195.41 298.56C194.57 299.347 193.497 300.267 192.19 301.32H199.07V302.84H189.45V301.54ZM200.374 295.62C200.374 293.327 200.748 291.54 201.494 290.26C202.241 288.967 203.548 288.32 205.414 288.32C207.268 288.32 208.568 288.967 209.314 290.26C210.061 291.54 210.434 293.327 210.434 295.62C210.434 297.953 210.061 299.767 209.314 301.06C208.568 302.353 207.268 303 205.414 303C203.548 303 202.241 302.353 201.494 301.06C200.748 299.767 200.374 297.953 200.374 295.62ZM208.634 295.62C208.634 294.46 208.554 293.48 208.394 292.68C208.248 291.867 207.934 291.213 207.454 290.72C206.988 290.227 206.308 289.98 205.414 289.98C204.508 289.98 203.814 290.227 203.334 290.72C202.868 291.213 202.554 291.867 202.394 292.68C202.248 293.48 202.174 294.46 202.174 295.62C202.174 296.82 202.248 297.827 202.394 298.64C202.554 299.453 202.868 300.107 203.334 300.6C203.814 301.093 204.508 301.34 205.414 301.34C206.308 301.34 206.988 301.093 207.454 300.6C207.934 300.107 208.248 299.453 208.394 298.64C208.554 297.827 208.634 296.82 208.634 295.62ZM211.733 291.8C211.733 290.893 212.006 290.173 212.553 289.64C213.1 289.093 213.8 288.82 214.653 288.82C215.506 288.82 216.206 289.093 216.753 289.64C217.3 290.173 217.573 290.893 217.573 291.8C217.573 292.72 217.3 293.453 216.753 294C216.206 294.533 215.506 294.8 214.653 294.8C213.8 294.8 213.1 294.533 212.553 294C212.006 293.453 211.733 292.72 211.733 291.8ZM223.413 289.04L215.313 303H213.513L221.613 289.04H223.413ZM214.653 289.94C214.2 289.94 213.84 290.1 213.573 290.42C213.32 290.727 213.193 291.187 213.193 291.8C213.193 292.413 213.32 292.88 213.573 293.2C213.84 293.52 214.2 293.68 214.653 293.68C215.106 293.68 215.466 293.52 215.733 293.2C216 292.867 216.133 292.4 216.133 291.8C216.133 291.187 216 290.727 215.733 290.42C215.466 290.1 215.106 289.94 214.653 289.94ZM219.393 300.24C219.393 299.32 219.666 298.593 220.213 298.06C220.76 297.513 221.46 297.24 222.313 297.24C223.166 297.24 223.86 297.513 224.393 298.06C224.94 298.593 225.213 299.32 225.213 300.24C225.213 301.147 224.94 301.873 224.393 302.42C223.86 302.967 223.166 303.24 222.313 303.24C221.46 303.24 220.76 302.973 220.213 302.44C219.666 301.893 219.393 301.16 219.393 300.24ZM222.293 298.38C221.84 298.38 221.48 298.54 221.213 298.86C220.946 299.167 220.813 299.627 220.813 300.24C220.813 300.84 220.946 301.3 221.213 301.62C221.48 301.927 221.84 302.08 222.293 302.08C222.746 302.08 223.106 301.927 223.373 301.62C223.64 301.3 223.773 300.84 223.773 300.24C223.773 299.627 223.64 299.167 223.373 298.86C223.106 298.54 222.746 298.38 222.293 298.38ZM65.04 339.04L61.14 353H57.84L55.22 343.06L52.48 353L49.2 353.02L45.44 339.04H48.44L50.9 349.88L53.74 339.04H56.86L59.54 349.82L62.02 339.04H65.04ZM76.3683 347.22C76.3683 347.62 76.3416 347.98 76.2883 348.3H68.1883C68.2549 349.1 68.5349 349.727 69.0283 350.18C69.5216 350.633 70.1283 350.86 70.8483 350.86C71.8883 350.86 72.6283 350.413 73.0683 349.52H76.0883C75.7683 350.587 75.1549 351.467 74.2483 352.16C73.3416 352.84 72.2283 353.18 70.9083 353.18C69.8416 353.18 68.8816 352.947 68.0283 352.48C67.1883 352 66.5283 351.327 66.0483 350.46C65.5816 349.593 65.3483 348.593 65.3483 347.46C65.3483 346.313 65.5816 345.307 66.0483 344.44C66.5149 343.573 67.1683 342.907 68.0083 342.44C68.8483 341.973 69.8149 341.74 70.9083 341.74C71.9616 341.74 72.9016 341.967 73.7283 342.42C74.5683 342.873 75.2149 343.52 75.6683 344.36C76.1349 345.187 76.3683 346.14 76.3683 347.22ZM73.4683 346.42C73.4549 345.7 73.1949 345.127 72.6883 344.7C72.1816 344.26 71.5616 344.04 70.8283 344.04C70.1349 344.04 69.5483 344.253 69.0683 344.68C68.6016 345.093 68.3149 345.673 68.2083 346.42H73.4683ZM87.912 347.22C87.912 347.62 87.8854 347.98 87.832 348.3H79.732C79.7987 349.1 80.0787 349.727 80.572 350.18C81.0654 350.633 81.672 350.86 82.392 350.86C83.432 350.86 84.172 350.413 84.612 349.52H87.632C87.312 350.587 86.6987 351.467 85.792 352.16C84.8854 352.84 83.772 353.18 82.452 353.18C81.3854 353.18 80.4254 352.947 79.572 352.48C78.732 352 78.072 351.327 77.592 350.46C77.1254 349.593 76.892 348.593 76.892 347.46C76.892 346.313 77.1254 345.307 77.592 344.44C78.0587 343.573 78.712 342.907 79.552 342.44C80.392 341.973 81.3587 341.74 82.452 341.74C83.5054 341.74 84.4454 341.967 85.272 342.42C86.112 342.873 86.7587 343.52 87.212 344.36C87.6787 345.187 87.912 346.14 87.912 347.22ZM85.012 346.42C84.9987 345.7 84.7387 345.127 84.232 344.7C83.7254 344.26 83.1054 344.04 82.372 344.04C81.6787 344.04 81.092 344.253 80.612 344.68C80.1454 345.093 79.8587 345.673 79.752 346.42H85.012ZM95.7158 353L91.9558 348.28V353H89.1558V338.2H91.9558V346.62L95.6758 341.92H99.3158L94.4358 347.48L99.3558 353H95.7158ZM102.835 338.2V353H100.035V338.2H102.835ZM115.402 341.92L108.542 358.24H105.562L107.962 352.72L103.522 341.92H106.662L109.522 349.66L112.422 341.92H115.402ZM127.997 345.84C128.784 345.987 129.43 346.38 129.937 347.02C130.444 347.66 130.697 348.393 130.697 349.22C130.697 349.967 130.51 350.627 130.137 351.2C129.777 351.76 129.25 352.2 128.557 352.52C127.864 352.84 127.044 353 126.097 353H120.077V339.04H125.837C126.784 339.04 127.597 339.193 128.277 339.5C128.97 339.807 129.49 340.233 129.837 340.78C130.197 341.327 130.377 341.947 130.377 342.64C130.377 343.453 130.157 344.133 129.717 344.68C129.29 345.227 128.717 345.613 127.997 345.84ZM122.877 344.8H125.437C126.104 344.8 126.617 344.653 126.977 344.36C127.337 344.053 127.517 343.62 127.517 343.06C127.517 342.5 127.337 342.067 126.977 341.76C126.617 341.453 126.104 341.3 125.437 341.3H122.877V344.8ZM125.697 350.72C126.377 350.72 126.904 350.56 127.277 350.24C127.664 349.92 127.857 349.467 127.857 348.88C127.857 348.28 127.657 347.813 127.257 347.48C126.857 347.133 126.317 346.96 125.637 346.96H122.877V350.72H125.697ZM133.548 340.6C133.055 340.6 132.642 340.447 132.308 340.14C131.988 339.82 131.828 339.427 131.828 338.96C131.828 338.493 131.988 338.107 132.308 337.8C132.642 337.48 133.055 337.32 133.548 337.32C134.042 337.32 134.448 337.48 134.768 337.8C135.102 338.107 135.268 338.493 135.268 338.96C135.268 339.427 135.102 339.82 134.768 340.14C134.448 340.447 134.042 340.6 133.548 340.6ZM134.928 341.92V353H132.128V341.92H134.928ZM143.035 341.76C144.355 341.76 145.422 342.18 146.235 343.02C147.048 343.847 147.455 345.007 147.455 346.5V353H144.655V346.88C144.655 346 144.435 345.327 143.995 344.86C143.555 344.38 142.955 344.14 142.195 344.14C141.422 344.14 140.808 344.38 140.355 344.86C139.915 345.327 139.695 346 139.695 346.88V353H136.895V341.92H139.695V343.3C140.068 342.82 140.542 342.447 141.115 342.18C141.702 341.9 142.342 341.76 143.035 341.76ZM148.597 347.42C148.597 346.3 148.817 345.307 149.257 344.44C149.711 343.573 150.318 342.907 151.078 342.44C151.851 341.973 152.711 341.74 153.658 341.74C154.484 341.74 155.204 341.907 155.818 342.24C156.444 342.573 156.944 342.993 157.318 343.5V341.92H160.138V353H157.318V351.38C156.958 351.9 156.458 352.333 155.818 352.68C155.191 353.013 154.464 353.18 153.638 353.18C152.704 353.18 151.851 352.94 151.078 352.46C150.318 351.98 149.711 351.307 149.257 350.44C148.817 349.56 148.597 348.553 148.597 347.42ZM157.318 347.46C157.318 346.78 157.184 346.2 156.918 345.72C156.651 345.227 156.291 344.853 155.838 344.6C155.384 344.333 154.898 344.2 154.378 344.2C153.858 344.2 153.378 344.327 152.938 344.58C152.498 344.833 152.138 345.207 151.858 345.7C151.591 346.18 151.458 346.753 151.458 347.42C151.458 348.087 151.591 348.673 151.858 349.18C152.138 349.673 152.498 350.053 152.938 350.32C153.391 350.587 153.871 350.72 154.378 350.72C154.898 350.72 155.384 350.593 155.838 350.34C156.291 350.073 156.651 349.7 156.918 349.22C157.184 348.727 157.318 348.14 157.318 347.46ZM164.872 343.64C165.232 343.053 165.699 342.593 166.272 342.26C166.859 341.927 167.526 341.76 168.272 341.76V344.7H167.532C166.652 344.7 165.986 344.907 165.532 345.32C165.092 345.733 164.872 346.453 164.872 347.48V353H162.072V341.92H164.872V343.64ZM179.958 341.92L173.098 358.24H170.118L172.518 352.72L168.078 341.92H171.218L174.078 349.66L176.978 341.92H179.958ZM183.913 347.46C183.913 346.313 184.146 345.313 184.613 344.46C185.08 343.593 185.726 342.927 186.553 342.46C187.38 341.98 188.326 341.74 189.393 341.74C190.766 341.74 191.9 342.087 192.793 342.78C193.7 343.46 194.306 344.42 194.613 345.66H191.593C191.433 345.18 191.16 344.807 190.773 344.54C190.4 344.26 189.933 344.12 189.373 344.12C188.573 344.12 187.94 344.413 187.473 345C187.006 345.573 186.773 346.393 186.773 347.46C186.773 348.513 187.006 349.333 187.473 349.92C187.94 350.493 188.573 350.78 189.373 350.78C190.506 350.78 191.246 350.273 191.593 349.26H194.613C194.306 350.46 193.7 351.413 192.793 352.12C191.886 352.827 190.753 353.18 189.393 353.18C188.326 353.18 187.38 352.947 186.553 352.48C185.726 352 185.08 351.333 184.613 350.48C184.146 349.613 183.913 348.607 183.913 347.46ZM195.144 347.42C195.144 346.3 195.364 345.307 195.804 344.44C196.258 343.573 196.864 342.907 197.624 342.44C198.398 341.973 199.258 341.74 200.204 341.74C201.031 341.74 201.751 341.907 202.364 342.24C202.991 342.573 203.491 342.993 203.864 343.5V341.92H206.684V353H203.864V351.38C203.504 351.9 203.004 352.333 202.364 352.68C201.738 353.013 201.011 353.18 200.184 353.18C199.251 353.18 198.398 352.94 197.624 352.46C196.864 351.98 196.258 351.307 195.804 350.44C195.364 349.56 195.144 348.553 195.144 347.42ZM203.864 347.46C203.864 346.78 203.731 346.2 203.464 345.72C203.198 345.227 202.838 344.853 202.384 344.6C201.931 344.333 201.444 344.2 200.924 344.2C200.404 344.2 199.924 344.327 199.484 344.58C199.044 344.833 198.684 345.207 198.404 345.7C198.138 346.18 198.004 346.753 198.004 347.42C198.004 348.087 198.138 348.673 198.404 349.18C198.684 349.673 199.044 350.053 199.484 350.32C199.938 350.587 200.418 350.72 200.924 350.72C201.444 350.72 201.931 350.593 202.384 350.34C202.838 350.073 203.198 349.7 203.464 349.22C203.731 348.727 203.864 348.14 203.864 347.46ZM211.419 343.52C211.779 343.013 212.272 342.593 212.899 342.26C213.539 341.913 214.266 341.74 215.079 341.74C216.026 341.74 216.879 341.973 217.639 342.44C218.412 342.907 219.019 343.573 219.459 344.44C219.912 345.293 220.139 346.287 220.139 347.42C220.139 348.553 219.912 349.56 219.459 350.44C219.019 351.307 218.412 351.98 217.639 352.46C216.879 352.94 216.026 353.18 215.079 353.18C214.266 353.18 213.546 353.013 212.919 352.68C212.306 352.347 211.806 351.927 211.419 351.42V358.28H208.619V341.92H211.419V343.52ZM217.279 347.42C217.279 346.753 217.139 346.18 216.859 345.7C216.592 345.207 216.232 344.833 215.779 344.58C215.339 344.327 214.859 344.2 214.339 344.2C213.832 344.2 213.352 344.333 212.899 344.6C212.459 344.853 212.099 345.227 211.819 345.72C211.552 346.213 211.419 346.793 211.419 347.46C211.419 348.127 211.552 348.707 211.819 349.2C212.099 349.693 212.459 350.073 212.899 350.34C213.352 350.593 213.832 350.72 214.339 350.72C214.859 350.72 215.339 350.587 215.779 350.32C216.232 350.053 216.592 349.673 216.859 349.18C217.139 348.687 217.279 348.1 217.279 347.42ZM222.614 353.14C222.107 353.14 221.687 352.987 221.354 352.68C221.034 352.36 220.874 351.967 220.874 351.5C220.874 351.033 221.034 350.647 221.354 350.34C221.687 350.02 222.107 349.86 222.614 349.86C223.107 349.86 223.514 350.02 223.834 350.34C224.154 350.647 224.314 351.033 224.314 351.5C224.314 351.967 224.154 352.36 223.834 352.68C223.514 352.987 223.107 353.14 222.614 353.14ZM222.614 344.86C222.107 344.86 221.687 344.707 221.354 344.4C221.034 344.08 220.874 343.687 220.874 343.22C220.874 342.753 221.034 342.367 221.354 342.06C221.687 341.74 222.107 341.58 222.614 341.58C223.107 341.58 223.514 341.74 223.834 342.06C224.154 342.367 224.314 342.753 224.314 343.22C224.314 343.687 224.154 344.08 223.834 344.4C223.514 344.707 223.107 344.86 222.614 344.86ZM239.52 349.18C239.52 349.82 239.36 350.433 239.04 351.02C238.72 351.593 238.246 352.073 237.62 352.46C237.006 352.847 236.266 353.067 235.4 353.12V354.74H234.32V353.12C233.106 353.013 232.12 352.627 231.36 351.96C230.6 351.28 230.213 350.42 230.2 349.38H232.14C232.193 349.94 232.4 350.427 232.76 350.84C233.133 351.253 233.653 351.513 234.32 351.62V346.62C233.426 346.393 232.706 346.16 232.16 345.92C231.613 345.68 231.146 345.307 230.76 344.8C230.373 344.293 230.18 343.613 230.18 342.76C230.18 341.68 230.553 340.787 231.3 340.08C232.06 339.373 233.066 338.98 234.32 338.9V337.24H235.4V338.9C236.533 338.993 237.446 339.36 238.14 340C238.833 340.627 239.233 341.447 239.34 342.46H237.4C237.333 341.993 237.126 341.573 236.78 341.2C236.433 340.813 235.973 340.56 235.4 340.44V345.32C236.28 345.547 236.993 345.78 237.54 346.02C238.1 346.247 238.566 346.613 238.94 347.12C239.326 347.627 239.52 348.313 239.52 349.18ZM232.04 342.66C232.04 343.313 232.233 343.813 232.62 344.16C233.006 344.507 233.573 344.793 234.32 345.02V340.4C233.626 340.467 233.073 340.693 232.66 341.08C232.246 341.453 232.04 341.98 232.04 342.66ZM235.4 351.64C236.12 351.56 236.68 351.3 237.08 350.86C237.493 350.42 237.7 349.893 237.7 349.28C237.7 348.627 237.5 348.127 237.1 347.78C236.7 347.42 236.133 347.133 235.4 346.92V351.64ZM241.381 340.2V338.54H245.141V353H243.301V340.2H241.381ZM247.467 345.62C247.467 343.327 247.841 341.54 248.587 340.26C249.334 338.967 250.641 338.32 252.507 338.32C254.361 338.32 255.661 338.967 256.407 340.26C257.154 341.54 257.527 343.327 257.527 345.62C257.527 347.953 257.154 349.767 256.407 351.06C255.661 352.353 254.361 353 252.507 353C250.641 353 249.334 352.353 248.587 351.06C247.841 349.767 247.467 347.953 247.467 345.62ZM255.727 345.62C255.727 344.46 255.647 343.48 255.487 342.68C255.341 341.867 255.027 341.213 254.547 340.72C254.081 340.227 253.401 339.98 252.507 339.98C251.601 339.98 250.907 340.227 250.427 340.72C249.961 341.213 249.647 341.867 249.487 342.68C249.341 343.48 249.267 344.46 249.267 345.62C249.267 346.82 249.341 347.827 249.487 348.64C249.647 349.453 249.961 350.107 250.427 350.6C250.907 351.093 251.601 351.34 252.507 351.34C253.401 351.34 254.081 351.093 254.547 350.6C255.027 350.107 255.341 349.453 255.487 348.64C255.647 347.827 255.727 346.82 255.727 345.62ZM259.226 345.62C259.226 343.327 259.599 341.54 260.346 340.26C261.093 338.967 262.399 338.32 264.266 338.32C266.119 338.32 267.419 338.967 268.166 340.26C268.913 341.54 269.286 343.327 269.286 345.62C269.286 347.953 268.913 349.767 268.166 351.06C267.419 352.353 266.119 353 264.266 353C262.399 353 261.093 352.353 260.346 351.06C259.599 349.767 259.226 347.953 259.226 345.62ZM267.486 345.62C267.486 344.46 267.406 343.48 267.246 342.68C267.099 341.867 266.786 341.213 266.306 340.72C265.839 340.227 265.159 339.98 264.266 339.98C263.359 339.98 262.666 340.227 262.186 340.72C261.719 341.213 261.406 341.867 261.246 342.68C261.099 343.48 261.026 344.46 261.026 345.62C261.026 346.82 261.099 347.827 261.246 348.64C261.406 349.453 261.719 350.107 262.186 350.6C262.666 351.093 263.359 351.34 264.266 351.34C265.159 351.34 265.839 351.093 266.306 350.6C266.786 350.107 267.099 349.453 267.246 348.64C267.406 347.827 267.486 346.82 267.486 345.62ZM56.56 393.36C56.56 394.107 56.38 394.807 56.02 395.46C55.6733 396.113 55.12 396.64 54.36 397.04C53.6133 397.44 52.6667 397.64 51.52 397.64H49.18V403H46.38V389.04H51.52C52.6 389.04 53.52 389.227 54.28 389.6C55.04 389.973 55.6067 390.487 55.98 391.14C56.3667 391.793 56.56 392.533 56.56 393.36ZM51.4 395.38C52.1733 395.38 52.7467 395.207 53.12 394.86C53.4933 394.5 53.68 394 53.68 393.36C53.68 392 52.92 391.32 51.4 391.32H49.18V395.38H51.4ZM60.548 393.64C60.908 393.053 61.3746 392.593 61.948 392.26C62.5346 391.927 63.2013 391.76 63.948 391.76V394.7H63.208C62.328 394.7 61.6613 394.907 61.208 395.32C60.768 395.733 60.548 396.453 60.548 397.48V403H57.748V391.92H60.548V393.64ZM69.9539 403.18C68.8872 403.18 67.9272 402.947 67.0739 402.48C66.2206 402 65.5472 401.327 65.0539 400.46C64.5739 399.593 64.3339 398.593 64.3339 397.46C64.3339 396.327 64.5806 395.327 65.0739 394.46C65.5806 393.593 66.2672 392.927 67.1339 392.46C68.0006 391.98 68.9672 391.74 70.0339 391.74C71.1006 391.74 72.0672 391.98 72.9339 392.46C73.8006 392.927 74.4806 393.593 74.9739 394.46C75.4806 395.327 75.7339 396.327 75.7339 397.46C75.7339 398.593 75.4739 399.593 74.9539 400.46C74.4472 401.327 73.7539 402 72.8739 402.48C72.0072 402.947 71.0339 403.18 69.9539 403.18ZM69.9539 400.74C70.4606 400.74 70.9339 400.62 71.3739 400.38C71.8272 400.127 72.1872 399.753 72.4539 399.26C72.7206 398.767 72.8539 398.167 72.8539 397.46C72.8539 396.407 72.5739 395.6 72.0139 395.04C71.4672 394.467 70.7939 394.18 69.9939 394.18C69.1939 394.18 68.5206 394.467 67.9739 395.04C67.4406 395.6 67.1739 396.407 67.1739 397.46C67.1739 398.513 67.4339 399.327 67.9539 399.9C68.4872 400.46 69.1539 400.74 69.9539 400.74ZM76.2678 397.42C76.2678 396.3 76.4878 395.307 76.9278 394.44C77.3811 393.573 77.9945 392.907 78.7678 392.44C79.5411 391.973 80.4011 391.74 81.3478 391.74C82.0678 391.74 82.7545 391.9 83.4078 392.22C84.0611 392.527 84.5811 392.94 84.9678 393.46V388.2H87.8078V403H84.9678V401.36C84.6211 401.907 84.1345 402.347 83.5078 402.68C82.8811 403.013 82.1545 403.18 81.3278 403.18C80.3945 403.18 79.5411 402.94 78.7678 402.46C77.9945 401.98 77.3811 401.307 76.9278 400.44C76.4878 399.56 76.2678 398.553 76.2678 397.42ZM84.9878 397.46C84.9878 396.78 84.8545 396.2 84.5878 395.72C84.3211 395.227 83.9611 394.853 83.5078 394.6C83.0545 394.333 82.5678 394.2 82.0478 394.2C81.5278 394.2 81.0478 394.327 80.6078 394.58C80.1678 394.833 79.8078 395.207 79.5278 395.7C79.2611 396.18 79.1278 396.753 79.1278 397.42C79.1278 398.087 79.2611 398.673 79.5278 399.18C79.8078 399.673 80.1678 400.053 80.6078 400.32C81.0611 400.587 81.5411 400.72 82.0478 400.72C82.5678 400.72 83.0545 400.593 83.5078 400.34C83.9611 400.073 84.3211 399.7 84.5878 399.22C84.8545 398.727 84.9878 398.14 84.9878 397.46ZM100.202 391.92V403H97.3825V401.6C97.0225 402.08 96.5492 402.46 95.9625 402.74C95.3892 403.007 94.7625 403.14 94.0825 403.14C93.2158 403.14 92.4492 402.96 91.7825 402.6C91.1158 402.227 90.5892 401.687 90.2025 400.98C89.8292 400.26 89.6425 399.407 89.6425 398.42V391.92H92.4425V398.02C92.4425 398.9 92.6625 399.58 93.1025 400.06C93.5425 400.527 94.1425 400.76 94.9025 400.76C95.6758 400.76 96.2825 400.527 96.7225 400.06C97.1625 399.58 97.3825 398.9 97.3825 398.02V391.92H100.202ZM101.445 397.46C101.445 396.313 101.678 395.313 102.145 394.46C102.612 393.593 103.258 392.927 104.085 392.46C104.912 391.98 105.858 391.74 106.925 391.74C108.298 391.74 109.432 392.087 110.325 392.78C111.232 393.46 111.838 394.42 112.145 395.66H109.125C108.965 395.18 108.692 394.807 108.305 394.54C107.932 394.26 107.465 394.12 106.905 394.12C106.105 394.12 105.472 394.413 105.005 395C104.538 395.573 104.305 396.393 104.305 397.46C104.305 398.513 104.538 399.333 105.005 399.92C105.472 400.493 106.105 400.78 106.905 400.78C108.038 400.78 108.778 400.273 109.125 399.26H112.145C111.838 400.46 111.232 401.413 110.325 402.12C109.418 402.827 108.285 403.18 106.925 403.18C105.858 403.18 104.912 402.947 104.085 402.48C103.258 402 102.612 401.333 102.145 400.48C101.678 399.613 101.445 398.607 101.445 397.46ZM116.656 394.22V399.58C116.656 399.953 116.743 400.227 116.916 400.4C117.103 400.56 117.41 400.64 117.836 400.64H119.136V403H117.376C115.016 403 113.836 401.853 113.836 399.56V394.22H112.516V391.92H113.836V389.18H116.656V391.92H119.136V394.22H116.656ZM124.59 403.18C123.684 403.18 122.87 403.02 122.15 402.7C121.43 402.367 120.857 401.92 120.43 401.36C120.017 400.8 119.79 400.18 119.75 399.5H122.57C122.624 399.927 122.83 400.28 123.19 400.56C123.564 400.84 124.024 400.98 124.57 400.98C125.104 400.98 125.517 400.873 125.81 400.66C126.117 400.447 126.27 400.173 126.27 399.84C126.27 399.48 126.084 399.213 125.71 399.04C125.35 398.853 124.77 398.653 123.97 398.44C123.144 398.24 122.464 398.033 121.93 397.82C121.41 397.607 120.957 397.28 120.57 396.84C120.197 396.4 120.01 395.807 120.01 395.06C120.01 394.447 120.184 393.887 120.53 393.38C120.89 392.873 121.397 392.473 122.05 392.18C122.717 391.887 123.497 391.74 124.39 391.74C125.71 391.74 126.764 392.073 127.55 392.74C128.337 393.393 128.77 394.28 128.85 395.4H126.17C126.13 394.96 125.944 394.613 125.61 394.36C125.29 394.093 124.857 393.96 124.31 393.96C123.804 393.96 123.41 394.053 123.13 394.24C122.864 394.427 122.73 394.687 122.73 395.02C122.73 395.393 122.917 395.68 123.29 395.88C123.664 396.067 124.244 396.26 125.03 396.46C125.83 396.66 126.49 396.867 127.01 397.08C127.53 397.293 127.977 397.627 128.35 398.08C128.737 398.52 128.937 399.107 128.95 399.84C128.95 400.48 128.77 401.053 128.41 401.56C128.064 402.067 127.557 402.467 126.89 402.76C126.237 403.04 125.47 403.18 124.59 403.18ZM131.689 403.14C131.182 403.14 130.762 402.987 130.429 402.68C130.109 402.36 129.949 401.967 129.949 401.5C129.949 401.033 130.109 400.647 130.429 400.34C130.762 400.02 131.182 399.86 131.689 399.86C132.182 399.86 132.589 400.02 132.909 400.34C133.229 400.647 133.389 401.033 133.389 401.5C133.389 401.967 133.229 402.36 132.909 402.68C132.589 402.987 132.182 403.14 131.689 403.14ZM131.689 394.86C131.182 394.86 130.762 394.707 130.429 394.4C130.109 394.08 129.949 393.687 129.949 393.22C129.949 392.753 130.109 392.367 130.429 392.06C130.762 391.74 131.182 391.58 131.689 391.58C132.182 391.58 132.589 391.74 132.909 392.06C133.229 392.367 133.389 392.753 133.389 393.22C133.389 393.687 133.229 394.08 132.909 394.4C132.589 394.707 132.182 394.86 131.689 394.86ZM85.6042 453L82.2842 447.3H80.0842V453H78.2642V439.06H82.7642C83.8176 439.06 84.7042 439.24 85.4242 439.6C86.1576 439.96 86.7042 440.447 87.0642 441.06C87.4242 441.673 87.6042 442.373 87.6042 443.16C87.6042 444.12 87.3242 444.967 86.7642 445.7C86.2176 446.433 85.3909 446.92 84.2842 447.16L87.7842 453H85.6042ZM80.0842 445.84H82.7642C83.7509 445.84 84.4909 445.6 84.9842 445.12C85.4776 444.627 85.7242 443.973 85.7242 443.16C85.7242 442.333 85.4776 441.693 84.9842 441.24C84.5042 440.787 83.7642 440.56 82.7642 440.56H80.0842V445.84ZM94.4122 453.18C93.3855 453.18 92.4522 452.947 91.6122 452.48C90.7855 452.013 90.1322 451.353 89.6522 450.5C89.1855 449.633 88.9522 448.633 88.9522 447.5C88.9522 446.38 89.1922 445.393 89.6722 444.54C90.1655 443.673 90.8322 443.013 91.6722 442.56C92.5122 442.093 93.4522 441.86 94.4922 441.86C95.5322 441.86 96.4722 442.093 97.3122 442.56C98.1522 443.013 98.8122 443.667 99.2922 444.52C99.7855 445.373 100.032 446.367 100.032 447.5C100.032 448.633 99.7789 449.633 99.2722 450.5C98.7789 451.353 98.1055 452.013 97.2522 452.48C96.3989 452.947 95.4522 453.18 94.4122 453.18ZM94.4122 451.58C95.0655 451.58 95.6789 451.427 96.2522 451.12C96.8255 450.813 97.2855 450.353 97.6322 449.74C97.9922 449.127 98.1722 448.38 98.1722 447.5C98.1722 446.62 97.9989 445.873 97.6522 445.26C97.3055 444.647 96.8522 444.193 96.2922 443.9C95.7322 443.593 95.1255 443.44 94.4722 443.44C93.8055 443.44 93.1922 443.593 92.6322 443.9C92.0855 444.193 91.6455 444.647 91.3122 445.26C90.9789 445.873 90.8122 446.62 90.8122 447.5C90.8122 448.393 90.9722 449.147 91.2922 449.76C91.6255 450.373 92.0655 450.833 92.6122 451.14C93.1589 451.433 93.7589 451.58 94.4122 451.58ZM103.445 444.08C103.818 443.427 104.365 442.893 105.085 442.48C105.805 442.067 106.625 441.86 107.545 441.86C108.532 441.86 109.418 442.093 110.205 442.56C110.992 443.027 111.612 443.687 112.065 444.54C112.518 445.38 112.745 446.36 112.745 447.48C112.745 448.587 112.518 449.573 112.065 450.44C111.612 451.307 110.985 451.98 110.185 452.46C109.398 452.94 108.518 453.18 107.545 453.18C106.598 453.18 105.765 452.973 105.045 452.56C104.338 452.147 103.805 451.62 103.445 450.98V453H101.625V438.2H103.445V444.08ZM110.885 447.48C110.885 446.653 110.718 445.933 110.385 445.32C110.052 444.707 109.598 444.24 109.025 443.92C108.465 443.6 107.845 443.44 107.165 443.44C106.498 443.44 105.878 443.607 105.305 443.94C104.745 444.26 104.292 444.733 103.945 445.36C103.612 445.973 103.445 446.687 103.445 447.5C103.445 448.327 103.612 449.053 103.945 449.68C104.292 450.293 104.745 450.767 105.305 451.1C105.878 451.42 106.498 451.58 107.165 451.58C107.845 451.58 108.465 451.42 109.025 451.1C109.598 450.767 110.052 450.293 110.385 449.68C110.718 449.053 110.885 448.32 110.885 447.48ZM119.121 453.18C118.094 453.18 117.161 452.947 116.321 452.48C115.494 452.013 114.841 451.353 114.361 450.5C113.894 449.633 113.661 448.633 113.661 447.5C113.661 446.38 113.901 445.393 114.381 444.54C114.874 443.673 115.541 443.013 116.381 442.56C117.221 442.093 118.161 441.86 119.201 441.86C120.241 441.86 121.181 442.093 122.021 442.56C122.861 443.013 123.521 443.667 124.001 444.52C124.494 445.373 124.741 446.367 124.741 447.5C124.741 448.633 124.487 449.633 123.981 450.5C123.487 451.353 122.814 452.013 121.961 452.48C121.107 452.947 120.161 453.18 119.121 453.18ZM119.121 451.58C119.774 451.58 120.387 451.427 120.961 451.12C121.534 450.813 121.994 450.353 122.341 449.74C122.701 449.127 122.881 448.38 122.881 447.5C122.881 446.62 122.707 445.873 122.361 445.26C122.014 444.647 121.561 444.193 121.001 443.9C120.441 443.593 119.834 443.44 119.181 443.44C118.514 443.44 117.901 443.593 117.341 443.9C116.794 444.193 116.354 444.647 116.021 445.26C115.687 445.873 115.521 446.62 115.521 447.5C115.521 448.393 115.681 449.147 116.001 449.76C116.334 450.373 116.774 450.833 117.321 451.14C117.867 451.433 118.467 451.58 119.121 451.58ZM128.554 443.54V450C128.554 450.533 128.667 450.913 128.894 451.14C129.12 451.353 129.514 451.46 130.074 451.46H131.414V453H129.774C128.76 453 128 452.767 127.494 452.3C126.987 451.833 126.734 451.067 126.734 450V443.54H125.314V442.04H126.734V439.28H128.554V442.04H131.414V443.54H128.554ZM139.571 443.54V450C139.571 450.533 139.684 450.913 139.911 451.14C140.138 451.353 140.531 451.46 141.091 451.46H142.431V453H140.791C139.778 453 139.018 452.767 138.511 452.3C138.004 451.833 137.751 451.067 137.751 450V443.54H136.331V442.04H137.751V439.28H139.571V442.04H142.431V443.54H139.571ZM145.656 443.82C145.976 443.193 146.429 442.707 147.016 442.36C147.616 442.013 148.343 441.84 149.196 441.84V443.72H148.716C146.676 443.72 145.656 444.827 145.656 447.04V453H143.836V442.04H145.656V443.82ZM149.817 447.48C149.817 446.36 150.044 445.38 150.497 444.54C150.95 443.687 151.57 443.027 152.357 442.56C153.157 442.093 154.044 441.86 155.017 441.86C155.977 441.86 156.81 442.067 157.517 442.48C158.224 442.893 158.75 443.413 159.097 444.04V442.04H160.937V453H159.097V450.96C158.737 451.6 158.197 452.133 157.477 452.56C156.77 452.973 155.944 453.18 154.997 453.18C154.024 453.18 153.144 452.94 152.357 452.46C151.57 451.98 150.95 451.307 150.497 450.44C150.044 449.573 149.817 448.587 149.817 447.48ZM159.097 447.5C159.097 446.673 158.93 445.953 158.597 445.34C158.264 444.727 157.81 444.26 157.237 443.94C156.677 443.607 156.057 443.44 155.377 443.44C154.697 443.44 154.077 443.6 153.517 443.92C152.957 444.24 152.51 444.707 152.177 445.32C151.844 445.933 151.677 446.653 151.677 447.48C151.677 448.32 151.844 449.053 152.177 449.68C152.51 450.293 152.957 450.767 153.517 451.1C154.077 451.42 154.697 451.58 155.377 451.58C156.057 451.58 156.677 451.42 157.237 451.1C157.81 450.767 158.264 450.293 158.597 449.68C158.93 449.053 159.097 448.327 159.097 447.5ZM162.533 447.48C162.533 446.36 162.759 445.38 163.213 444.54C163.666 443.687 164.286 443.027 165.073 442.56C165.873 442.093 166.766 441.86 167.753 441.86C168.606 441.86 169.399 442.06 170.133 442.46C170.866 442.847 171.426 443.36 171.813 444V438.2H173.653V453H171.813V450.94C171.453 451.593 170.919 452.133 170.213 452.56C169.506 452.973 168.679 453.18 167.733 453.18C166.759 453.18 165.873 452.94 165.073 452.46C164.286 451.98 163.666 451.307 163.213 450.44C162.759 449.573 162.533 448.587 162.533 447.48ZM171.813 447.5C171.813 446.673 171.646 445.953 171.313 445.34C170.979 444.727 170.526 444.26 169.953 443.94C169.393 443.607 168.773 443.44 168.093 443.44C167.413 443.44 166.793 443.6 166.233 443.92C165.673 444.24 165.226 444.707 164.893 445.32C164.559 445.933 164.393 446.653 164.393 447.48C164.393 448.32 164.559 449.053 164.893 449.68C165.226 450.293 165.673 450.767 166.233 451.1C166.793 451.42 167.413 451.58 168.093 451.58C168.773 451.58 169.393 451.42 169.953 451.1C170.526 450.767 170.979 450.293 171.313 449.68C171.646 449.053 171.813 448.327 171.813 447.5ZM176.868 440.26C176.522 440.26 176.228 440.14 175.988 439.9C175.748 439.66 175.628 439.367 175.628 439.02C175.628 438.673 175.748 438.38 175.988 438.14C176.228 437.9 176.522 437.78 176.868 437.78C177.202 437.78 177.482 437.9 177.708 438.14C177.948 438.38 178.068 438.673 178.068 439.02C178.068 439.367 177.948 439.66 177.708 439.9C177.482 440.14 177.202 440.26 176.868 440.26ZM177.748 442.04V453H175.928V442.04H177.748ZM185.39 441.84C186.723 441.84 187.803 442.247 188.63 443.06C189.457 443.86 189.87 445.02 189.87 446.54V453H188.07V446.8C188.07 445.707 187.797 444.873 187.25 444.3C186.703 443.713 185.957 443.42 185.01 443.42C184.05 443.42 183.283 443.72 182.71 444.32C182.15 444.92 181.87 445.793 181.87 446.94V453H180.05V442.04H181.87V443.6C182.23 443.04 182.717 442.607 183.33 442.3C183.957 441.993 184.643 441.84 185.39 441.84ZM196.563 441.86C197.51 441.86 198.336 442.067 199.043 442.48C199.763 442.893 200.296 443.413 200.643 444.04V442.04H202.483V453.24C202.483 454.24 202.27 455.127 201.843 455.9C201.416 456.687 200.803 457.3 200.003 457.74C199.216 458.18 198.296 458.4 197.243 458.4C195.803 458.4 194.603 458.06 193.643 457.38C192.683 456.7 192.116 455.773 191.943 454.6H193.743C193.943 455.267 194.356 455.8 194.983 456.2C195.61 456.613 196.363 456.82 197.243 456.82C198.243 456.82 199.056 456.507 199.683 455.88C200.323 455.253 200.643 454.373 200.643 453.24V450.94C200.283 451.58 199.75 452.113 199.043 452.54C198.336 452.967 197.51 453.18 196.563 453.18C195.59 453.18 194.703 452.94 193.903 452.46C193.116 451.98 192.496 451.307 192.043 450.44C191.59 449.573 191.363 448.587 191.363 447.48C191.363 446.36 191.59 445.38 192.043 444.54C192.496 443.687 193.116 443.027 193.903 442.56C194.703 442.093 195.59 441.86 196.563 441.86ZM200.643 447.5C200.643 446.673 200.476 445.953 200.143 445.34C199.81 444.727 199.356 444.26 198.783 443.94C198.223 443.607 197.603 443.44 196.923 443.44C196.243 443.44 195.623 443.6 195.063 443.92C194.503 444.24 194.056 444.707 193.723 445.32C193.39 445.933 193.223 446.653 193.223 447.48C193.223 448.32 193.39 449.053 193.723 449.68C194.056 450.293 194.503 450.767 195.063 451.1C195.623 451.42 196.243 451.58 196.923 451.58C197.603 451.58 198.223 451.42 198.783 451.1C199.356 450.767 199.81 450.293 200.143 449.68C200.476 449.053 200.643 448.327 200.643 447.5ZM205.339 453.12C204.992 453.12 204.699 453 204.459 452.76C204.219 452.52 204.099 452.227 204.099 451.88C204.099 451.533 204.219 451.24 204.459 451C204.699 450.76 204.992 450.64 205.339 450.64C205.672 450.64 205.952 450.76 206.179 451C206.419 451.24 206.539 451.533 206.539 451.88C206.539 452.227 206.419 452.52 206.179 452.76C205.952 453 205.672 453.12 205.339 453.12ZM87.5842 493.14C87.5842 494.3 87.1842 495.267 86.3842 496.04C85.5976 496.8 84.3909 497.18 82.7642 497.18H80.0842V503H78.2642V489.06H82.7642C84.3376 489.06 85.5309 489.44 86.3442 490.2C87.1709 490.96 87.5842 491.94 87.5842 493.14ZM82.7642 495.68C83.7776 495.68 84.5242 495.46 85.0042 495.02C85.4842 494.58 85.7242 493.953 85.7242 493.14C85.7242 491.42 84.7376 490.56 82.7642 490.56H80.0842V495.68H82.7642ZM88.5262 501.54C90.2196 500.18 91.5462 499.067 92.5062 498.2C93.4662 497.32 94.2729 496.407 94.9262 495.46C95.5929 494.5 95.9262 493.56 95.9262 492.64C95.9262 491.773 95.7129 491.093 95.2862 490.6C94.8729 490.093 94.1996 489.84 93.2662 489.84C92.3596 489.84 91.6529 490.127 91.1462 490.7C90.6529 491.26 90.3862 492.013 90.3462 492.96H88.5862C88.6396 491.467 89.0929 490.313 89.9462 489.5C90.7996 488.687 91.8996 488.28 93.2462 488.28C94.6196 488.28 95.7062 488.66 96.5062 489.42C97.3196 490.18 97.7262 491.227 97.7262 492.56C97.7262 493.667 97.3929 494.747 96.7262 495.8C96.0729 496.84 95.3262 497.76 94.4862 498.56C93.6462 499.347 92.5729 500.267 91.2662 501.32H98.1462V502.84H88.5262V501.54ZM109.07 493.14C109.07 494.3 108.67 495.267 107.87 496.04C107.083 496.8 105.877 497.18 104.25 497.18H101.57V503H99.7502V489.06H104.25C105.823 489.06 107.017 489.44 107.83 490.2C108.657 490.96 109.07 491.94 109.07 493.14ZM104.25 495.68C105.263 495.68 106.01 495.46 106.49 495.02C106.97 494.58 107.21 493.953 107.21 493.14C107.21 491.42 106.223 490.56 104.25 490.56H101.57V495.68H104.25ZM123.644 489.06V490.54H119.844V503H118.024V490.54H114.204V489.06H123.644ZM126.905 493.82C127.225 493.193 127.678 492.707 128.265 492.36C128.865 492.013 129.591 491.84 130.445 491.84V493.72H129.965C127.925 493.72 126.905 494.827 126.905 497.04V503H125.085V492.04H126.905V493.82ZM131.065 497.48C131.065 496.36 131.292 495.38 131.745 494.54C132.199 493.687 132.819 493.027 133.605 492.56C134.405 492.093 135.292 491.86 136.265 491.86C137.225 491.86 138.059 492.067 138.765 492.48C139.472 492.893 139.999 493.413 140.345 494.04V492.04H142.185V503H140.345V500.96C139.985 501.6 139.445 502.133 138.725 502.56C138.019 502.973 137.192 503.18 136.245 503.18C135.272 503.18 134.392 502.94 133.605 502.46C132.819 501.98 132.199 501.307 131.745 500.44C131.292 499.573 131.065 498.587 131.065 497.48ZM140.345 497.5C140.345 496.673 140.179 495.953 139.845 495.34C139.512 494.727 139.059 494.26 138.485 493.94C137.925 493.607 137.305 493.44 136.625 493.44C135.945 493.44 135.325 493.6 134.765 493.92C134.205 494.24 133.759 494.707 133.425 495.32C133.092 495.933 132.925 496.653 132.925 497.48C132.925 498.32 133.092 499.053 133.425 499.68C133.759 500.293 134.205 500.767 134.765 501.1C135.325 501.42 135.945 501.58 136.625 501.58C137.305 501.58 137.925 501.42 138.485 501.1C139.059 500.767 139.512 500.293 139.845 499.68C140.179 499.053 140.345 498.327 140.345 497.5ZM143.781 497.48C143.781 496.36 144.008 495.38 144.461 494.54C144.914 493.687 145.534 493.027 146.321 492.56C147.121 492.093 148.014 491.86 149.001 491.86C149.854 491.86 150.648 492.06 151.381 492.46C152.114 492.847 152.674 493.36 153.061 494V488.2H154.901V503H153.061V500.94C152.701 501.593 152.168 502.133 151.461 502.56C150.754 502.973 149.928 503.18 148.981 503.18C148.008 503.18 147.121 502.94 146.321 502.46C145.534 501.98 144.914 501.307 144.461 500.44C144.008 499.573 143.781 498.587 143.781 497.48ZM153.061 497.5C153.061 496.673 152.894 495.953 152.561 495.34C152.228 494.727 151.774 494.26 151.201 493.94C150.641 493.607 150.021 493.44 149.341 493.44C148.661 493.44 148.041 493.6 147.481 493.92C146.921 494.24 146.474 494.707 146.141 495.32C145.808 495.933 145.641 496.653 145.641 497.48C145.641 498.32 145.808 499.053 146.141 499.68C146.474 500.293 146.921 500.767 147.481 501.1C148.041 501.42 148.661 501.58 149.341 501.58C150.021 501.58 150.641 501.42 151.201 501.1C151.774 500.767 152.228 500.293 152.561 499.68C152.894 499.053 153.061 498.327 153.061 497.5ZM158.117 490.26C157.77 490.26 157.477 490.14 157.237 489.9C156.997 489.66 156.877 489.367 156.877 489.02C156.877 488.673 156.997 488.38 157.237 488.14C157.477 487.9 157.77 487.78 158.117 487.78C158.45 487.78 158.73 487.9 158.957 488.14C159.197 488.38 159.317 488.673 159.317 489.02C159.317 489.367 159.197 489.66 158.957 489.9C158.73 490.14 158.45 490.26 158.117 490.26ZM158.997 492.04V503H157.177V492.04H158.997ZM166.639 491.84C167.972 491.84 169.052 492.247 169.879 493.06C170.705 493.86 171.119 495.02 171.119 496.54V503H169.319V496.8C169.319 495.707 169.045 494.873 168.499 494.3C167.952 493.713 167.205 493.42 166.259 493.42C165.299 493.42 164.532 493.72 163.959 494.32C163.399 494.92 163.119 495.793 163.119 496.94V503H161.299V492.04H163.119V493.6C163.479 493.04 163.965 492.607 164.579 492.3C165.205 491.993 165.892 491.84 166.639 491.84ZM177.812 491.86C178.758 491.86 179.585 492.067 180.292 492.48C181.012 492.893 181.545 493.413 181.892 494.04V492.04H183.732V503.24C183.732 504.24 183.518 505.127 183.092 505.9C182.665 506.687 182.052 507.3 181.252 507.74C180.465 508.18 179.545 508.4 178.492 508.4C177.052 508.4 175.852 508.06 174.892 507.38C173.932 506.7 173.365 505.773 173.192 504.6H174.992C175.192 505.267 175.605 505.8 176.232 506.2C176.858 506.613 177.612 506.82 178.492 506.82C179.492 506.82 180.305 506.507 180.932 505.88C181.572 505.253 181.892 504.373 181.892 503.24V500.94C181.532 501.58 180.998 502.113 180.292 502.54C179.585 502.967 178.758 503.18 177.812 503.18C176.838 503.18 175.952 502.94 175.152 502.46C174.365 501.98 173.745 501.307 173.292 500.44C172.838 499.573 172.612 498.587 172.612 497.48C172.612 496.36 172.838 495.38 173.292 494.54C173.745 493.687 174.365 493.027 175.152 492.56C175.952 492.093 176.838 491.86 177.812 491.86ZM181.892 497.5C181.892 496.673 181.725 495.953 181.392 495.34C181.058 494.727 180.605 494.26 180.032 493.94C179.472 493.607 178.852 493.44 178.172 493.44C177.492 493.44 176.872 493.6 176.312 493.92C175.752 494.24 175.305 494.707 174.972 495.32C174.638 495.933 174.472 496.653 174.472 497.48C174.472 498.32 174.638 499.053 174.972 499.68C175.305 500.293 175.752 500.767 176.312 501.1C176.872 501.42 177.492 501.58 178.172 501.58C178.852 501.58 179.472 501.42 180.032 501.1C180.605 500.767 181.058 500.293 181.392 499.68C181.725 499.053 181.892 498.327 181.892 497.5ZM186.587 503.12C186.241 503.12 185.947 503 185.707 502.76C185.467 502.52 185.347 502.227 185.347 501.88C185.347 501.533 185.467 501.24 185.707 501C185.947 500.76 186.241 500.64 186.587 500.64C186.921 500.64 187.201 500.76 187.427 501C187.667 501.24 187.787 501.533 187.787 501.88C187.787 502.227 187.667 502.52 187.427 502.76C187.201 503 186.921 503.12 186.587 503.12ZM86.5042 549.9H80.4242L79.3042 553H77.3842L82.4242 539.14H84.5242L89.5442 553H87.6242L86.5042 549.9ZM85.9842 548.42L83.4642 541.38L80.9442 548.42H85.9842ZM90.2608 547.5C90.2608 546.367 90.4874 545.38 90.9408 544.54C91.3941 543.687 92.0208 543.027 92.8208 542.56C93.6341 542.093 94.5608 541.86 95.6008 541.86C96.9474 541.86 98.0541 542.187 98.9208 542.84C99.8008 543.493 100.381 544.4 100.661 545.56H98.7008C98.5141 544.893 98.1474 544.367 97.6008 543.98C97.0674 543.593 96.4008 543.4 95.6008 543.4C94.5608 543.4 93.7208 543.76 93.0808 544.48C92.4408 545.187 92.1208 546.193 92.1208 547.5C92.1208 548.82 92.4408 549.84 93.0808 550.56C93.7208 551.28 94.5608 551.64 95.6008 551.64C96.4008 551.64 97.0674 551.453 97.6008 551.08C98.1341 550.707 98.5008 550.173 98.7008 549.48H100.661C100.367 550.6 99.7808 551.5 98.9008 552.18C98.0208 552.847 96.9208 553.18 95.6008 553.18C94.5608 553.18 93.6341 552.947 92.8208 552.48C92.0208 552.013 91.3941 551.353 90.9408 550.5C90.4874 549.647 90.2608 548.647 90.2608 547.5ZM101.609 547.48C101.609 546.36 101.836 545.38 102.289 544.54C102.743 543.687 103.363 543.027 104.149 542.56C104.949 542.093 105.836 541.86 106.809 541.86C107.769 541.86 108.603 542.067 109.309 542.48C110.016 542.893 110.543 543.413 110.889 544.04V542.04H112.729V553H110.889V550.96C110.529 551.6 109.989 552.133 109.269 552.56C108.563 552.973 107.736 553.18 106.789 553.18C105.816 553.18 104.936 552.94 104.149 552.46C103.363 551.98 102.743 551.307 102.289 550.44C101.836 549.573 101.609 548.587 101.609 547.48ZM110.889 547.5C110.889 546.673 110.723 545.953 110.389 545.34C110.056 544.727 109.603 544.26 109.029 543.94C108.469 543.607 107.849 543.44 107.169 543.44C106.489 543.44 105.869 543.6 105.309 543.92C104.749 544.24 104.303 544.707 103.969 545.32C103.636 545.933 103.469 546.653 103.469 547.48C103.469 548.32 103.636 549.053 103.969 549.68C104.303 550.293 104.749 550.767 105.309 551.1C105.869 551.42 106.489 551.58 107.169 551.58C107.849 551.58 108.469 551.42 109.029 551.1C109.603 550.767 110.056 550.293 110.389 549.68C110.723 549.053 110.889 548.327 110.889 547.5ZM114.325 547.48C114.325 546.36 114.552 545.38 115.005 544.54C115.458 543.687 116.078 543.027 116.865 542.56C117.665 542.093 118.558 541.86 119.545 541.86C120.398 541.86 121.192 542.06 121.925 542.46C122.658 542.847 123.218 543.36 123.605 544V538.2H125.445V553H123.605V550.94C123.245 551.593 122.712 552.133 122.005 552.56C121.298 552.973 120.472 553.18 119.525 553.18C118.552 553.18 117.665 552.94 116.865 552.46C116.078 551.98 115.458 551.307 115.005 550.44C114.552 549.573 114.325 548.587 114.325 547.48ZM123.605 547.5C123.605 546.673 123.438 545.953 123.105 545.34C122.772 544.727 122.318 544.26 121.745 543.94C121.185 543.607 120.565 543.44 119.885 543.44C119.205 543.44 118.585 543.6 118.025 543.92C117.465 544.24 117.018 544.707 116.685 545.32C116.352 545.933 116.185 546.653 116.185 547.48C116.185 548.32 116.352 549.053 116.685 549.68C117.018 550.293 117.465 550.767 118.025 551.1C118.585 551.42 119.205 551.58 119.885 551.58C120.565 551.58 121.185 551.42 121.745 551.1C122.318 550.767 122.772 550.293 123.105 549.68C123.438 549.053 123.605 548.327 123.605 547.5ZM137.72 547.1C137.72 547.447 137.7 547.813 137.66 548.2H128.9C128.967 549.28 129.334 550.127 130 550.74C130.68 551.34 131.5 551.64 132.46 551.64C133.247 551.64 133.9 551.46 134.42 551.1C134.954 550.727 135.327 550.233 135.54 549.62H137.5C137.207 550.673 136.62 551.533 135.74 552.2C134.86 552.853 133.767 553.18 132.46 553.18C131.42 553.18 130.487 552.947 129.66 552.48C128.847 552.013 128.207 551.353 127.74 550.5C127.274 549.633 127.04 548.633 127.04 547.5C127.04 546.367 127.267 545.373 127.72 544.52C128.174 543.667 128.807 543.013 129.62 542.56C130.447 542.093 131.394 541.86 132.46 541.86C133.5 541.86 134.42 542.087 135.22 542.54C136.02 542.993 136.634 543.62 137.06 544.42C137.5 545.207 137.72 546.1 137.72 547.1ZM135.84 546.72C135.84 546.027 135.687 545.433 135.38 544.94C135.074 544.433 134.654 544.053 134.12 543.8C133.6 543.533 133.02 543.4 132.38 543.4C131.46 543.4 130.674 543.693 130.02 544.28C129.38 544.867 129.014 545.68 128.92 546.72H135.84ZM152.503 541.84C153.356 541.84 154.116 542.02 154.783 542.38C155.449 542.727 155.976 543.253 156.363 543.96C156.749 544.667 156.943 545.527 156.943 546.54V553H155.143V546.8C155.143 545.707 154.869 544.873 154.323 544.3C153.789 543.713 153.063 543.42 152.143 543.42C151.196 543.42 150.443 543.727 149.883 544.34C149.323 544.94 149.043 545.813 149.043 546.96V553H147.243V546.8C147.243 545.707 146.969 544.873 146.423 544.3C145.889 543.713 145.163 543.42 144.243 543.42C143.296 543.42 142.543 543.727 141.983 544.34C141.423 544.94 141.143 545.813 141.143 546.96V553H139.323V542.04H141.143V543.62C141.503 543.047 141.983 542.607 142.583 542.3C143.196 541.993 143.869 541.84 144.603 541.84C145.523 541.84 146.336 542.047 147.043 542.46C147.749 542.873 148.276 543.48 148.623 544.28C148.929 543.507 149.436 542.907 150.143 542.48C150.849 542.053 151.636 541.84 152.503 541.84ZM168.568 542.04L161.968 558.16H160.088L162.248 552.88L157.828 542.04H159.848L163.288 550.92L166.688 542.04H168.568ZM170.178 553.12C169.831 553.12 169.538 553 169.298 552.76C169.058 552.52 168.938 552.227 168.938 551.88C168.938 551.533 169.058 551.24 169.298 551C169.538 550.76 169.831 550.64 170.178 550.64C170.511 550.64 170.791 550.76 171.018 551C171.258 551.24 171.378 551.533 171.378 551.88C171.378 552.227 171.258 552.52 171.018 552.76C170.791 553 170.511 553.12 170.178 553.12Z" fill="#101010"/>
<path d="M55.8037 452.732L63.94 444.596L62.6175 443.303L55.8037 450.116L52.3537 446.666L51.06 447.96L55.8037 452.732ZM57.5 459C55.9283 459 54.4429 458.698 53.0437 458.094C51.6446 457.491 50.4227 456.666 49.3781 455.622C48.3335 454.577 47.5094 453.355 46.9056 451.956C46.3019 450.557 46 449.072 46 447.5C46 445.909 46.3019 444.414 46.9056 443.015C47.5094 441.616 48.3335 440.399 49.3781 439.364C50.4227 438.329 51.6446 437.509 53.0437 436.906C54.4429 436.302 55.9283 436 57.5 436C59.0908 436 60.5858 436.302 61.985 436.906C63.3842 437.509 64.6013 438.329 65.6363 439.364C66.6713 440.399 67.4906 441.616 68.0944 443.015C68.6981 444.414 69 445.909 69 447.5C69 449.072 68.6981 450.557 68.0944 451.956C67.4906 453.355 66.6713 454.577 65.6363 455.622C64.6013 456.666 63.3842 457.491 61.985 458.094C60.5858 458.698 59.0908 459 57.5 459ZM57.5 457.275C60.2217 457.275 62.5312 456.321 64.4287 454.414C66.3262 452.507 67.275 450.202 67.275 447.5C67.275 444.778 66.3262 442.469 64.4287 440.571C62.5312 438.674 60.2217 437.725 57.5 437.725C54.7975 437.725 52.4927 438.674 50.5856 440.571C48.6785 442.469 47.725 444.778 47.725 447.5C47.725 450.202 48.6785 452.507 50.5856 454.414C52.4927 456.321 54.7975 457.275 57.5 457.275Z" fill="#1B573B"/>
<path d="M55.8037 501.732L63.94 493.596L62.6175 492.303L55.8037 499.116L52.3537 495.666L51.06 496.96L55.8037 501.732ZM57.5 508C55.9283 508 54.4429 507.698 53.0437 507.094C51.6446 506.491 50.4227 505.666 49.3781 504.622C48.3335 503.577 47.5094 502.355 46.9056 500.956C46.3019 499.557 46 498.072 46 496.5C46 494.909 46.3019 493.414 46.9056 492.015C47.5094 490.616 48.3335 489.399 49.3781 488.364C50.4227 487.329 51.6446 486.509 53.0437 485.906C54.4429 485.302 55.9283 485 57.5 485C59.0908 485 60.5858 485.302 61.985 485.906C63.3842 486.509 64.6013 487.329 65.6363 488.364C66.6713 489.399 67.4906 490.616 68.0944 492.015C68.6981 493.414 69 494.909 69 496.5C69 498.072 68.6981 499.557 68.0944 500.956C67.4906 502.355 66.6713 503.577 65.6363 504.622C64.6013 505.666 63.3842 506.491 61.985 507.094C60.5858 507.698 59.0908 508 57.5 508ZM57.5 506.275C60.2217 506.275 62.5312 505.321 64.4287 503.414C66.3262 501.507 67.275 499.202 67.275 496.5C67.275 493.778 66.3262 491.469 64.4287 489.571C62.5312 487.674 60.2217 486.725 57.5 486.725C54.7975 486.725 52.4927 487.674 50.5856 489.571C48.6785 491.469 47.725 493.778 47.725 496.5C47.725 499.202 48.6785 501.507 50.5856 503.414C52.4927 505.321 54.7975 506.275 57.5 506.275Z" fill="#1B573B"/>
<path d="M55.8037 551.732L63.94 543.596L62.6175 542.303L55.8037 549.116L52.3537 545.666L51.06 546.96L55.8037 551.732ZM57.5 558C55.9283 558 54.4429 557.698 53.0437 557.094C51.6446 556.491 50.4227 555.666 49.3781 554.622C48.3335 553.577 47.5094 552.355 46.9056 550.956C46.3019 549.557 46 548.072 46 546.5C46 544.909 46.3019 543.414 46.9056 542.015C47.5094 540.616 48.3335 539.399 49.3781 538.364C50.4227 537.329 51.6446 536.509 53.0437 535.906C54.4429 535.302 55.9283 535 57.5 535C59.0908 535 60.5858 535.302 61.985 535.906C63.3842 536.509 64.6012 537.329 65.6362 538.364C66.6712 539.399 67.4906 540.616 68.0944 542.015C68.6981 543.414 69 544.909 69 546.5C69 548.072 68.6981 549.557 68.0944 550.956C67.4906 552.355 66.6712 553.577 65.6362 554.622C64.6012 555.666 63.3842 556.491 61.985 557.094C60.5858 557.698 59.0908 558 57.5 558ZM57.5 556.275C60.2217 556.275 62.5312 555.321 64.4287 553.414C66.3262 551.507 67.275 549.202 67.275 546.5C67.275 543.778 66.3262 541.469 64.4287 539.571C62.5312 537.674 60.2217 536.725 57.5 536.725C54.7975 536.725 52.4927 537.674 50.5856 539.571C48.6785 541.469 47.725 543.778 47.725 546.5C47.725 549.202 48.6785 551.507 50.5856 553.414C52.4927 555.321 54.7975 556.275 57.5 556.275Z" fill="#1B573B"/>
<path d="M76 751H305" stroke="#101010" stroke-opacity="0.13"/>
<path d="M156 150H225.5" stroke="#F7F7F7" stroke-opacity="0.69" stroke-width="5"/>
</g>
<defs>
<filter id="filter0_d_384_398" x="0" y="0" width="381" height="888" filterUnits="userSpaceOnUse" color-interpolation-filters="sRGB">
<feFlood flood-opacity="0" result="BackgroundImageFix"/>
<feColorMatrix in="SourceAlpha" type="matrix" values="0 0 0 0 0 0 0 0 0 0 0 0 0 0 0 0 0 0 127 0" result="hardAlpha"/>
<feMorphology radius="9" operator="erode" in="SourceAlpha" result="effect1_dropShadow_384_398"/>
<feOffset dy="6"/>
<feGaussianBlur stdDeviation="11"/>
<feComposite in2="hardAlpha" operator="out"/>
<feColorMatrix type="matrix" values="0 0 0 0 0.0897521 0 0 0 0 0.279167 0 0 0 0 0.0732812 0 0 0 0.14 0"/>
<feBlend mode="normal" in2="BackgroundImageFix" result="effect1_dropShadow_384_398"/>
<feBlend mode="normal" in="SourceGraphic" in2="effect1_dropShadow_384_398" result="shape"/>
</filter>
</defs>
</svg>
