<svg width="224" height="181" viewBox="0 0 224 181" fill="none" xmlns="http://www.w3.org/2000/svg">
<g opacity="0.1">
<mask id="mask0_213_462" style="mask-type:alpha" maskUnits="userSpaceOnUse" x="-16" y="0" width="240" height="181">
<rect x="223.5" y="0.5" width="179.5" height="239" transform="rotate(90 223.5 0.5)" fill="url(#paint0_linear_213_462)" stroke="#1B573B"/>
</mask>
<g mask="url(#mask0_213_462)">
<path d="M102.252 226.71C67.7242 226.71 39.7325 198.68 39.7325 164.101C39.7325 129.522 67.7242 101.492 102.252 101.492C136.78 101.492 164.772 129.522 164.772 164.101C164.772 198.68 136.78 226.71 102.252 226.71Z" stroke="#1B573B"/>
<path d="M108.886 229.201C70.2364 229.201 38.9035 197.825 38.9035 159.118C38.9035 120.412 70.2364 89.0361 108.886 89.0361C147.536 89.0361 178.869 120.412 178.869 159.118C178.869 197.825 147.536 229.201 108.886 229.201Z" stroke="#1B573B"/>
<path d="M114.276 231.692C71.9625 231.692 37.6596 197.341 37.6596 154.967C37.6596 112.592 71.9626 78.2412 114.276 78.2412C156.589 78.2412 190.892 112.592 190.892 154.967C190.892 197.341 156.589 231.692 114.276 231.692Z" stroke="#1B573B"/>
<path d="M122.154 233.352C76.6345 233.352 39.7329 196.4 39.7329 150.814C39.7329 105.229 76.6345 68.2764 122.154 68.2764C167.673 68.2764 204.574 105.229 204.574 150.814C204.574 196.4 167.673 233.352 122.154 233.352Z" stroke="#1B573B"/>
<path d="M129.823 235.014C81.2132 235.014 41.8057 195.551 41.8057 146.871C41.8057 98.1899 81.2133 58.7275 129.823 58.7275C178.434 58.7275 217.841 98.1899 217.841 146.871C217.841 195.551 178.434 235.014 129.823 235.014Z" stroke="#1B573B"/>
<path d="M138.53 237.089C85.1116 237.089 41.8059 193.723 41.8059 140.227C41.8059 86.7312 85.1116 43.3652 138.53 43.3652C191.949 43.3652 235.255 86.7312 235.255 140.227C235.255 193.723 191.949 237.089 138.53 237.089Z" stroke="#1B573B"/>
</g>
</g>
<defs>
<linearGradient id="paint0_linear_213_462" x1="352.018" y1="6.73347" x2="227.852" y2="242.033" gradientUnits="userSpaceOnUse">
<stop stop-color="#747DEF"/>
<stop offset="1" stop-color="#5E3BE1"/>
</linearGradient>
</defs>
</svg>
