<svg width="24" height="20" viewBox="0 0 24 20" fill="none" xmlns="http://www.w3.org/2000/svg">
<rect x="1.02661" y="3.33618" width="19.761" height="12.3185" fill="white"/>
<path d="M23.4516 2.9976C24 5.136 24 9.6 24 9.6C24 9.6 24 14.064 23.4516 16.2024C23.1468 17.3844 22.2552 18.3144 21.126 18.6288C19.0752 19.2 12 19.2 12 19.2C12 19.2 4.9284 19.2 2.874 18.6288C1.74 18.3096 0.8496 17.3808 0.5484 16.2024C6.08728e-08 14.064 0 9.6 0 9.6C0 9.6 6.08728e-08 5.136 0.5484 2.9976C0.8532 1.8156 1.7448 0.8856 2.874 0.5712C4.9284 -2.43491e-07 12 0 12 0C12 0 19.0752 -2.43491e-07 21.126 0.5712C22.26 0.8904 23.1504 1.8192 23.4516 2.9976ZM9.6 13.8L16.8 9.6L9.6 5.4V13.8Z" fill="#FF3636"/>
</svg>
