<svg width="47" height="38" viewBox="0 0 47 38" fill="none" xmlns="http://www.w3.org/2000/svg">
<rect x="2.01038" y="6.53345" width="38.6986" height="24.1238" fill="white"/>
<path d="M45.926 5.8703C47 10.058 47 18.8 47 18.8C47 18.8 47 27.542 45.926 31.7297C45.3291 34.0445 43.5831 35.8657 41.3717 36.4814C37.3556 37.6 23.5 37.6 23.5 37.6C23.5 37.6 9.65145 37.6 5.62825 36.4814C3.4075 35.8563 1.6638 34.0374 1.07395 31.7297C7.00355e-08 27.542 0 18.8 0 18.8C0 18.8 7.00355e-08 10.058 1.07395 5.8703C1.67085 3.55555 3.4169 1.7343 5.62825 1.1186C9.65145 -4.20213e-07 23.5 0 23.5 0C23.5 0 37.3556 -4.20213e-07 41.3717 1.1186C43.5925 1.7437 45.3362 3.5626 45.926 5.8703ZM18.8 27.025L32.9 18.8L18.8 10.575V27.025Z" fill="#FF3636"/>
</svg>
